<svg xmlns="http://www.w3.org/2000/svg" xmlns:xlink="http://www.w3.org/1999/xlink" fill="none" version="1.1" width="292" height="125" viewBox="0 0 292 125"><defs><clipPath id="master_svg0_9_0"><rect x="0" y="0" width="292" height="125" rx="0"/></clipPath><linearGradient x1="0.5" y1="-1.3877787807814457e-16" x2="0.5" y2="1.0163934230804443" id="master_svg1_9_90"><stop offset="0%" stop-color="#1FC6FF" stop-opacity="0"/><stop offset="100%" stop-color="#1FC6FF" stop-opacity="1"/></linearGradient></defs><g clip-path="url(#master_svg0_9_0)"><g><path d="M0,3L292,3L292,117L284,125L0,125L0,3Z" fill="url(#master_svg1_9_90)" fill-opacity="0.4000000059604645" style="mix-blend-mode:passthrough"/></g><g><path d="M0,3L0,125L284,125L292,117L292,3L0,3ZM1,124L283.586,124L291,116.586L291,4L1,4L1,124Z" fill-rule="evenodd" fill="#1FC6FF" fill-opacity="0.23999999463558197" style="mix-blend-mode:passthrough"/></g><g><path d="M0,0L16,0L20,4L0,4L0,0Z" fill="#1FC6FF" fill-opacity="1" style="mix-blend-mode:passthrough"/></g><g><path d="M21,0L25,0L29,4L25,4L21,0Z" fill="#1FC6FF" fill-opacity="1" style="mix-blend-mode:passthrough"/></g><g><path d="M30,0L34,0L38,4L34,4L30,0Z" fill="#1FC6FF" fill-opacity="1" style="mix-blend-mode:passthrough"/></g><g><path d="M39,0L43,0L47,4L43,4L39,0Z" fill="#1FC6FF" fill-opacity="1" style="mix-blend-mode:passthrough"/></g><g><rect x="260" y="3" width="32" height="1" rx="0" fill="#1FC6FF" fill-opacity="1" style="mix-blend-mode:passthrough"/></g><g><rect x="0" y="124" width="32" height="1" rx="0" fill="#1FC6FF" fill-opacity="1" style="mix-blend-mode:passthrough"/></g><g><path d="M292,119L292,125L286,125L292,119Z" fill="#1FC6FF" fill-opacity="1" style="mix-blend-mode:passthrough"/></g></g></svg>