<svg xmlns="http://www.w3.org/2000/svg" xmlns:xlink="http://www.w3.org/1999/xlink" fill="none" version="1.1" width="3767" height="26.9986572265625" viewBox="0 0 3767 26.9986572265625"><defs><linearGradient x1="0.5" y1="-3.0616171314629196e-17" x2="0.5" y2="1" id="master_svg0__20"><stop offset="0%" stop-color="#1B7EF2" stop-opacity="1"/><stop offset="100%" stop-color="#1B7EF2" stop-opacity="0"/></linearGradient><linearGradient x1="0.5" y1="-3.0616171314629196e-17" x2="0.5" y2="1" id="master_svg1__20"><stop offset="0%" stop-color="#1B7EF2" stop-opacity="1"/><stop offset="100%" stop-color="#1B7EF2" stop-opacity="0"/></linearGradient><linearGradient x1="2815.9142456054688" y1="25.9986572265625" x2="3561.4142456054688" y2="25.9986572265625" gradientUnits="userSpaceOnUse" id="master_svg2__21"><stop offset="0%" stop-color="#1B7EF2" stop-opacity="1"/><stop offset="76.4345645904541%" stop-color="#1B7EF2" stop-opacity="1"/><stop offset="100%" stop-color="#1B7EF2" stop-opacity="0"/></linearGradient><linearGradient x1="0.5" y1="-3.0616171314629196e-17" x2="0.5" y2="1" id="master_svg3__20"><stop offset="0%" stop-color="#1B7EF2" stop-opacity="1"/><stop offset="100%" stop-color="#1B7EF2" stop-opacity="0"/></linearGradient><linearGradient x1="0.5" y1="-3.0616171314629196e-17" x2="0.5" y2="1" id="master_svg4__20"><stop offset="0%" stop-color="#1B7EF2" stop-opacity="1"/><stop offset="100%" stop-color="#1B7EF2" stop-opacity="0"/></linearGradient><linearGradient x1="3021.4999389648438" y1="25.9986572265625" x2="3766.9999389648438" y2="25.9986572265625" gradientUnits="userSpaceOnUse" id="master_svg5__21"><stop offset="0%" stop-color="#1B7EF2" stop-opacity="1"/><stop offset="76.4345645904541%" stop-color="#1B7EF2" stop-opacity="1"/><stop offset="100%" stop-color="#1B7EF2" stop-opacity="0"/></linearGradient></defs><g><g transform="matrix(-1,0,0,1,3561.414306640625,0)"><g><path d="M1790.4142633203126,10.998660159454346C1790.4142633203126,10.998660159454346,1789.7071533203125,11.705750159454345,1789.7071533203125,11.705750159454345C1789.7071533203125,11.705750159454345,1789.9779633203125,11.976550159454346,1789.9779633203125,11.976550159454346C1789.9779633203125,11.976550159454346,1790.3603833203124,11.997250159454346,1790.3603833203124,11.997250159454346C1790.3603833203124,11.997250159454346,1790.4142633203126,10.998660159454346,1790.4142633203126,10.998660159454346C1790.4142633203126,10.998660159454346,1790.4142633203126,10.998660159454346,1790.4142633203126,10.998660159454346ZM1780.7071533203125,2.7057601594543454C1780.7071533203125,2.7057601594543454,1789.7071533203125,11.705750159454345,1789.7071533203125,11.705750159454345C1789.7071533203125,11.705750159454345,1791.1213533203124,10.291550159454346,1791.1213533203124,10.291550159454346C1791.1213533203124,10.291550159454346,1782.1213633203124,1.2915501594543457,1782.1213633203124,1.2915501594543457C1782.1213633203124,1.2915501594543457,1780.7071533203125,2.7057601594543454,1780.7071533203125,2.7057601594543454C1780.7071533203125,2.7057601594543454,1780.7071533203125,2.7057601594543454,1780.7071533203125,2.7057601594543454ZM1790.3603833203124,11.997250159454346C1790.3603833203124,11.997250159454346,2068.3601533203127,26.997150159454346,2068.3601533203127,26.997150159454346C2068.3601533203127,26.997150159454346,2068.4681533203125,25.000150159454346,2068.4681533203125,25.000150159454346C2068.4681533203125,25.000150159454346,1790.4681433203125,10.000110159454346,1790.4681433203125,10.000110159454346C1790.4681433203125,10.000110159454346,1790.3603833203124,11.997250159454346,1790.3603833203124,11.997250159454346C1790.3603833203124,11.997250159454346,1790.3603833203124,11.997250159454346,1790.3603833203124,11.997250159454346Z" fill="url(#master_svg0__20)" fill-opacity="1"/></g><g transform="matrix(-1,0,0,-1,4144.240234375,51.41398620605469)"><path d="M2081.8573571875,35.41532310302735C2081.8573571875,35.41532310302735,2081.1514771875,36.12369310302734,2081.1514771875,36.12369310302734C2081.1514771875,36.12369310302734,2081.4221271875,36.39339310302734,2081.4221271875,36.39339310302734C2081.4221271875,36.39339310302734,2081.8036671875,36.41389310302734,2081.8036671875,36.41389310302734C2081.8036671875,36.41389310302734,2081.8573571875,35.41532310302735,2081.8573571875,35.41532310302735C2081.8573571875,35.41532310302735,2081.8573571875,35.41532310302735,2081.8573571875,35.41532310302735ZM2072.1201171875,27.123663103027344C2072.1201171875,27.123663103027344,2081.1514771875,36.12369310302734,2081.1514771875,36.12369310302734C2081.1514771875,36.12369310302734,2082.5632171875,34.706993103027344,2082.5632171875,34.706993103027344C2082.5632171875,34.706993103027344,2073.5318671875,25.706993103027344,2073.5318671875,25.706993103027344C2073.5318671875,25.706993103027344,2072.1201171875,27.123663103027344,2072.1201171875,27.123663103027344C2072.1201171875,27.123663103027344,2072.1201171875,27.123663103027344,2072.1201171875,27.123663103027344ZM2081.8036671875,36.41389310302734C2081.8036671875,36.41389310302734,2360.7721171875,51.41389310302735,2360.7721171875,51.41389310302735C2360.7721171875,51.41389310302735,2360.8801171875,49.41669310302734,2360.8801171875,49.41669310302734C2360.8801171875,49.41669310302734,2081.9110471875,34.41676310302734,2081.9110471875,34.41676310302734C2081.9110471875,34.41676310302734,2081.8036671875,36.41389310302734,2081.8036671875,36.41389310302734C2081.8036671875,36.41389310302734,2081.8036671875,36.41389310302734,2081.8036671875,36.41389310302734Z" fill="url(#master_svg1__20)" fill-opacity="1"/></g><g><line x1="2070.4142456054688" y1="24.9986572265625" x2="3561.4142456054688" y2="24.9986572265625" stroke="url(#master_svg2__21)" fill-opacity="0" fill="none" stroke-width="2"/></g><g><g><path d="M3495.414306640625,17.9986572265625C3495.414306640625,17.9986572265625,3510.414306640625,17.9986572265625,3510.414306640625,17.9986572265625C3510.414306640625,17.9986572265625,3513.414306640625,19.9986572265625,3513.414306640625,19.9986572265625C3513.414306640625,19.9986572265625,3498.414306640625,19.9986572265625,3498.414306640625,19.9986572265625C3498.414306640625,19.9986572265625,3495.414306640625,17.9986572265625,3495.414306640625,17.9986572265625C3495.414306640625,17.9986572265625,3495.414306640625,17.9986572265625,3495.414306640625,17.9986572265625Z" fill="#1B7EF2" fill-opacity="1"/></g><g><path d="M3519.414306640625,17.9986572265625C3519.414306640625,17.9986572265625,3534.414306640625,17.9986572265625,3534.414306640625,17.9986572265625C3534.414306640625,17.9986572265625,3537.414306640625,19.9986572265625,3537.414306640625,19.9986572265625C3537.414306640625,19.9986572265625,3522.414306640625,19.9986572265625,3522.414306640625,19.9986572265625C3522.414306640625,19.9986572265625,3519.414306640625,17.9986572265625,3519.414306640625,17.9986572265625C3519.414306640625,17.9986572265625,3519.414306640625,17.9986572265625,3519.414306640625,17.9986572265625Z" fill="#0D3565" fill-opacity="1"/></g><g><path d="M3543.414306640625,17.9986572265625C3543.414306640625,17.9986572265625,3558.414306640625,17.9986572265625,3558.414306640625,17.9986572265625C3558.414306640625,17.9986572265625,3561.414306640625,19.9986572265625,3561.414306640625,19.9986572265625C3561.414306640625,19.9986572265625,3546.414306640625,19.9986572265625,3546.414306640625,19.9986572265625C3546.414306640625,19.9986572265625,3543.414306640625,17.9986572265625,3543.414306640625,17.9986572265625C3543.414306640625,17.9986572265625,3543.414306640625,17.9986572265625,3543.414306640625,17.9986572265625Z" fill="#0D3565" fill-opacity="1"/></g></g><g><g><path d="M2073.4142456054688,17.9986572265625C2073.4142456054688,17.9986572265625,2088.4142456054688,17.9986572265625,2088.4142456054688,17.9986572265625C2088.4142456054688,17.9986572265625,2091.4142456054688,19.9986572265625,2091.4142456054688,19.9986572265625C2091.4142456054688,19.9986572265625,2076.4142456054688,19.9986572265625,2076.4142456054688,19.9986572265625C2076.4142456054688,19.9986572265625,2073.4142456054688,17.9986572265625,2073.4142456054688,17.9986572265625C2073.4142456054688,17.9986572265625,2073.4142456054688,17.9986572265625,2073.4142456054688,17.9986572265625Z" fill="#F2994A" fill-opacity="1"/></g><g style="opacity:0.699999988079071;"><path d="M2097.4142456054688,17.9986572265625C2097.4142456054688,17.9986572265625,2112.4142456054688,17.9986572265625,2112.4142456054688,17.9986572265625C2112.4142456054688,17.9986572265625,2115.4142456054688,19.9986572265625,2115.4142456054688,19.9986572265625C2115.4142456054688,19.9986572265625,2100.4142456054688,19.9986572265625,2100.4142456054688,19.9986572265625C2100.4142456054688,19.9986572265625,2097.4142456054688,17.9986572265625,2097.4142456054688,17.9986572265625C2097.4142456054688,17.9986572265625,2097.4142456054688,17.9986572265625,2097.4142456054688,17.9986572265625Z" fill="#F2994A" fill-opacity="1"/></g></g></g><g style="opacity:0.5199999809265137;"><path d="M1791,0.9986572265625C1791,0.9986572265625,1976,0.9986572265625,1976,0.9986572265625C1976,0.9986572265625,1986,10.9986572265625,1986,10.9986572265625C1986,10.9986572265625,1781,10.9986572265625,1781,10.9986572265625C1781,10.9986572265625,1791,0.9986572265625,1791,0.9986572265625C1791,0.9986572265625,1791,0.9986572265625,1791,0.9986572265625Z" fill="#1B7EF2" fill-opacity="1"/></g><g><g><path d="M1995.9999566796876,10.998660159454346C1995.9999566796876,10.998660159454346,1995.2928466796875,11.705750159454345,1995.2928466796875,11.705750159454345C1995.2928466796875,11.705750159454345,1995.5636566796875,11.976550159454346,1995.5636566796875,11.976550159454346C1995.5636566796875,11.976550159454346,1995.9460766796874,11.997250159454346,1995.9460766796874,11.997250159454346C1995.9460766796874,11.997250159454346,1995.9999566796876,10.998660159454346,1995.9999566796876,10.998660159454346C1995.9999566796876,10.998660159454346,1995.9999566796876,10.998660159454346,1995.9999566796876,10.998660159454346ZM1986.2928466796875,2.7057601594543454C1986.2928466796875,2.7057601594543454,1995.2928466796875,11.705750159454345,1995.2928466796875,11.705750159454345C1995.2928466796875,11.705750159454345,1996.7070466796874,10.291550159454346,1996.7070466796874,10.291550159454346C1996.7070466796874,10.291550159454346,1987.7070566796874,1.2915501594543457,1987.7070566796874,1.2915501594543457C1987.7070566796874,1.2915501594543457,1986.2928466796875,2.7057601594543454,1986.2928466796875,2.7057601594543454C1986.2928466796875,2.7057601594543454,1986.2928466796875,2.7057601594543454,1986.2928466796875,2.7057601594543454ZM1995.9460766796874,11.997250159454346C1995.9460766796874,11.997250159454346,2273.9458466796877,26.997150159454346,2273.9458466796877,26.997150159454346C2273.9458466796877,26.997150159454346,2274.0538466796875,25.000150159454346,2274.0538466796875,25.000150159454346C2274.0538466796875,25.000150159454346,1996.0538366796875,10.000110159454346,1996.0538366796875,10.000110159454346C1996.0538366796875,10.000110159454346,1995.9460766796874,11.997250159454346,1995.9460766796874,11.997250159454346C1995.9460766796874,11.997250159454346,1995.9460766796874,11.997250159454346,1995.9460766796874,11.997250159454346Z" fill="url(#master_svg3__20)" fill-opacity="1"/></g><g transform="matrix(-1,0,0,-1,4555.41162109375,51.41398620605469)"><path d="M2287.443050546875,35.41532310302735C2287.443050546875,35.41532310302735,2286.737170546875,36.12369310302734,2286.737170546875,36.12369310302734C2286.737170546875,36.12369310302734,2287.007820546875,36.39339310302734,2287.007820546875,36.39339310302734C2287.007820546875,36.39339310302734,2287.389360546875,36.41389310302734,2287.389360546875,36.41389310302734C2287.389360546875,36.41389310302734,2287.443050546875,35.41532310302735,2287.443050546875,35.41532310302735C2287.443050546875,35.41532310302735,2287.443050546875,35.41532310302735,2287.443050546875,35.41532310302735ZM2277.705810546875,27.123663103027344C2277.705810546875,27.123663103027344,2286.737170546875,36.12369310302734,2286.737170546875,36.12369310302734C2286.737170546875,36.12369310302734,2288.148910546875,34.706993103027344,2288.148910546875,34.706993103027344C2288.148910546875,34.706993103027344,2279.117560546875,25.706993103027344,2279.117560546875,25.706993103027344C2279.117560546875,25.706993103027344,2277.705810546875,27.123663103027344,2277.705810546875,27.123663103027344C2277.705810546875,27.123663103027344,2277.705810546875,27.123663103027344,2277.705810546875,27.123663103027344ZM2287.389360546875,36.41389310302734C2287.389360546875,36.41389310302734,2566.357810546875,51.41389310302735,2566.357810546875,51.41389310302735C2566.357810546875,51.41389310302735,2566.465810546875,49.41669310302734,2566.465810546875,49.41669310302734C2566.465810546875,49.41669310302734,2287.496740546875,34.41676310302734,2287.496740546875,34.41676310302734C2287.496740546875,34.41676310302734,2287.389360546875,36.41389310302734,2287.389360546875,36.41389310302734C2287.389360546875,36.41389310302734,2287.389360546875,36.41389310302734,2287.389360546875,36.41389310302734Z" fill="url(#master_svg4__20)" fill-opacity="1"/></g><g><line x1="2275.9999389648438" y1="24.9986572265625" x2="3766.9999389648438" y2="24.9986572265625" stroke="url(#master_svg5__21)" fill-opacity="0" fill="none" stroke-width="2"/></g><g><g><path d="M3701,17.9986572265625C3701,17.9986572265625,3716,17.9986572265625,3716,17.9986572265625C3716,17.9986572265625,3719,19.9986572265625,3719,19.9986572265625C3719,19.9986572265625,3704,19.9986572265625,3704,19.9986572265625C3704,19.9986572265625,3701,17.9986572265625,3701,17.9986572265625C3701,17.9986572265625,3701,17.9986572265625,3701,17.9986572265625Z" fill="#1B7EF2" fill-opacity="1"/></g><g><path d="M3725,17.9986572265625C3725,17.9986572265625,3740,17.9986572265625,3740,17.9986572265625C3740,17.9986572265625,3743,19.9986572265625,3743,19.9986572265625C3743,19.9986572265625,3728,19.9986572265625,3728,19.9986572265625C3728,19.9986572265625,3725,17.9986572265625,3725,17.9986572265625C3725,17.9986572265625,3725,17.9986572265625,3725,17.9986572265625Z" fill="#0D3565" fill-opacity="1"/></g><g><path d="M3749,17.9986572265625C3749,17.9986572265625,3764,17.9986572265625,3764,17.9986572265625C3764,17.9986572265625,3767,19.9986572265625,3767,19.9986572265625C3767,19.9986572265625,3752,19.9986572265625,3752,19.9986572265625C3752,19.9986572265625,3749,17.9986572265625,3749,17.9986572265625C3749,17.9986572265625,3749,17.9986572265625,3749,17.9986572265625Z" fill="#0D3565" fill-opacity="1"/></g></g><g><g><path d="M2278.9999389648438,17.9986572265625C2278.9999389648438,17.9986572265625,2293.9999389648438,17.9986572265625,2293.9999389648438,17.9986572265625C2293.9999389648438,17.9986572265625,2296.9999389648438,19.9986572265625,2296.9999389648438,19.9986572265625C2296.9999389648438,19.9986572265625,2281.9999389648438,19.9986572265625,2281.9999389648438,19.9986572265625C2281.9999389648438,19.9986572265625,2278.9999389648438,17.9986572265625,2278.9999389648438,17.9986572265625C2278.9999389648438,17.9986572265625,2278.9999389648438,17.9986572265625,2278.9999389648438,17.9986572265625Z" fill="#F2994A" fill-opacity="1"/></g><g style="opacity:0.699999988079071;"><path d="M2302.9999389648438,17.9986572265625C2302.9999389648438,17.9986572265625,2317.9999389648438,17.9986572265625,2317.9999389648438,17.9986572265625C2317.9999389648438,17.9986572265625,2320.9999389648438,19.9986572265625,2320.9999389648438,19.9986572265625C2320.9999389648438,19.9986572265625,2305.9999389648438,19.9986572265625,2305.9999389648438,19.9986572265625C2305.9999389648438,19.9986572265625,2302.9999389648438,17.9986572265625,2302.9999389648438,17.9986572265625C2302.9999389648438,17.9986572265625,2302.9999389648438,17.9986572265625,2302.9999389648438,17.9986572265625Z" fill="#F2994A" fill-opacity="1"/></g></g></g></g></svg>