<svg width="1920" height="78" viewBox="0 0 1920 78" fill="none" xmlns="http://www.w3.org/2000/svg">
<g clip-path="url(#clip0_201_7991)">
<g clip-path="url(#clip1_201_7991)">
<path fill-rule="evenodd" clip-rule="evenodd" d="M591.341 36.7149C600.63 52.7349 620.641 65.2549 636.211 65.2549H1285.31C1300.88 65.2549 1320.89 52.7349 1330.18 36.7149L1365.26 -23.7451H556.261L591.341 36.7149Z" fill="url(#paint0_linear_201_7991)"/>
<path fill-rule="evenodd" clip-rule="evenodd" d="M593.498 34.46L558.419 -26L554.098 -23.49L589.179 36.97C593.849 45.02 601.278 52.53 610.088 58.1C618.898 63.68 628.178 66.75 636.209 66.75H1285.31C1293.35 66.75 1302.63 63.68 1311.44 58.1C1320.25 52.53 1327.67 45.02 1332.35 36.97L1367.42 -23.49L1363.1 -26L1328.02 34.46C1319.29 49.51 1300.13 61.75 1285.31 61.75H636.209C621.388 61.75 602.238 49.51 593.498 34.46Z" fill="url(#paint1_linear_201_7991)"/>
<path opacity="0.5" fill-rule="evenodd" clip-rule="evenodd" d="M1330.25 58.2551L1365.26 18.3951L1360.95 16.7451L1325.94 56.6051C1317.22 66.5251 1298.11 74.5951 1283.32 74.5951H635.539C620.758 74.5951 601.638 66.5251 592.918 56.6051L557.918 16.7451L553.598 18.3951L588.609 58.2551C593.268 63.5651 600.679 68.5151 609.468 72.1851C618.268 75.8651 627.528 77.8951 635.539 77.8951H1283.32C1291.34 77.8951 1300.6 75.8651 1309.39 72.1851C1318.18 68.5151 1325.59 63.5651 1330.25 58.2551Z" fill="url(#paint2_linear_201_7991)"/>
<g clip-path="url(#clip2_201_7991)">
<path fill-rule="evenodd" clip-rule="evenodd" d="M588.91 38.2446L571.78 9.24463H0V38.2446H588.91Z" fill="url(#paint3_linear_201_7991)"/>
<g clip-path="url(#clip3_201_7991)">
<path fill-rule="evenodd" clip-rule="evenodd" d="M18.4194 33.7446V34.7446H55.2994V33.7446H18.4194Z" fill="url(#paint4_linear_201_7991)"/>
<path d="M401.738 17.2544C404.222 17.2544 406.238 19.2705 406.238 21.7544C406.238 24.2383 404.222 26.2544 401.738 26.2544C399.254 26.2544 397.238 24.2383 397.238 21.7544C397.238 19.2705 399.254 17.2544 401.738 17.2544Z" stroke="#0CA2F8"/>
<path d="M99.7383 30.2446C101.672 30.2446 103.238 31.8108 103.238 33.7446C103.238 35.6785 101.672 37.2446 99.7383 37.2446C97.8044 37.2446 96.2383 35.6785 96.2383 33.7446C96.2383 31.8108 97.8044 30.2446 99.7383 30.2446Z" stroke="#0CA2F8"/>
<path d="M473.159 25.0757C474.543 25.0757 475.659 26.1918 475.659 27.5757C475.659 28.9595 474.543 30.0757 473.159 30.0757C471.776 30.0757 470.659 28.9595 470.659 27.5757C470.659 26.1918 471.776 25.0757 473.159 25.0757Z" stroke="#0CA2F8"/>
<path d="M60.3003 31.2446C61.6842 31.2446 62.8003 32.3608 62.8003 33.7446C62.8003 35.1285 61.6842 36.2446 60.3003 36.2446C58.9164 36.2446 57.8003 35.1285 57.8003 33.7446C57.8003 32.3608 58.9164 31.2446 60.3003 31.2446Z" stroke="#0CA2F8"/>
<path d="M480.159 25.0757C481.543 25.0757 482.659 26.1918 482.659 27.5757C482.659 28.9595 481.543 30.0757 480.159 30.0757C478.776 30.0757 477.659 28.9595 477.659 27.5757C477.659 26.1918 478.776 25.0757 480.159 25.0757Z" stroke="#0CA2F8"/>
<path d="M67.3003 31.2446C68.6842 31.2446 69.8003 32.3608 69.8003 33.7446C69.8003 35.1285 68.6842 36.2446 67.3003 36.2446C65.9164 36.2446 64.8003 35.1285 64.8003 33.7446C64.8003 32.3608 65.9164 31.2446 67.3003 31.2446Z" stroke="#0CA2F8"/>
<path d="M487.159 25.0757C488.543 25.0757 489.659 26.1918 489.659 27.5757C489.659 28.9595 488.543 30.0757 487.159 30.0757C485.776 30.0757 484.659 28.9595 484.659 27.5757C484.659 26.1918 485.776 25.0757 487.159 25.0757Z" stroke="#0CA2F8"/>
<path d="M74.3003 31.2446C75.6842 31.2446 76.8003 32.3608 76.8003 33.7446C76.8003 35.1285 75.6842 36.2446 74.3003 36.2446C72.9164 36.2446 71.8003 35.1285 71.8003 33.7446C71.8003 32.3608 72.9164 31.2446 74.3003 31.2446Z" stroke="#0CA2F8"/>
<path fill-rule="evenodd" clip-rule="evenodd" d="M423.738 20.2544V23.2544H409.738V20.2544H423.738Z" fill="#0FD4F1"/>
<path d="M423.738 21.7544H436.038L440.428 27.5744H455.158" stroke="#0CA2F8"/>
<path d="M456.068 27.5757H469.148" stroke="#0CA2F8" stroke-dasharray="3 2"/>
<path d="M79.4788 33.7446H92.5588" stroke="#0CA2F8" stroke-dasharray="3 2"/>
<path d="M491.569 27.5757H515.299" stroke="#0CA2F8"/>
<path d="M527.148 27.5757H546.098" stroke="#0CA2F8"/>
<path fill-rule="evenodd" clip-rule="evenodd" d="M516.741 25.9248V28.9248H515.741V25.9248H516.741ZM518.741 28.9248V25.9248H517.741V28.9248H518.741ZM524.741 28.9248V25.9248H523.741V28.9248H524.741ZM520.741 25.9248V28.9248H519.741V25.9248H520.741ZM526.741 28.9248V25.9248H525.741V28.9248H526.741ZM522.741 28.9248V25.9248H521.741V28.9248H522.741Z" fill="#0FD4F1"/>
<path fill-rule="evenodd" clip-rule="evenodd" d="M106.917 34.2449H158.087L178.877 22.2549H392.907V21.2549H178.607L157.827 33.2449H106.917V34.2449Z" fill="url(#paint5_linear_201_7991)"/>
<path d="M550.511 25.0757C551.895 25.0757 553.011 26.1918 553.011 27.5757C553.011 28.9595 551.895 30.0757 550.511 30.0757C549.127 30.0757 548.011 28.9595 548.011 27.5757C548.011 26.1918 549.127 25.0757 550.511 25.0757Z" stroke="#0CA2F8"/>
<path fill-rule="evenodd" clip-rule="evenodd" d="M120.917 32.2446V35.2446H106.917V32.2446H120.917Z" fill="#0FD4F1"/>
</g>
</g>
<g clip-path="url(#clip4_201_7991)">
<path fill-rule="evenodd" clip-rule="evenodd" d="M1920.52 38.2544V9.25439H1348.74L1331.61 38.2544H1920.52Z" fill="url(#paint6_linear_201_7991)"/>
<g clip-path="url(#clip5_201_7991)">
<path fill-rule="evenodd" clip-rule="evenodd" d="M1865.22 33.7544V34.7544H1902.1V33.7544H1865.22Z" fill="url(#paint7_linear_201_7991)"/>
<path d="M1518.78 17.2642C1521.27 17.2642 1523.28 19.2803 1523.28 21.7642C1523.28 24.248 1521.27 26.2642 1518.78 26.2642C1516.3 26.2642 1514.28 24.248 1514.28 21.7642C1514.28 19.2803 1516.3 17.2642 1518.78 17.2642Z" stroke="#0CA2F8"/>
<path d="M1820.78 30.2544C1822.72 30.2544 1824.28 31.8205 1824.28 33.7544C1824.28 35.6883 1822.72 37.2544 1820.78 37.2544C1818.85 37.2544 1817.28 35.6883 1817.28 33.7544C1817.28 31.8205 1818.85 30.2544 1820.78 30.2544Z" stroke="#0CA2F8"/>
<path d="M1447.36 25.0854C1448.75 25.0854 1449.86 26.2016 1449.86 27.5854C1449.86 28.9693 1448.75 30.0854 1447.36 30.0854C1445.98 30.0854 1444.86 28.9693 1444.86 27.5854C1444.86 26.2016 1445.98 25.0854 1447.36 25.0854Z" stroke="#0CA2F8"/>
<path d="M1860.22 31.2544C1861.61 31.2544 1862.72 32.3705 1862.72 33.7544C1862.72 35.1383 1861.61 36.2544 1860.22 36.2544C1858.84 36.2544 1857.72 35.1383 1857.72 33.7544C1857.72 32.3705 1858.84 31.2544 1860.22 31.2544Z" stroke="#0CA2F8"/>
<path d="M1440.36 25.0854C1441.75 25.0854 1442.86 26.2016 1442.86 27.5854C1442.86 28.9693 1441.75 30.0854 1440.36 30.0854C1438.98 30.0854 1437.86 28.9693 1437.86 27.5854C1437.86 26.2016 1438.98 25.0854 1440.36 25.0854Z" stroke="#0CA2F8"/>
<path d="M1853.22 31.2544C1854.61 31.2544 1855.72 32.3705 1855.72 33.7544C1855.72 35.1383 1854.61 36.2544 1853.22 36.2544C1851.84 36.2544 1850.72 35.1383 1850.72 33.7544C1850.72 32.3705 1851.84 31.2544 1853.22 31.2544Z" stroke="#0CA2F8"/>
<path d="M1433.36 25.0854C1434.75 25.0854 1435.86 26.2016 1435.86 27.5854C1435.86 28.9693 1434.75 30.0854 1433.36 30.0854C1431.98 30.0854 1430.86 28.9693 1430.86 27.5854C1430.86 26.2016 1431.98 25.0854 1433.36 25.0854Z" stroke="#0CA2F8"/>
<path d="M1846.22 31.2544C1847.61 31.2544 1848.72 32.3705 1848.72 33.7544C1848.72 35.1383 1847.61 36.2544 1846.22 36.2544C1844.84 36.2544 1843.72 35.1383 1843.72 33.7544C1843.72 32.3705 1844.84 31.2544 1846.22 31.2544Z" stroke="#0CA2F8"/>
<path fill-rule="evenodd" clip-rule="evenodd" d="M1510.78 20.2642V23.2642H1496.78V20.2642H1510.78Z" fill="#0FD4F1"/>
<path d="M1496.78 21.7642H1484.49L1480.09 27.5842H1465.36" stroke="#0CA2F8"/>
<path d="M1451.37 27.5854H1464.45" stroke="#0CA2F8" stroke-dasharray="3 2"/>
<path d="M1827.96 33.7544H1841.04" stroke="#0CA2F8" stroke-dasharray="3 2"/>
<path d="M1405.22 27.5854H1428.95" stroke="#0CA2F8"/>
<path d="M1374.42 27.5854H1393.37" stroke="#0CA2F8"/>
<path fill-rule="evenodd" clip-rule="evenodd" d="M1403.78 28.9341V25.9341H1404.78V28.9341H1403.78ZM1401.78 25.9341V28.9341H1402.78V25.9341H1401.78ZM1395.78 25.9341V28.9341H1396.78V25.9341H1395.78ZM1399.78 28.9341V25.9341H1400.78V28.9341H1399.78ZM1393.78 25.9341V28.9341H1394.78V25.9341H1393.78ZM1397.78 25.9341V28.9341H1398.78V25.9341H1397.78Z" fill="#0FD4F1"/>
<path fill-rule="evenodd" clip-rule="evenodd" d="M1527.62 21.2646V22.2646H1741.65L1762.43 34.2546H1813.61V33.2547H1762.7L1741.92 21.2646H1527.62Z" fill="url(#paint8_linear_201_7991)"/>
<path d="M1370.01 25.0854C1371.39 25.0854 1372.51 26.2016 1372.51 27.5854C1372.51 28.9693 1371.39 30.0854 1370.01 30.0854C1368.63 30.0854 1367.51 28.9693 1367.51 27.5854C1367.51 26.2016 1368.63 25.0854 1370.01 25.0854Z" stroke="#0CA2F8"/>
<path fill-rule="evenodd" clip-rule="evenodd" d="M1813.6 32.2544V35.2544H1799.6V32.2544H1813.6Z" fill="#0FD4F1"/>
</g>
</g>
</g>
</g>
<defs>
<linearGradient id="paint0_linear_201_7991" x1="595.421" y1="-2.42089" x2="595.421" y2="77.9629" gradientUnits="userSpaceOnUse">
<stop stop-color="#0DBDDE" stop-opacity="0.01"/>
<stop offset="1" stop-color="#0DBDDE"/>
</linearGradient>
<linearGradient id="paint1_linear_201_7991" x1="554.098" y1="20.376" x2="1367.42" y2="20.376" gradientUnits="userSpaceOnUse">
<stop stop-color="#0CA2F8" stop-opacity="0.01"/>
<stop offset="0.13379" stop-color="#0EBDF4" stop-opacity="0.533333"/>
<stop offset="0.515306" stop-color="#54F3FF"/>
<stop offset="0.846845" stop-color="#0EBDF4" stop-opacity="0.545098"/>
<stop offset="1" stop-color="#0CA2F8" stop-opacity="0.01"/>
</linearGradient>
<linearGradient id="paint2_linear_201_7991" x1="553.598" y1="47.3206" x2="1365.26" y2="47.3206" gradientUnits="userSpaceOnUse">
<stop stop-color="#0CA2F8" stop-opacity="0.01"/>
<stop offset="0.13379" stop-color="#0EBDF4" stop-opacity="0.533333"/>
<stop offset="0.515306" stop-color="#0FD4F1"/>
<stop offset="0.846845" stop-color="#0EBDF4" stop-opacity="0.545098"/>
<stop offset="1" stop-color="#0CA2F8" stop-opacity="0.01"/>
</linearGradient>
<linearGradient id="paint3_linear_201_7991" x1="28.5077" y1="16.1929" x2="28.5077" y2="42.3852" gradientUnits="userSpaceOnUse">
<stop stop-color="#0DBDDE" stop-opacity="0.01"/>
<stop offset="1" stop-color="#0DBDDE"/>
</linearGradient>
<linearGradient id="paint4_linear_201_7991" x1="54.6664" y1="33.2732" x2="19.9292" y2="33.2732" gradientUnits="userSpaceOnUse">
<stop stop-color="#0FD4F1"/>
<stop offset="1" stop-color="#0CA2F8" stop-opacity="0.01"/>
</linearGradient>
<linearGradient id="paint5_linear_201_7991" x1="173.947" y1="39.58" x2="408.876" y2="39.58" gradientUnits="userSpaceOnUse">
<stop stop-color="#0FD4F1"/>
<stop offset="0.470625" stop-color="#0DB5F5"/>
<stop offset="1" stop-color="#0CA2F8"/>
</linearGradient>
<linearGradient id="paint6_linear_201_7991" x1="1360.12" y1="16.2026" x2="1360.12" y2="42.395" gradientUnits="userSpaceOnUse">
<stop stop-color="#0DBDDE" stop-opacity="0.01"/>
<stop offset="1" stop-color="#0DBDDE"/>
</linearGradient>
<linearGradient id="paint7_linear_201_7991" x1="1865.85" y1="34.2253" x2="1900.59" y2="34.2253" gradientUnits="userSpaceOnUse">
<stop stop-color="#0FD4F1"/>
<stop offset="1" stop-color="#0CA2F8" stop-opacity="0.01"/>
</linearGradient>
<linearGradient id="paint8_linear_201_7991" x1="1746.58" y1="28.9195" x2="1511.65" y2="28.9195" gradientUnits="userSpaceOnUse">
<stop stop-color="#0FD4F1"/>
<stop offset="0.470625" stop-color="#0DB5F5"/>
<stop offset="1" stop-color="#0CA2F8"/>
</linearGradient>
<clipPath id="clip0_201_7991">
<rect width="2288" height="7747" fill="white" transform="translate(-185 -7084)"/>
</clipPath>
<clipPath id="clip1_201_7991">
<rect width="1920.52" height="103.89" fill="white" transform="translate(0 -26)"/>
</clipPath>
<clipPath id="clip2_201_7991">
<rect width="588.91" height="29" fill="white" transform="translate(0 9.24463)"/>
</clipPath>
<clipPath id="clip3_201_7991">
<rect width="535.092" height="20.9902" fill="white" transform="translate(18.4194 16.7544)"/>
</clipPath>
<clipPath id="clip4_201_7991">
<rect width="588.91" height="38.5098" fill="white" transform="translate(1331.61 -0.255371)"/>
</clipPath>
<clipPath id="clip5_201_7991">
<rect width="535.092" height="20.9902" fill="white" transform="translate(1367.01 16.7642)"/>
</clipPath>
</defs>
</svg>
