<svg width="602" height="40" viewBox="0 0 602 40" fill="none" xmlns="http://www.w3.org/2000/svg">
<g clip-path="url(#clip0_5_2)">
<path d="M133.5 34.3379V36.3799H126.5V34.3379H133.5Z" fill="#D43842" fill-opacity="0.498039" stroke="#D43842"/>
<path opacity="0.600538" d="M123.5 34.3379V36.3799H116.5V34.3379H123.5Z" fill="#D43842" fill-opacity="0.498039" stroke="#D43842"/>
<path opacity="0.204074" d="M113.5 34.3379V36.3799H106.5V34.3379H113.5Z" fill="#D43842" fill-opacity="0.498039" stroke="#D43842"/>
<path d="M476.5 34.3379V36.3799H469.5V34.3379H476.5Z" fill="#D43842" fill-opacity="0.498039" stroke="#D43842"/>
<path opacity="0.600538" d="M486.5 34.3379V36.3799H479.5V34.3379H486.5Z" fill="#D43842" fill-opacity="0.498039" stroke="#D43842"/>
<path opacity="0.204074" d="M496.5 34.3379V36.3799H489.5V34.3379H496.5Z" fill="#D43842" fill-opacity="0.498039" stroke="#D43842"/>
<path fill-rule="evenodd" clip-rule="evenodd" d="M76 29.782H134L112 7.47388H54L76 29.782Z" fill="url(#paint0_linear_5_2)" stroke="#707070"/>
<g filter="url(#filter0_f_5_2)">
<path fill-rule="evenodd" clip-rule="evenodd" d="M76 29.7818H134L127.918 23.615L69.9421 23.6391L76 29.7818Z" fill="#0E90E5" fill-opacity="0.396078"/>
</g>
<path fill-rule="evenodd" clip-rule="evenodd" d="M24 23.6978H62L40 1.38965H2L24 23.6978V23.6978Z" stroke="#707070"/>
<path fill-rule="evenodd" clip-rule="evenodd" d="M25 19.6418H113L100 6.45972H12L25 19.6418Z" fill="url(#paint1_linear_5_2)" stroke="#707070"/>
<path d="M13 6.45972H26" stroke="#D43842"/>
<path fill-rule="evenodd" clip-rule="evenodd" d="M577 19.6418H489L502 6.45972H590L577 19.6418Z" fill="url(#paint2_linear_5_2)" stroke="#707070"/>
<path fill-rule="evenodd" clip-rule="evenodd" d="M505.5 10.5159C506.881 10.5159 508 11.6508 508 13.0509C508 14.4509 506.881 15.5859 505.5 15.5859C504.119 15.5859 503 14.4509 503 13.0509C503 11.6508 504.119 10.5159 505.5 10.5159Z" fill="#D43842"/>
<path fill-rule="evenodd" clip-rule="evenodd" d="M520.5 10.5159C521.881 10.5159 523 11.6508 523 13.0509C523 14.4509 521.881 15.5859 520.5 15.5859C519.119 15.5859 518 14.4509 518 13.0509C518 11.6508 519.119 10.5159 520.5 10.5159Z" fill="#D43842"/>
<path fill-rule="evenodd" clip-rule="evenodd" d="M535.5 10.5159C536.881 10.5159 538 11.6508 538 13.0509C538 14.4509 536.881 15.5859 535.5 15.5859C534.119 15.5859 533 14.4509 533 13.0509C533 11.6508 534.119 10.5159 535.5 10.5159Z" fill="#D43842"/>
<path fill-rule="evenodd" clip-rule="evenodd" d="M550.5 10.5159C551.881 10.5159 553 11.6508 553 13.0509C553 14.4509 551.881 15.5859 550.5 15.5859C549.119 15.5859 548 14.4509 548 13.0509C548 11.6508 549.119 10.5159 550.5 10.5159Z" fill="#D43842"/>
<path fill-rule="evenodd" clip-rule="evenodd" d="M565.5 10.5159C566.881 10.5159 568 11.6508 568 13.0509C568 14.4509 566.881 15.5859 565.5 15.5859C564.119 15.5859 563 14.4509 563 13.0509C563 11.6508 564.119 10.5159 565.5 10.5159Z" fill="#D43842"/>
<path fill-rule="evenodd" clip-rule="evenodd" d="M36.5 10.5159C37.8807 10.5159 39 11.6508 39 13.0509C39 14.4509 37.8807 15.5859 36.5 15.5859C35.1193 15.5859 34 14.4509 34 13.0509C34 11.6508 35.1193 10.5159 36.5 10.5159Z" fill="#D43842"/>
<path fill-rule="evenodd" clip-rule="evenodd" d="M51.5 10.5159C52.8807 10.5159 54 11.6508 54 13.0509C54 14.4509 52.8807 15.5859 51.5 15.5859C50.1193 15.5859 49 14.4509 49 13.0509C49 11.6508 50.1193 10.5159 51.5 10.5159Z" fill="#D43842"/>
<path fill-rule="evenodd" clip-rule="evenodd" d="M66.5 10.5159C67.8807 10.5159 69 11.6508 69 13.0509C69 14.4509 67.8807 15.5859 66.5 15.5859C65.1193 15.5859 64 14.4509 64 13.0509C64 11.6508 65.1193 10.5159 66.5 10.5159Z" fill="#D43842"/>
<path fill-rule="evenodd" clip-rule="evenodd" d="M81.5 10.5159C82.8807 10.5159 84 11.6508 84 13.0509C84 14.4509 82.8807 15.5859 81.5 15.5859C80.1193 15.5859 79 14.4509 79 13.0509C79 11.6508 80.1193 10.5159 81.5 10.5159Z" fill="#D43842"/>
<path fill-rule="evenodd" clip-rule="evenodd" d="M96.5 10.5159C97.8807 10.5159 99 11.6508 99 13.0509C99 14.4509 97.8807 15.5859 96.5 15.5859C95.1193 15.5859 94 14.4509 94 13.0509C94 11.6508 95.1193 10.5159 96.5 10.5159Z" fill="#D43842"/>
<path d="M576 6.45972H589" stroke="#D43842" stroke-linejoin="bevel"/>
<path fill-rule="evenodd" clip-rule="evenodd" d="M527 29.782H469L491 7.47388H549L527 29.782Z" fill="url(#paint3_linear_5_2)" stroke="#707070"/>
<g filter="url(#filter1_f_5_2)">
<path fill-rule="evenodd" clip-rule="evenodd" d="M527 29.8646H469L475.082 23.6978L533.058 23.7219L527 29.8646Z" fill="#0E90E5" fill-opacity="0.396078"/>
</g>
<path fill-rule="evenodd" clip-rule="evenodd" d="M578 26.7398H540L562 4.43164H600L578 26.7398V26.7398Z" stroke="#707070"/>
<path d="M534 26.74H541" stroke="#0E90E5"/>
<path fill-rule="evenodd" clip-rule="evenodd" d="M142.5 37.8934L254 37.8935L260 32.8233H345L351 37.8935L460.5 37.8939L496.5 1.38961L106.5 1.38916L142.5 37.8934Z" fill="url(#paint4_linear_5_2)" stroke="#707070"/>
<path d="M254 37.894L260 32.824H345L351 37.894" stroke="#707070"/>
<path d="M106 1.38965L142 37.8939H212" stroke="#707070"/>
<path d="M388 37.8939H461L497 1.38965" stroke="#707070"/>
<path d="M142 1.38965H106L142 37.8939" stroke="#707070"/>
<path d="M461 37.8939L497 1.38965H461" stroke="#707070"/>
<path d="M258 36.8801H282" stroke="#0E90E5"/>
<path d="M323 36.8801H347" stroke="#0E90E5"/>
<g filter="url(#filter2_f_5_2)">
<path d="M285 36.8801H320" stroke="#0E90E5" stroke-width="2"/>
</g>
<path d="M163 37.894H218" stroke="#C2E7F9" stroke-width="2"/>
<path d="M385 37.894H440" stroke="#C2E7F9" stroke-width="2"/>
<path d="M60 23.698H67" stroke="#0E90E5"/>
</g>
<defs>
<filter id="filter0_f_5_2" x="67.9421" y="21.615" width="68.0579" height="10.1669" filterUnits="userSpaceOnUse" color-interpolation-filters="sRGB">
<feFlood flood-opacity="0" result="BackgroundImageFix"/>
<feBlend mode="normal" in="SourceGraphic" in2="BackgroundImageFix" result="shape"/>
<feGaussianBlur stdDeviation="1" result="effect1_foregroundBlur_5_2"/>
</filter>
<filter id="filter1_f_5_2" x="467" y="21.6978" width="68.0579" height="10.1669" filterUnits="userSpaceOnUse" color-interpolation-filters="sRGB">
<feFlood flood-opacity="0" result="BackgroundImageFix"/>
<feBlend mode="normal" in="SourceGraphic" in2="BackgroundImageFix" result="shape"/>
<feGaussianBlur stdDeviation="1" result="effect1_foregroundBlur_5_2"/>
</filter>
<filter id="filter2_f_5_2" x="283" y="33.8801" width="39" height="6" filterUnits="userSpaceOnUse" color-interpolation-filters="sRGB">
<feFlood flood-opacity="0" result="BackgroundImageFix"/>
<feBlend mode="normal" in="SourceGraphic" in2="BackgroundImageFix" result="shape"/>
<feGaussianBlur stdDeviation="1" result="effect1_foregroundBlur_5_2"/>
</filter>
<linearGradient id="paint0_linear_5_2" x1="54" y1="7.47388" x2="54" y2="29.782" gradientUnits="userSpaceOnUse">
<stop stop-color="#20C3F4" stop-opacity="0.01"/>
<stop offset="1" stop-color="#0E90E5" stop-opacity="0.501961"/>
</linearGradient>
<linearGradient id="paint1_linear_5_2" x1="113" y1="6.45974" x2="12" y2="6.45974" gradientUnits="userSpaceOnUse">
<stop stop-color="#D43842" stop-opacity="0.01"/>
<stop offset="1" stop-color="#D43842" stop-opacity="0.501961"/>
</linearGradient>
<linearGradient id="paint2_linear_5_2" x1="489" y1="19.6418" x2="590" y2="19.6418" gradientUnits="userSpaceOnUse">
<stop stop-color="#D43842" stop-opacity="0.01"/>
<stop offset="1" stop-color="#D43842" stop-opacity="0.501961"/>
</linearGradient>
<linearGradient id="paint3_linear_5_2" x1="469" y1="7.47388" x2="469" y2="29.782" gradientUnits="userSpaceOnUse">
<stop stop-color="#20C3F4" stop-opacity="0.01"/>
<stop offset="1" stop-color="#0E90E5" stop-opacity="0.501961"/>
</linearGradient>
<linearGradient id="paint4_linear_5_2" x1="42.0006" y1="1.38965" x2="42.0006" y2="37.8938" gradientUnits="userSpaceOnUse">
<stop stop-color="#20C3F4" stop-opacity="0.01"/>
<stop offset="1" stop-color="#0E90E5" stop-opacity="0.501961"/>
</linearGradient>
<clipPath id="clip0_5_2">
<rect width="602" height="40" fill="white"/>
</clipPath>
</defs>
</svg>
