<svg width="2220" height="109" viewBox="0 0 2220 109" fill="none" xmlns="http://www.w3.org/2000/svg">
<g clip-path="url(#clip0_201_901)">
<path fill-rule="evenodd" clip-rule="evenodd" d="M2219.27 2.10245C2219.59 1.63864 2219.26 1 2218.69 1H1107.61C1107.52 1 1107.43 1.01699 1107.35 1.04794C1107.27 1.0173 1107.19 1.00049 1107.1 1.00049H1.70145C1.15583 1.00049 0.820488 1.59573 1.1016 2.06226L35.8255 59.5778H583.986L599.146 74.404C599.277 74.5319 599.453 74.6036 599.635 74.6036H908.941L925.174 94.9461H1107.1C1107.19 94.9461 1107.27 94.9291 1107.35 94.8982C1107.43 94.9288 1107.52 94.9456 1107.61 94.9456H1289.53L1305.76 74.6031H1615.07C1615.25 74.6031 1615.43 74.5314 1615.56 74.4035L1630.72 59.5773H2178.88L2219.27 2.10245Z" fill="#037AFF" fill-opacity="0.364706"/>
<path d="M2219.27 2.10245L2218.98 1.90112V1.90122L2219.27 2.10245ZM1107.35 1.04794L1107.22 1.37405L1107.35 1.42371L1107.48 1.37381L1107.35 1.04794ZM1.1016 2.06226L0.801815 2.2429L0.801971 2.24316L1.1016 2.06226ZM35.8255 59.5778L35.5258 59.7587L35.6279 59.9278H35.8255V59.5778ZM583.986 59.5778L584.231 59.3276L584.129 59.2278H583.986V59.5778ZM599.146 74.404L599.391 74.1539L599.391 74.1537L599.146 74.404ZM908.941 74.6036L909.215 74.3853L909.109 74.2536H908.941V74.6036ZM925.174 94.9461L924.9 95.1644L925.005 95.2961H925.174V94.9461ZM1107.35 94.8982L1107.48 94.5721L1107.35 94.5224L1107.23 94.5723L1107.35 94.8982ZM1289.53 94.9456V95.2956H1289.7L1289.8 95.1639L1289.53 94.9456ZM1305.76 74.6031V74.2531H1305.59L1305.49 74.3848L1305.76 74.6031ZM1615.56 74.4035L1615.31 74.1532L1615.31 74.1538L1615.56 74.4035ZM1630.72 59.5773V59.2273H1630.57L1630.47 59.3271L1630.72 59.5773ZM2178.88 59.5773V59.9273H2179.06L2179.16 59.7786L2178.88 59.5773ZM2218.69 1.35C2218.98 1.35 2219.14 1.66974 2218.98 1.90112L2219.55 2.30379C2220.04 1.60755 2219.54 0.65 2218.69 0.65V1.35ZM1107.61 1.35H2218.69V0.65H1107.61V1.35ZM1107.48 1.37381C1107.52 1.35853 1107.56 1.35 1107.61 1.35V0.65C1107.47 0.65 1107.34 0.675447 1107.22 0.72206L1107.48 1.37381ZM1107.48 0.721826C1107.36 0.675642 1107.23 0.650488 1107.1 0.650488V1.35049C1107.14 1.35049 1107.19 1.35896 1107.22 1.37405L1107.48 0.721826ZM1107.1 0.650488H1.70145V1.35049H1107.1V0.650488ZM1.70145 0.650488C0.883078 0.650488 0.380355 1.54344 0.801815 2.2429L1.40138 1.88163C1.26062 1.64801 1.42858 1.35049 1.70145 1.35049V0.650488ZM0.801971 2.24316L35.5258 59.7587L36.1251 59.3969L1.40123 1.88137L0.801971 2.24316ZM35.8255 59.9278H583.986V59.2278H35.8255V59.9278ZM583.741 59.8281L598.901 74.6542L599.391 74.1537L584.231 59.3276L583.741 59.8281ZM598.901 74.654C599.097 74.8461 599.361 74.9536 599.635 74.9536V74.2536C599.544 74.2536 599.456 74.2177 599.391 74.1539L598.901 74.654ZM599.635 74.9536H908.941V74.2536H599.635V74.9536ZM908.667 74.8219L924.9 95.1644L925.447 94.7278L909.215 74.3853L908.667 74.8219ZM925.174 95.2961H1107.1V94.5961H925.174V95.2961ZM1107.1 95.2961C1107.23 95.2961 1107.36 95.2707 1107.48 95.224L1107.23 94.5723C1107.19 94.5876 1107.14 94.5961 1107.1 94.5961V95.2961ZM1107.61 94.5956C1107.56 94.5956 1107.52 94.5872 1107.48 94.5721L1107.23 95.2243C1107.34 95.2704 1107.47 95.2956 1107.61 95.2956V94.5956ZM1289.53 94.5956H1107.61V95.2956H1289.53V94.5956ZM1305.49 74.3848L1289.26 94.7273L1289.8 95.1639L1306.04 74.8214L1305.49 74.3848ZM1615.07 74.2531H1305.76V74.9531H1615.07V74.2531ZM1615.31 74.1538C1615.25 74.2171 1615.16 74.2531 1615.07 74.2531V74.9531C1615.34 74.9531 1615.61 74.8457 1615.8 74.6531L1615.31 74.1538ZM1630.47 59.3271L1615.31 74.1532L1615.8 74.6537L1630.96 59.8276L1630.47 59.3271ZM2178.88 59.2273H1630.72V59.9273H2178.88V59.2273ZM2218.98 1.90122L2178.59 59.3761L2179.16 59.7786L2219.55 2.30368L2218.98 1.90122Z" fill="#386AC4"/>
<g clip-path="url(#clip1_201_901)">
<path fill-rule="evenodd" clip-rule="evenodd" d="M1432.94 24.3748L1448.82 48.8368L1415.53 96.1778H808.523L768.949 48.5986L781.297 24.3748H1432.94Z" fill="url(#paint0_linear_201_901)"/>
<path opacity="0.2" fill-rule="evenodd" clip-rule="evenodd" d="M1552.95 12.835L1572.62 47.6344L1528.58 109H698.861L650.608 52.1584L672.012 12.835H1552.95Z" fill="url(#paint1_linear_201_901)"/>
<path opacity="0.4" fill-rule="evenodd" clip-rule="evenodd" d="M1515.56 15.3994L1537.03 49.5764L1497.27 105.794H728.68L681.935 49.9174L704.167 15.3994H1515.56Z" fill="url(#paint2_linear_201_901)"/>
<path opacity="0.4" fill-rule="evenodd" clip-rule="evenodd" d="M1477.3 19.887L1496.33 50.7514L1460.23 101.948H764.612L722.781 51.7934L737.815 19.887H1477.3Z" fill="url(#paint3_linear_201_901)"/>
</g>
<path fill-rule="evenodd" clip-rule="evenodd" d="M1334.13 80.1794H1325.02H1324.32H1321.71H1321.01H1315.22H1314.52H1311.91H1311.21L1302.1 80.1794L1301.4 80.1794V80.8794V88.7113V89.4113H1302.1L1311.21 89.4113H1311.91H1314.52H1315.22H1321.01H1321.71H1324.32H1325.02H1334.13H1334.83V88.7113V80.8794V80.1794H1334.13ZM1324.32 88.7113H1321.71V80.8794H1324.32V88.7113ZM1325.02 80.8794V88.7113H1334.13V80.8794H1325.02ZM1321.01 80.8794V88.7113H1315.22V80.8794H1321.01ZM1311.91 88.7113H1314.52V80.8794H1311.91V88.7113ZM1311.21 88.7113V80.8794L1302.1 80.8794V88.7113L1311.21 88.7113Z" fill="#467FE0"/>
<path d="M1330.62 84.7956H1597.3L1613 69.0542H2172.54" stroke="#3466BD" stroke-width="0.7"/>
<path fill-rule="evenodd" clip-rule="evenodd" d="M888.837 78.2865C888.646 78.2865 888.463 78.2083 888.331 78.0701L880.848 70.2383C880.422 69.7929 880.738 69.0547 881.354 69.0547H885.619C885.81 69.0547 885.993 69.1329 886.125 69.2711L893.608 77.1029C894.033 77.5483 893.718 78.2865 893.102 78.2865H888.837ZM881.354 69.7547L881.354 69.7547L881.354 69.7547L885.619 69.7547L893.102 77.5865H888.837L881.354 69.7547ZM898.135 78.0701C898.267 78.2083 898.45 78.2865 898.641 78.2865H902.906C903.522 78.2865 903.837 77.5483 903.412 77.1029L895.929 69.2711C895.797 69.1329 895.614 69.0547 895.423 69.0547H891.158C890.542 69.0547 890.226 69.7929 890.652 70.2383L898.135 78.0701ZM891.158 69.7547L898.641 77.5865H902.906L895.423 69.7547L891.158 69.7547L891.158 69.7547ZM907.939 78.0701C908.071 78.2083 908.253 78.2865 908.445 78.2865H912.71C913.325 78.2865 913.641 77.5483 913.216 77.1029L905.733 69.2711C905.601 69.1329 905.418 69.0547 905.227 69.0547H900.962C900.346 69.0547 900.03 69.7929 900.456 70.2383L907.939 78.0701ZM900.962 69.7547L908.445 77.5865H912.709L905.227 69.7547L900.962 69.7547Z" fill="#467FE0"/>
<path d="M884.529 89.4114L617.843 89.4114L602.146 73.6699L48.4051 73.6699" stroke="#3466BD" stroke-width="0.7"/>
</g>
<defs>
<linearGradient id="paint0_linear_201_901" x1="768.949" y1="24.3748" x2="768.949" y2="96.1777" gradientUnits="userSpaceOnUse">
<stop stop-color="#0077CF"/>
<stop offset="1" stop-color="#0042A2" stop-opacity="0.01"/>
</linearGradient>
<linearGradient id="paint1_linear_201_901" x1="778.755" y1="12.835" x2="778.755" y2="82.2685" gradientUnits="userSpaceOnUse">
<stop stop-color="#0077CF"/>
<stop offset="1" stop-color="#0042A2" stop-opacity="0.01"/>
</linearGradient>
<linearGradient id="paint2_linear_201_901" x1="800.782" y1="15.3994" x2="800.782" y2="80.667" gradientUnits="userSpaceOnUse">
<stop stop-color="#0077CF"/>
<stop offset="1" stop-color="#0042A2" stop-opacity="0.01"/>
</linearGradient>
<linearGradient id="paint3_linear_201_901" x1="830.294" y1="19.887" x2="830.294" y2="79.1369" gradientUnits="userSpaceOnUse">
<stop stop-color="#0077CF"/>
<stop offset="1" stop-color="#0042A2" stop-opacity="0.01"/>
</linearGradient>
<clipPath id="clip0_201_901">
<rect width="2220" height="109" fill="white"/>
</clipPath>
<clipPath id="clip1_201_901">
<rect width="923" height="97" fill="white" transform="translate(650 12)"/>
</clipPath>
</defs>
</svg>
