<svg width="1718" height="41" viewBox="0 0 1718 41" fill="none" xmlns="http://www.w3.org/2000/svg">
<g clip-path="url(#clip0_5_2)">
<path d="M0 1.23755H33" stroke="#D43842" stroke-opacity="0.8" stroke-width="3"/>
<path d="M40 0.223633H131" stroke="#D43842" stroke-opacity="0.4"/>
<path d="M1684.96 1.29199H1717.96" stroke="#D43842" stroke-opacity="0.8" stroke-width="3"/>
<path d="M1586.96 0.278076H1677.96" stroke="#D43842" stroke-opacity="0.4"/>
<path d="M626.5 35.3379V37.3799H619.5V35.3379H626.5Z" fill="#D43842" fill-opacity="0.498039" stroke="#D43842"/>
<path opacity="0.600538" d="M616.5 35.3379V37.3799H609.5V35.3379H616.5Z" fill="#D43842" fill-opacity="0.498039" stroke="#D43842"/>
<path opacity="0.204074" d="M606.5 35.3379V37.3799H599.5V35.3379H606.5Z" fill="#D43842" fill-opacity="0.498039" stroke="#D43842"/>
<path d="M1099.5 35.3379V37.3799H1092.5V35.3379H1099.5Z" fill="#D43842" fill-opacity="0.498039" stroke="#D43842"/>
<path opacity="0.600538" d="M1109.5 35.3379V37.3799H1102.5V35.3379H1109.5Z" fill="#D43842" fill-opacity="0.498039" stroke="#D43842"/>
<path opacity="0.204074" d="M1119.5 35.3379V37.3799H1112.5V35.3379H1119.5Z" fill="#D43842" fill-opacity="0.498039" stroke="#D43842"/>
<path fill-rule="evenodd" clip-rule="evenodd" d="M569 30.782H627L605 8.47388H547L569 30.782Z" fill="url(#paint0_linear_5_2)" stroke="#707070"/>
<g filter="url(#filter0_f_5_2)">
<path fill-rule="evenodd" clip-rule="evenodd" d="M569 30.7818H627L620.918 24.615L562.942 24.6391L569 30.7818Z" fill="#0E90E5" fill-opacity="0.396078"/>
</g>
<path fill-rule="evenodd" clip-rule="evenodd" d="M517 24.6978H555L533 2.38965H495L517 24.6978V24.6978Z" stroke="#707070"/>
<path fill-rule="evenodd" clip-rule="evenodd" d="M518 20.6418H606L593 7.45972H505L518 20.6418Z" fill="url(#paint1_linear_5_2)" stroke="#707070"/>
<path d="M506 7.45972H519" stroke="#D43842"/>
<path fill-rule="evenodd" clip-rule="evenodd" d="M1200 20.6418H1112L1125 7.45972H1213L1200 20.6418Z" fill="url(#paint2_linear_5_2)" stroke="#707070"/>
<path fill-rule="evenodd" clip-rule="evenodd" d="M1128.5 11.5159C1129.88 11.5159 1131 12.6508 1131 14.0509C1131 15.4509 1129.88 16.5859 1128.5 16.5859C1127.12 16.5859 1126 15.4509 1126 14.0509C1126 12.6508 1127.12 11.5159 1128.5 11.5159Z" fill="#D43842"/>
<path fill-rule="evenodd" clip-rule="evenodd" d="M1143.5 11.5159C1144.88 11.5159 1146 12.6508 1146 14.0509C1146 15.4509 1144.88 16.5859 1143.5 16.5859C1142.12 16.5859 1141 15.4509 1141 14.0509C1141 12.6508 1142.12 11.5159 1143.5 11.5159Z" fill="#D43842"/>
<path fill-rule="evenodd" clip-rule="evenodd" d="M1158.5 11.5159C1159.88 11.5159 1161 12.6508 1161 14.0509C1161 15.4509 1159.88 16.5859 1158.5 16.5859C1157.12 16.5859 1156 15.4509 1156 14.0509C1156 12.6508 1157.12 11.5159 1158.5 11.5159Z" fill="#D43842"/>
<path fill-rule="evenodd" clip-rule="evenodd" d="M1173.5 11.5159C1174.88 11.5159 1176 12.6508 1176 14.0509C1176 15.4509 1174.88 16.5859 1173.5 16.5859C1172.12 16.5859 1171 15.4509 1171 14.0509C1171 12.6508 1172.12 11.5159 1173.5 11.5159Z" fill="#D43842"/>
<path fill-rule="evenodd" clip-rule="evenodd" d="M1188.5 11.5159C1189.88 11.5159 1191 12.6508 1191 14.0509C1191 15.4509 1189.88 16.5859 1188.5 16.5859C1187.12 16.5859 1186 15.4509 1186 14.0509C1186 12.6508 1187.12 11.5159 1188.5 11.5159Z" fill="#D43842"/>
<path fill-rule="evenodd" clip-rule="evenodd" d="M529.5 11.5159C530.881 11.5159 532 12.6508 532 14.0509C532 15.4509 530.881 16.5859 529.5 16.5859C528.119 16.5859 527 15.4509 527 14.0509C527 12.6508 528.119 11.5159 529.5 11.5159Z" fill="#D43842"/>
<path fill-rule="evenodd" clip-rule="evenodd" d="M544.5 11.5159C545.881 11.5159 547 12.6508 547 14.0509C547 15.4509 545.881 16.5859 544.5 16.5859C543.119 16.5859 542 15.4509 542 14.0509C542 12.6508 543.119 11.5159 544.5 11.5159Z" fill="#D43842"/>
<path fill-rule="evenodd" clip-rule="evenodd" d="M559.5 11.5159C560.881 11.5159 562 12.6508 562 14.0509C562 15.4509 560.881 16.5859 559.5 16.5859C558.119 16.5859 557 15.4509 557 14.0509C557 12.6508 558.119 11.5159 559.5 11.5159Z" fill="#D43842"/>
<path fill-rule="evenodd" clip-rule="evenodd" d="M574.5 11.5159C575.881 11.5159 577 12.6508 577 14.0509C577 15.4509 575.881 16.5859 574.5 16.5859C573.119 16.5859 572 15.4509 572 14.0509C572 12.6508 573.119 11.5159 574.5 11.5159Z" fill="#D43842"/>
<path fill-rule="evenodd" clip-rule="evenodd" d="M589.5 11.5159C590.881 11.5159 592 12.6508 592 14.0509C592 15.4509 590.881 16.5859 589.5 16.5859C588.119 16.5859 587 15.4509 587 14.0509C587 12.6508 588.119 11.5159 589.5 11.5159Z" fill="#D43842"/>
<path d="M1199 7.45972H1212" stroke="#D43842" stroke-linejoin="bevel"/>
<path fill-rule="evenodd" clip-rule="evenodd" d="M1150 30.782H1092L1114 8.47388H1172L1150 30.782Z" fill="url(#paint3_linear_5_2)" stroke="#707070"/>
<g filter="url(#filter1_f_5_2)">
<path fill-rule="evenodd" clip-rule="evenodd" d="M1150 30.8646H1092L1098.08 24.6978L1156.06 24.7219L1150 30.8646Z" fill="#0E90E5" fill-opacity="0.396078"/>
</g>
<path fill-rule="evenodd" clip-rule="evenodd" d="M1201 27.7398H1163L1185 5.43164H1223L1201 27.7398V27.7398Z" stroke="#707070"/>
<path d="M1157 27.74H1164" stroke="#0E90E5"/>
<path fill-rule="evenodd" clip-rule="evenodd" d="M635 38.8939H811L817 33.8238H902L908 38.8939H1084L1120 2.38965H599L635 38.8939Z" fill="url(#paint4_linear_5_2)" stroke="#707070"/>
<path d="M811 38.894L817 33.824H902L908 38.894" stroke="#707070"/>
<path d="M599 2.38965L635 38.8939H705" stroke="#707070"/>
<path d="M1011 38.8939H1084L1120 2.38965" stroke="#707070"/>
<path d="M635 2.38965H599L635 38.8939" stroke="#707070"/>
<path d="M1084 38.8939L1120 2.38965H1084" stroke="#707070"/>
<path d="M815 37.8801H839" stroke="#0E90E5"/>
<path d="M880 37.8801H904" stroke="#0E90E5"/>
<g filter="url(#filter2_f_5_2)">
<path d="M842 37.8801H877" stroke="#0E90E5" stroke-width="2"/>
</g>
<path d="M680 38.894H735" stroke="#C2E7F9" stroke-width="2"/>
<path d="M982 38.894H1037" stroke="#C2E7F9" stroke-width="2"/>
<path d="M553 24.698H560" stroke="#0E90E5"/>
<path d="M33 2.38989H499" stroke="#707070"/>
<g filter="url(#filter3_f_5_2)">
<path d="M33 0.361816H499" stroke="#707070" stroke-width="5"/>
</g>
<path d="M1219 2.38989H1685" stroke="#707070"/>
<g filter="url(#filter4_f_5_2)">
<path d="M1219 0.361816H1685" stroke="#707070" stroke-width="5"/>
</g>
</g>
<defs>
<filter id="filter0_f_5_2" x="560.942" y="22.615" width="68.0579" height="10.1669" filterUnits="userSpaceOnUse" color-interpolation-filters="sRGB">
<feFlood flood-opacity="0" result="BackgroundImageFix"/>
<feBlend mode="normal" in="SourceGraphic" in2="BackgroundImageFix" result="shape"/>
<feGaussianBlur stdDeviation="1" result="effect1_foregroundBlur_5_2"/>
</filter>
<filter id="filter1_f_5_2" x="1090" y="22.6978" width="68.0579" height="10.1669" filterUnits="userSpaceOnUse" color-interpolation-filters="sRGB">
<feFlood flood-opacity="0" result="BackgroundImageFix"/>
<feBlend mode="normal" in="SourceGraphic" in2="BackgroundImageFix" result="shape"/>
<feGaussianBlur stdDeviation="1" result="effect1_foregroundBlur_5_2"/>
</filter>
<filter id="filter2_f_5_2" x="840" y="34.8801" width="39" height="6" filterUnits="userSpaceOnUse" color-interpolation-filters="sRGB">
<feFlood flood-opacity="0" result="BackgroundImageFix"/>
<feBlend mode="normal" in="SourceGraphic" in2="BackgroundImageFix" result="shape"/>
<feGaussianBlur stdDeviation="1" result="effect1_foregroundBlur_5_2"/>
</filter>
<filter id="filter3_f_5_2" x="19" y="-16.1382" width="494" height="33" filterUnits="userSpaceOnUse" color-interpolation-filters="sRGB">
<feFlood flood-opacity="0" result="BackgroundImageFix"/>
<feBlend mode="normal" in="SourceGraphic" in2="BackgroundImageFix" result="shape"/>
<feGaussianBlur stdDeviation="7" result="effect1_foregroundBlur_5_2"/>
</filter>
<filter id="filter4_f_5_2" x="1205" y="-16.1382" width="494" height="33" filterUnits="userSpaceOnUse" color-interpolation-filters="sRGB">
<feFlood flood-opacity="0" result="BackgroundImageFix"/>
<feBlend mode="normal" in="SourceGraphic" in2="BackgroundImageFix" result="shape"/>
<feGaussianBlur stdDeviation="7" result="effect1_foregroundBlur_5_2"/>
</filter>
<linearGradient id="paint0_linear_5_2" x1="547" y1="8.47388" x2="547" y2="30.782" gradientUnits="userSpaceOnUse">
<stop stop-color="#20C3F4" stop-opacity="0.01"/>
<stop offset="1" stop-color="#0E90E5" stop-opacity="0.501961"/>
</linearGradient>
<linearGradient id="paint1_linear_5_2" x1="606" y1="7.45974" x2="505" y2="7.45974" gradientUnits="userSpaceOnUse">
<stop stop-color="#D43842" stop-opacity="0.01"/>
<stop offset="1" stop-color="#D43842" stop-opacity="0.501961"/>
</linearGradient>
<linearGradient id="paint2_linear_5_2" x1="1112" y1="20.6418" x2="1213" y2="20.6418" gradientUnits="userSpaceOnUse">
<stop stop-color="#D43842" stop-opacity="0.01"/>
<stop offset="1" stop-color="#D43842" stop-opacity="0.501961"/>
</linearGradient>
<linearGradient id="paint3_linear_5_2" x1="1092" y1="8.47388" x2="1092" y2="30.782" gradientUnits="userSpaceOnUse">
<stop stop-color="#20C3F4" stop-opacity="0.01"/>
<stop offset="1" stop-color="#0E90E5" stop-opacity="0.501961"/>
</linearGradient>
<linearGradient id="paint4_linear_5_2" x1="599.001" y1="2.38965" x2="599.001" y2="38.8938" gradientUnits="userSpaceOnUse">
<stop stop-color="#20C3F4" stop-opacity="0.01"/>
<stop offset="1" stop-color="#0E90E5" stop-opacity="0.501961"/>
</linearGradient>
<clipPath id="clip0_5_2">
<rect width="1718" height="41" fill="white"/>
</clipPath>
</defs>
</svg>
