<svg width="1014" height="67" viewBox="0 0 1014 67" fill="none" xmlns="http://www.w3.org/2000/svg">
<path d="M243 25.3438L245.278 23L255 33L245.278 43L243 40.6562L250.443 33L243 25.3438Z" fill="#1FC6FF"/>
<path d="M283 25.3438L285.278 23L295 33L285.278 43L283 40.6562L290.443 33L283 25.3438Z" fill="#1FC6FF"/>
<path d="M263 25.3438L265.278 23L275 33L265.278 43L263 40.6562L270.443 33L263 25.3438Z" fill="#1FC6FF" fill-opacity="0.32"/>
<path d="M303 25.3438L305.278 23L315 33L305.278 43L303 40.6562L310.443 33L303 25.3438Z" fill="#1FC6FF" fill-opacity="0.32"/>
<path d="M771 25.3438L768.722 23L759 33L768.722 43L771 40.6562L763.557 33L771 25.3438Z" fill="#1FC6FF"/>
<path d="M731 25.3438L728.722 23L719 33L728.722 43L731 40.6562L723.557 33L731 25.3438Z" fill="#1FC6FF"/>
<path d="M751 25.3438L748.722 23L739 33L748.722 43L751 40.6562L743.557 33L751 25.3438Z" fill="#1FC6FF" fill-opacity="0.32"/>
<path d="M711 25.3438L708.722 23L699 33L708.722 43L711 40.6562L703.557 33L711 25.3438Z" fill="#1FC6FF" fill-opacity="0.32"/>
<path d="M43 31L45 33L43 35" stroke="#1FC6FF" stroke-opacity="0.56" stroke-width="1.20592" stroke-miterlimit="10"/>
<path d="M35 43L33 45L31 43" stroke="#1FC6FF" stroke-opacity="0.56" stroke-width="1.20592" stroke-miterlimit="10"/>
<path d="M23 35L21 33L23 31" stroke="#1FC6FF" stroke-opacity="0.56" stroke-width="1.20592" stroke-miterlimit="10"/>
<path d="M31 23L33 21L35 23" stroke="#1FC6FF" stroke-opacity="0.56" stroke-width="1.20592" stroke-miterlimit="10"/>
<path d="M34 32H32V34H34V32Z" stroke="#1FC6FF" stroke-opacity="0.56" stroke-width="0.604533" stroke-miterlimit="10"/>
<path d="M37 35V37H35" stroke="#1FC6FF" stroke-opacity="0.56" stroke-width="1.20592" stroke-miterlimit="10"/>
<path d="M31 37H29V35" stroke="#1FC6FF" stroke-opacity="0.56" stroke-width="1.20592" stroke-miterlimit="10"/>
<path d="M29 31V29H31" stroke="#1FC6FF" stroke-opacity="0.56" stroke-width="1.20592" stroke-miterlimit="10"/>
<path d="M35 29H37V31" stroke="#1FC6FF" stroke-opacity="0.56" stroke-width="1.20592" stroke-miterlimit="10"/>
<path fill-rule="evenodd" clip-rule="evenodd" d="M153.126 34H65V32H153.126C153.57 30.2748 155.136 29 157 29H165C167.209 29 169 30.7909 169 33C169 35.2091 167.209 37 165 37H157C155.136 37 153.57 35.7252 153.126 34Z" fill="#1FC6FF" fill-opacity="0.32"/>
<path d="M971 32L969 34L971 36" stroke="#1FC6FF" stroke-opacity="0.56" stroke-width="1.20592" stroke-miterlimit="10"/>
<path d="M979 44L981 46L983 44" stroke="#1FC6FF" stroke-opacity="0.56" stroke-width="1.20592" stroke-miterlimit="10"/>
<path d="M991 36L993 34L991 32" stroke="#1FC6FF" stroke-opacity="0.56" stroke-width="1.20592" stroke-miterlimit="10"/>
<path d="M983 24L981 22L979 24" stroke="#1FC6FF" stroke-opacity="0.56" stroke-width="1.20592" stroke-miterlimit="10"/>
<path d="M980 33H982V35H980V33Z" stroke="#1FC6FF" stroke-opacity="0.56" stroke-width="0.604533" stroke-miterlimit="10"/>
<path d="M977 36V38H979" stroke="#1FC6FF" stroke-opacity="0.56" stroke-width="1.20592" stroke-miterlimit="10"/>
<path d="M983 38H985V36" stroke="#1FC6FF" stroke-opacity="0.56" stroke-width="1.20592" stroke-miterlimit="10"/>
<path d="M985 32V30H983" stroke="#1FC6FF" stroke-opacity="0.56" stroke-width="1.20592" stroke-miterlimit="10"/>
<path d="M979 30H977V32" stroke="#1FC6FF" stroke-opacity="0.56" stroke-width="1.20592" stroke-miterlimit="10"/>
<path fill-rule="evenodd" clip-rule="evenodd" d="M860.874 35H949V33H860.874C860.43 31.2748 858.864 30 857 30H849C846.791 30 845 31.7909 845 34C845 36.2091 846.791 38 849 38H857C858.864 38 860.43 36.7252 860.874 35Z" fill="#1FC6FF" fill-opacity="0.32"/>
<path d="M1 58L5.00354 62H174.206L178.21 66H507" stroke="#1FC6FF" stroke-width="2"/>
<path d="M1012.5 58L1008.5 62H839.5L835.5 66H507" stroke="#1FC6FF" stroke-width="2"/>
<path d="M1 9L5.00354 5H174.206L178.21 1H507" stroke="#1FC6FF" stroke-width="2"/>
<path d="M1012.5 9L1008.5 5H839.5L835.5 1H507" stroke="#1FC6FF" stroke-width="2"/>
<mask id="mask0_52_268" style="mask-type:alpha" maskUnits="userSpaceOnUse" x="2" y="2" width="1009" height="63">
<path d="M178.611 2L174.603 6H5.5L2 9.5V57.5L5.5 61H174.649L178.646 65H835.09L839.103 61H1007L1011 57V9L1008 6H839.09L835.086 2H178.611Z" fill="url(#paint0_linear_52_268)"/>
</mask>
<g mask="url(#mask0_52_268)">
<path d="M177.611 2L173.603 6H4.5L1 9.5V57.5L4.5 61H173.649L177.646 65H834.09L838.103 61H1007.08L1011 57V10L1007 6H838.09L834.086 2H177.611Z" fill="url(#paint1_linear_52_268)" fill-opacity="0.63"/>
</g>
<defs>
<linearGradient id="paint0_linear_52_268" x1="-58" y1="39.9982" x2="1072" y2="32.9984" gradientUnits="userSpaceOnUse">
<stop stop-color="#1FC6FF" stop-opacity="0"/>
<stop offset="0.508424" stop-color="#1FC6FF"/>
<stop offset="1" stop-color="#1FC6FF" stop-opacity="0"/>
</linearGradient>
<linearGradient id="paint1_linear_52_268" x1="506" y1="2" x2="506" y2="65" gradientUnits="userSpaceOnUse">
<stop stop-color="#1FC6FF" stop-opacity="0"/>
<stop offset="1" stop-color="#1FC6FF"/>
</linearGradient>
</defs>
</svg>
