<svg xmlns="http://www.w3.org/2000/svg" xmlns:xlink="http://www.w3.org/1999/xlink" fill="none" version="1.1" width="907" height="103" viewBox="0 0 907 103"><defs><linearGradient x1="0.49579811096191406" y1="-0.08799999952316284" x2="0.4999997913837433" y2="0.9999998211860657" id="master_svg0__2"><stop offset="0%" stop-color="#1B7EF2" stop-opacity="0"/><stop offset="100%" stop-color="#1B7EF2" stop-opacity="0.38999998569488525"/></linearGradient><linearGradient x1="0.5989465117454529" y1="0.07689473032951355" x2="1.5352928638458252" y2="5.000050067901611" id="master_svg1__3"><stop offset="0%" stop-color="#1A5AA4" stop-opacity="0.2800000011920929"/><stop offset="100%" stop-color="#0669DD" stop-opacity="0.6499999761581421"/></linearGradient><linearGradient x1="6.140469821502847e-8" y1="-0.07936518639326096" x2="0.6176469922065735" y2="0.9999998807907104" id="master_svg2__4"><stop offset="0%" stop-color="#6D8FB8" stop-opacity="0.05000000074505806"/><stop offset="100%" stop-color="#6D8FB8" stop-opacity="1"/></linearGradient><linearGradient x1="0.5989465117454529" y1="0.07689473032951355" x2="1.5352928638458252" y2="5.000050067901611" id="master_svg3__3"><stop offset="0%" stop-color="#1A5AA4" stop-opacity="0.2800000011920929"/><stop offset="100%" stop-color="#0669DD" stop-opacity="0.6499999761581421"/></linearGradient><linearGradient x1="6.894330795148562e-8" y1="-0.08800011873245239" x2="0.6176469922065735" y2="0.9999998807907104" id="master_svg4__6"><stop offset="0%" stop-color="#6D8FB8" stop-opacity="0.05000000074505806"/><stop offset="100%" stop-color="#6D8FB8" stop-opacity="1"/></linearGradient><linearGradient x1="0.4996587038040161" y1="-0.3888886272907257" x2="0.4996587038040161" y2="0.9999997615814209" id="master_svg5__7"><stop offset="0%" stop-color="#050607" stop-opacity="0.3100000023841858"/><stop offset="55.20833134651184%" stop-color="#10437F" stop-opacity="0.5400000214576721"/><stop offset="78.64583134651184%" stop-color="#1767C5" stop-opacity="0.7799999713897705"/><stop offset="100%" stop-color="#1B7EF2" stop-opacity="0.699999988079071"/></linearGradient><filter id="master_svg6_0_4030" filterUnits="objectBoundingBox" color-interpolation-filters="sRGB" x="-61" y="-58" width="160" height="81"><feFlood flood-opacity="0" result="BackgroundImageFix"/><feColorMatrix in="SourceAlpha" type="matrix" values="0 0 0 0 0 0 0 0 0 0 0 0 0 0 0 0 0 0 127 0"/><feMorphology radius="5" operator="dilate" in="SourceAlpha" result="effect1_dropShadow"/><feOffset dy="1" dx="0"/><feGaussianBlur stdDeviation="4.5"/><feColorMatrix type="matrix" values="0 0 0 0 0.5684548616409302 0 0 0 0 0.7650489807128906 0 0 0 0 0.9958333373069763 0 0 0 0.8299999833106995 0"/><feBlend mode="normal" in2="BackgroundImageFix" result="effect1_dropShadow"/><feColorMatrix in="SourceAlpha" type="matrix" values="0 0 0 0 0 0 0 0 0 0 0 0 0 0 0 0 0 0 127 0"/><feMorphology radius="2" operator="dilate" in="SourceAlpha" result="effect2_dropShadow"/><feOffset dy="2" dx="0"/><feGaussianBlur stdDeviation="9"/><feColorMatrix type="matrix" values="0 0 0 0 0.40552085638046265 0 0 0 0 0.65789794921875 0 0 0 0 0.9541666507720947 0 0 0 0.5199999809265137 0"/><feBlend mode="normal" in2="effect1_dropShadow" result="effect2_dropShadow"/><feBlend mode="normal" in="SourceGraphic" in2="effect2_dropShadow" result="shape"/></filter><linearGradient x1="0.013698608614504337" y1="0.054794665426015854" x2="0.2791323959827423" y2="0.8767048120498657" id="master_svg7__9"><stop offset="0%" stop-color="#1A5AA4" stop-opacity="0.8700000047683716"/><stop offset="100%" stop-color="#0669DD" stop-opacity="0.6499999761581421"/></linearGradient><linearGradient x1="0.013698608614504337" y1="0.054794665426015854" x2="0.2791323959827423" y2="0.8767048120498657" id="master_svg8__9"><stop offset="0%" stop-color="#1A5AA4" stop-opacity="0.8700000047683716"/><stop offset="100%" stop-color="#0669DD" stop-opacity="0.6499999761581421"/></linearGradient><linearGradient x1="0.5" y1="-0.3986012041568756" x2="0.5" y2="0.9999998211860657" id="master_svg9__01"><stop offset="0%" stop-color="#14202E" stop-opacity="1"/><stop offset="100%" stop-color="#96C6FE" stop-opacity="1"/></linearGradient><linearGradient x1="0.5638198852539062" y1="0.06250012665987015" x2="0.5638198852539062" y2="0.9375" id="master_svga__04"><stop offset="0%" stop-color="#1B7EF2" stop-opacity="0.41999998688697815"/><stop offset="100%" stop-color="#1B7EF2" stop-opacity="0"/></linearGradient><linearGradient x1="0.4698498845100403" y1="0.06249992549419403" x2="0.4698498845100403" y2="1" id="master_svgb__05"><stop offset="0%" stop-color="#29AFFA" stop-opacity="1"/><stop offset="59.89583134651184%" stop-color="#29AFFA" stop-opacity="0"/><stop offset="100%" stop-color="#29AFFA" stop-opacity="0"/></linearGradient><linearGradient x1="0.5" y1="-3.0616171314629196e-17" x2="0.5" y2="1" id="master_svgc__06"><stop offset="0%" stop-color="#1B7EF2" stop-opacity="0.41999998688697815"/><stop offset="100%" stop-color="#1B7EF2" stop-opacity="0"/></linearGradient><linearGradient x1="0.6314103007316589" y1="-8.073737804616815e-14" x2="0.6314102411270142" y2="1" id="master_svgd__07"><stop offset="0%" stop-color="#29AFFA" stop-opacity="1"/><stop offset="95.98060250282288%" stop-color="#29AFFA" stop-opacity="0"/><stop offset="100%" stop-color="#29AFFA" stop-opacity="0"/></linearGradient><linearGradient x1="0.3606557250022888" y1="-7.0748109282060215e-15" x2="0.3606557250022888" y2="1" id="master_svge__08"><stop offset="0%" stop-color="#1B7EF2" stop-opacity="0.41999998688697815"/><stop offset="100%" stop-color="#1B7EF2" stop-opacity="0"/></linearGradient><linearGradient x1="0.5286885499954224" y1="-1.3257591639087574e-13" x2="0.5286885499954224" y2="1" id="master_svgf__09"><stop offset="0%" stop-color="#29AFFA" stop-opacity="1"/><stop offset="95.98060250282288%" stop-color="#29AFFA" stop-opacity="0"/><stop offset="100%" stop-color="#29AFFA" stop-opacity="0"/></linearGradient><linearGradient x1="0.3606557250022888" y1="-7.0748109282060215e-15" x2="0.3606557250022888" y2="1" id="master_svgg__10"><stop offset="0%" stop-color="#164277" stop-opacity="1"/><stop offset="100%" stop-color="#14253A" stop-opacity="0.10000000149011612"/></linearGradient><linearGradient x1="0.5286885499954224" y1="-1.3257591639087574e-13" x2="0.5286885499954224" y2="1" id="master_svgh__09"><stop offset="0%" stop-color="#29AFFA" stop-opacity="1"/><stop offset="95.98060250282288%" stop-color="#29AFFA" stop-opacity="0"/><stop offset="100%" stop-color="#29AFFA" stop-opacity="0"/></linearGradient><filter id="master_svgi_0_4041" filterUnits="objectBoundingBox" color-interpolation-filters="sRGB" x="-61" y="-61" width="152" height="81"><feFlood flood-opacity="0" result="BackgroundImageFix"/><feColorMatrix in="SourceAlpha" type="matrix" values="0 0 0 0 0 0 0 0 0 0 0 0 0 0 0 0 0 0 127 0"/><feMorphology radius="5" operator="dilate" in="SourceAlpha" result="effect1_dropShadow"/><feOffset dy="0" dx="0"/><feGaussianBlur stdDeviation="4.5"/><feColorMatrix type="matrix" values="0 0 0 0 0.5684548616409302 0 0 0 0 0.7650489807128906 0 0 0 0 0.9958333373069763 0 0 0 0.8299999833106995 0"/><feBlend mode="normal" in2="BackgroundImageFix" result="effect1_dropShadow"/><feColorMatrix in="SourceAlpha" type="matrix" values="0 0 0 0 0 0 0 0 0 0 0 0 0 0 0 0 0 0 127 0"/><feMorphology radius="2" operator="dilate" in="SourceAlpha" result="effect2_dropShadow"/><feOffset dy="0" dx="0"/><feGaussianBlur stdDeviation="9"/><feColorMatrix type="matrix" values="0 0 0 0 0.40552085638046265 0 0 0 0 0.65789794921875 0 0 0 0 0.9541666507720947 0 0 0 0.5199999809265137 0"/><feBlend mode="normal" in2="effect1_dropShadow" result="effect2_dropShadow"/><feBlend mode="normal" in="SourceGraphic" in2="effect2_dropShadow" result="shape"/></filter><filter id="master_svgj_0_4042" filterUnits="objectBoundingBox" color-interpolation-filters="sRGB" x="-61" y="-61" width="152" height="81"><feFlood flood-opacity="0" result="BackgroundImageFix"/><feColorMatrix in="SourceAlpha" type="matrix" values="0 0 0 0 0 0 0 0 0 0 0 0 0 0 0 0 0 0 127 0"/><feMorphology radius="5" operator="dilate" in="SourceAlpha" result="effect1_dropShadow"/><feOffset dy="0" dx="0"/><feGaussianBlur stdDeviation="4.5"/><feColorMatrix type="matrix" values="0 0 0 0 0.5684548616409302 0 0 0 0 0.7650489807128906 0 0 0 0 0.9958333373069763 0 0 0 0.8299999833106995 0"/><feBlend mode="normal" in2="BackgroundImageFix" result="effect1_dropShadow"/><feColorMatrix in="SourceAlpha" type="matrix" values="0 0 0 0 0 0 0 0 0 0 0 0 0 0 0 0 0 0 127 0"/><feMorphology radius="2" operator="dilate" in="SourceAlpha" result="effect2_dropShadow"/><feOffset dy="0" dx="0"/><feGaussianBlur stdDeviation="9"/><feColorMatrix type="matrix" values="0 0 0 0 0.40552085638046265 0 0 0 0 0.65789794921875 0 0 0 0 0.9541666507720947 0 0 0 0.5199999809265137 0"/><feBlend mode="normal" in2="effect1_dropShadow" result="effect2_dropShadow"/><feBlend mode="normal" in="SourceGraphic" in2="effect2_dropShadow" result="shape"/></filter></defs><g><g><g><path d="M2,0.5C2,0.5,88.2899,0.5,88.2899,0.5C88.2899,0.5,120,63,120,63C120,63,36.7059,63,36.7059,63C36.7059,63,2,29,2,29C2,29,2,0.5,2,0.5C2,0.5,2,0.5,2,0.5Z" fill="url(#master_svg0__2)" fill-opacity="1"/></g><g><path d="M119.499976953125,62.49989C119.499976953125,62.49989,35.000016953125,61.99989,35.000016953125,61.99989C35.000016953125,61.99989,28.036376953125,56,28.036376953125,56C28.036376953125,56,116.536376953125,56.5,116.536376953125,56.5C116.536376953125,56.5,119.499976953125,62.49989,119.499976953125,62.49989C119.499976953125,62.49989,119.499976953125,62.49989,119.499976953125,62.49989Z" fill-rule="evenodd" fill="url(#master_svg1__3)" fill-opacity="1"/></g><g><path d="M36,63C36,63,35.3032,63.7173,35.3032,63.7173C35.3032,63.7173,35.5942,64,35.5942,64C35.5942,64,36,64,36,64C36,64,36,63,36,63C36,63,36,63,36,63ZM1,29C1,29,0,29,0,29C0,29,0,29.4227,0,29.4227C0,29.4227,0.303214,29.7173,0.303214,29.7173C0.303214,29.7173,1,29,1,29C1,29,1,29,1,29ZM120,62C120,62,36,62,36,62C36,62,36,64,36,64C36,64,120,64,120,64C120,64,120,62,120,62C120,62,120,62,120,62ZM36.6968,62.2827C36.6968,62.2827,1.69679,28.2827,1.69679,28.2827C1.69679,28.2827,0.303214,29.7173,0.303214,29.7173C0.303214,29.7173,35.3032,63.7173,35.3032,63.7173C35.3032,63.7173,36.6968,62.2827,36.6968,62.2827C36.6968,62.2827,36.6968,62.2827,36.6968,62.2827ZM2,29C2,29,2,0,2,0C2,0,0,0,0,0C0,0,0,29,0,29C0,29,2,29,2,29C2,29,2,29,2,29Z" fill="url(#master_svg2__4)" fill-opacity="1"/></g></g><g transform="matrix(-1,0,0,1,1814,0)"><g></g><g><path d="M1026.499976953125,62.49989C1026.499976953125,62.49989,942.000016953125,61.99989,942.000016953125,61.99989C942.000016953125,61.99989,935.036376953125,56,935.036376953125,56C935.036376953125,56,1023.536376953125,56.5,1023.536376953125,56.5C1023.536376953125,56.5,1026.499976953125,62.49989,1026.499976953125,62.49989C1026.499976953125,62.49989,1026.499976953125,62.49989,1026.499976953125,62.49989Z" fill-rule="evenodd" fill="url(#master_svg3__3)" fill-opacity="1"/></g><g><path d="M943,63C943,63,942.3032,63.7173,942.3032,63.7173C942.3032,63.7173,942.5942,64,942.5942,64C942.5942,64,943,64,943,64C943,64,943,63,943,63C943,63,943,63,943,63ZM908,29C908,29,907,29,907,29C907,29,907,29.4227,907,29.4227C907,29.4227,907.303214,29.7173,907.303214,29.7173C907.303214,29.7173,908,29,908,29C908,29,908,29,908,29ZM1027,62C1027,62,943,62,943,62C943,62,943,64,943,64C943,64,1027,64,1027,64C1027,64,1027,62,1027,62C1027,62,1027,62,1027,62ZM943.6968,62.2827C943.6968,62.2827,908.69679,28.2827,908.69679,28.2827C908.69679,28.2827,907.303214,29.7173,907.303214,29.7173C907.303214,29.7173,942.3032,63.7173,942.3032,63.7173C942.3032,63.7173,943.6968,62.2827,943.6968,62.2827C943.6968,62.2827,943.6968,62.2827,943.6968,62.2827ZM909,29C909,29,909,0.5,909,0.5C909,0.5,907,0.5,907,0.5C907,0.5,907,29,907,29C907,29,909,29,909,29C909,29,909,29,909,29Z" fill="url(#master_svg4__6)" fill-opacity="1"/></g></g><g><g><path d="M87.5,0C87.5,0,820,0,820,0C820,0,784,72,784,72C784,72,498.5,72,498.5,72C498.5,72,490,66,490,66C490,66,453.5,66,453.5,66C453.5,66,415.5,66,415.5,66C415.5,66,406.5,72,406.5,72C406.5,72,123,72,123,72C123,72,87.5,0,87.5,0C87.5,0,87.5,0,87.5,0Z" fill="url(#master_svg5__7)" fill-opacity="1"/></g><g transform="matrix(-1,0,0,-1,990,150)" filter="url(#master_svg6_0_4030)"><path d="M495,75C495,75,579,75,579,75C579,75,573,80,573,80C573,80,501,80,501,80C501,80,495,75,495,75C495,75,495,75,495,75Z" fill="#C2DEFF" fill-opacity="1"/></g><g><path d="M105,35.5C105,35.5,112,35.5,112,35.5C112,35.5,126.85419999999999,65,126.85419999999999,65C126.85419999999999,65,287.5,65,287.5,65C287.5,65,287.5,72,287.5,72C287.5,72,123.146,72,123.146,72C123.146,72,105,35.5,105,35.5C105,35.5,105,35.5,105,35.5Z" fill-rule="evenodd" fill="url(#master_svg7__9)" fill-opacity="1"/></g><g transform="matrix(-1,0,0,1,1605,0)"><path d="M802.5,34C802.5,34,809.5,34,809.5,34C809.5,34,824.3542,63.5,824.3542,63.5C824.3542,63.5,985,63.5,985,63.5C985,63.5,985,70.5,985,70.5C985,70.5,820.646,70.5,820.646,70.5C820.646,70.5,802.5,34,802.5,34C802.5,34,802.5,34,802.5,34Z" fill-rule="evenodd" fill="url(#master_svg8__9)" fill-opacity="1"/></g><g></g><g><path d="M784.0003239831924,71.99999399961233C784.0003239831924,71.99999399961233,784.0003239831924,72.99999399961233,784.0003239831924,72.99999399961233C784.0003239831924,72.99999399961233,784.6203239831924,72.99999399961233,784.6203239831924,72.99999399961233C784.6203239831924,72.99999399961233,784.8963239831925,72.44469399961233,784.8963239831925,72.44469399961233C784.8963239831925,72.44469399961233,784.0003239831924,71.99999399961233,784.0003239831924,71.99999399961233C784.0003239831924,71.99999399961233,784.0003239831924,71.99999399961233,784.0003239831924,71.99999399961233ZM123.00002398319245,71.99999399961233C123.00002398319245,71.99999399961233,122.10432398319244,72.44469399961233,122.10432398319244,72.44469399961233C122.10432398319244,72.44469399961233,122.38002398319244,72.99999399961233,122.38002398319244,72.99999399961233C122.38002398319244,72.99999399961233,123.00002398319245,72.99999399961233,123.00002398319245,72.99999399961233C123.00002398319245,72.99999399961233,123.00002398319245,71.99999399961233,123.00002398319245,71.99999399961233C123.00002398319245,71.99999399961233,123.00002398319245,71.99999399961233,123.00002398319245,71.99999399961233ZM407.00032398319246,71.99999399961233C407.00032398319246,71.99999399961233,407.00032398319246,72.99999399961233,407.00032398319246,72.99999399961233C407.00032398319246,72.99999399961233,407.35132398319246,72.99999399961233,407.35132398319246,72.99999399961233C407.35132398319246,72.99999399961233,407.62532398319246,72.78089399961233,407.62532398319246,72.78089399961233C407.62532398319246,72.78089399961233,407.00032398319246,71.99999399961233,407.00032398319246,71.99999399961233C407.00032398319246,71.99999399961233,407.00032398319246,71.99999399961233,407.00032398319246,71.99999399961233ZM414.50032398319246,65.99999399961233C414.50032398319246,65.99999399961233,414.50032398319246,64.99999399961233,414.50032398319246,64.99999399961233C414.50032398319246,64.99999399961233,414.14932398319246,64.99999399961233,414.14932398319246,64.99999399961233C414.14932398319246,64.99999399961233,413.87532398319246,65.21909399961233,413.87532398319246,65.21909399961233C413.87532398319246,65.21909399961233,414.50032398319246,65.99999399961233,414.50032398319246,65.99999399961233C414.50032398319246,65.99999399961233,414.50032398319246,65.99999399961233,414.50032398319246,65.99999399961233ZM491.00032398319246,65.99999399961233C491.00032398319246,65.99999399961233,491.6003239831924,65.19999399961233,491.6003239831924,65.19999399961233C491.6003239831924,65.19999399961233,491.33332398319243,64.99999399961233,491.33332398319243,64.99999399961233C491.33332398319243,64.99999399961233,491.00032398319246,64.99999399961233,491.00032398319246,64.99999399961233C491.00032398319246,64.99999399961233,491.00032398319246,65.99999399961233,491.00032398319246,65.99999399961233C491.00032398319246,65.99999399961233,491.00032398319246,65.99999399961233,491.00032398319246,65.99999399961233ZM499.00032398319246,71.99999399961233C499.00032398319246,71.99999399961233,498.40032398319244,72.79999399961233,498.40032398319244,72.79999399961233C498.40032398319244,72.79999399961233,498.66732398319243,72.99999399961233,498.66732398319243,72.99999399961233C498.66732398319243,72.99999399961233,499.00032398319246,72.99999399961233,499.00032398319246,72.99999399961233C499.00032398319246,72.99999399961233,499.00032398319246,71.99999399961233,499.00032398319246,71.99999399961233C499.00032398319246,71.99999399961233,499.00032398319246,71.99999399961233,499.00032398319246,71.99999399961233ZM818.6043239831924,0.05529399961233139C818.6043239831924,0.05529399961233139,783.1043239831924,71.55529399961233,783.1043239831924,71.55529399961233C783.1043239831924,71.55529399961233,784.8963239831925,72.44469399961233,784.8963239831925,72.44469399961233C784.8963239831925,72.44469399961233,820.3963239831925,0.9447059996123314,820.3963239831925,0.9447059996123314C820.3963239831925,0.9447059996123314,818.6043239831924,0.05529399961233139,818.6043239831924,0.05529399961233139C818.6043239831924,0.05529399961233139,818.6043239831924,0.05529399961233139,818.6043239831924,0.05529399961233139ZM123.89572398319245,71.55529399961233C123.89572398319245,71.55529399961233,88.39567398319244,0.05529399961233139,88.39567398319244,0.05529399961233139C88.39567398319244,0.05529399961233139,86.60432398319244,0.9447059996123314,86.60432398319244,0.9447059996123314C86.60432398319244,0.9447059996123314,122.10432398319244,72.44469399961233,122.10432398319244,72.44469399961233C122.10432398319244,72.44469399961233,123.89572398319245,71.55529399961233,123.89572398319245,71.55529399961233C123.89572398319245,71.55529399961233,123.89572398319245,71.55529399961233,123.89572398319245,71.55529399961233ZM407.00032398319246,70.99999399961233C407.00032398319246,70.99999399961233,123.00002398319245,70.99999399961233,123.00002398319245,70.99999399961233C123.00002398319245,70.99999399961233,123.00002398319245,72.99999399961233,123.00002398319245,72.99999399961233C123.00002398319245,72.99999399961233,407.00032398319246,72.99999399961233,407.00032398319246,72.99999399961233C407.00032398319246,72.99999399961233,407.00032398319246,70.99999399961233,407.00032398319246,70.99999399961233C407.00032398319246,70.99999399961233,407.00032398319246,70.99999399961233,407.00032398319246,70.99999399961233ZM413.87532398319246,65.21909399961233C413.87532398319246,65.21909399961233,406.37532398319246,71.21909399961233,406.37532398319246,71.21909399961233C406.37532398319246,71.21909399961233,407.62532398319246,72.78089399961233,407.62532398319246,72.78089399961233C407.62532398319246,72.78089399961233,415.12532398319246,66.78089399961233,415.12532398319246,66.78089399961233C415.12532398319246,66.78089399961233,413.87532398319246,65.21909399961233,413.87532398319246,65.21909399961233C413.87532398319246,65.21909399961233,413.87532398319246,65.21909399961233,413.87532398319246,65.21909399961233ZM491.00032398319246,64.99999399961233C491.00032398319246,64.99999399961233,414.50032398319246,64.99999399961233,414.50032398319246,64.99999399961233C414.50032398319246,64.99999399961233,414.50032398319246,66.99999399961233,414.50032398319246,66.99999399961233C414.50032398319246,66.99999399961233,491.00032398319246,66.99999399961233,491.00032398319246,66.99999399961233C491.00032398319246,66.99999399961233,491.00032398319246,64.99999399961233,491.00032398319246,64.99999399961233C491.00032398319246,64.99999399961233,491.00032398319246,64.99999399961233,491.00032398319246,64.99999399961233ZM784.0003239831924,70.99999399961233C784.0003239831924,70.99999399961233,499.00032398319246,70.99999399961233,499.00032398319246,70.99999399961233C499.00032398319246,70.99999399961233,499.00032398319246,72.99999399961233,499.00032398319246,72.99999399961233C499.00032398319246,72.99999399961233,784.0003239831924,72.99999399961233,784.0003239831924,72.99999399961233C784.0003239831924,72.99999399961233,784.0003239831924,70.99999399961233,784.0003239831924,70.99999399961233C784.0003239831924,70.99999399961233,784.0003239831924,70.99999399961233,784.0003239831924,70.99999399961233ZM499.6003239831924,71.19999399961233C499.6003239831924,71.19999399961233,491.6003239831924,65.19999399961233,491.6003239831924,65.19999399961233C491.6003239831924,65.19999399961233,490.40032398319244,66.79999399961233,490.40032398319244,66.79999399961233C490.40032398319244,66.79999399961233,498.40032398319244,72.79999399961233,498.40032398319244,72.79999399961233C498.40032398319244,72.79999399961233,499.6003239831924,71.19999399961233,499.6003239831924,71.19999399961233C499.6003239831924,71.19999399961233,499.6003239831924,71.19999399961233,499.6003239831924,71.19999399961233Z" fill="url(#master_svg9__01)" fill-opacity="1"/></g><g style="opacity:0.8100000023841858;"></g><g style="opacity:0.8100000023841858;"><path d="M440.7755,53C440.7755,53,411.94568,53,411.94568,53C411.94568,53,407,64,407,64C407,64,444,64,444,64C444,64,440.7755,53,440.7755,53C440.7755,53,440.7755,53,440.7755,53Z" fill="url(#master_svga__04)" fill-opacity="1"/><path d="M411.94568,53L440.7755,53L443.7069,63L444,64L407,64L411.94568,53ZM440.02660000000003,54L442.6648,63L408.54603,63L412.5925,54L440.02660000000003,54Z" fill-rule="evenodd" fill="url(#master_svgb__05)" fill-opacity="1"/></g><g><path d="M284,46C284,46,194.7357,46,194.7357,46C194.7357,46,128,63,128,63C128,63,258.921,63,258.921,63C258.921,63,284,46,284,46C284,46,284,46,284,46Z" fill="url(#master_svgc__06)" fill-opacity="1"/><path d="M194.7357,46L284,46L258.921,63L128,63L194.7357,46ZM194.8611,47L280.743,47L258.61400000000003,62L135.97663,62L194.8611,47Z" fill-rule="evenodd" fill="url(#master_svgd__07)" fill-opacity="1"/></g><g transform="matrix(-1,0,0,1,1270,0)" style="opacity:0.18000000715255737;"><path d="M757,11C757,11,667.7357,11,667.7357,11C667.7357,11,635,28,635,28C635,28,731.921,28,731.921,28C731.921,28,757,11,757,11C757,11,757,11,757,11Z" fill="url(#master_svge__08)" fill-opacity="1"/><path d="M667.7357,11L757,11L755.525,12L731.921,28L635,28L667.7357,11ZM667.9799,12L753.7429999999999,12L731.614,27L639.09543,27L667.9799,12Z" fill-rule="evenodd" fill="url(#master_svgf__09)" fill-opacity="1"/></g><g transform="matrix(-1,0,0,1,1256,0)"><path d="M750,17C750,17,660.7357,17,660.7357,17C660.7357,17,628,34,628,34C628,34,724.921,34,724.921,34C724.921,34,750,17,750,17C750,17,750,17,750,17Z" fill="url(#master_svgg__10)" fill-opacity="1"/><path d="M660.7357,17L750,17L748.525,18L724.921,34L628,34L660.7357,17ZM660.9799,18L746.7429999999999,18L724.614,33L632.09543,33L660.9799,18Z" fill-rule="evenodd" fill="url(#master_svgh__09)" fill-opacity="1"/></g><g filter="url(#master_svgi_0_4041)"><path d="M168,71C168,71,244,71,244,71C244,71,238,76,238,76C238,76,174,76,174,76C174,76,168,71,168,71C168,71,168,71,168,71Z" fill="#C2DEFF" fill-opacity="1"/></g><g filter="url(#master_svgj_0_4042)"><path d="M663,71C663,71,739,71,739,71C739,71,733,76,733,76C733,76,669,76,669,76C669,76,663,71,663,71C663,71,663,71,663,71Z" fill="#C2DEFF" fill-opacity="1"/></g></g><g><g style="opacity:0.6000000238418579;"><path d="M795,68C795,68,813,68,813,68C813,68,811,70,811,70C811,70,793,70,793,70C793,70,795,68,795,68C795,68,795,68,795,68Z" fill="#F2994A" fill-opacity="1"/></g><g><path d="M819,68C819,68,837,68,837,68C837,68,835,70,835,70C835,70,817,70,817,70C817,70,819,68,819,68C819,68,819,68,819,68Z" fill="#F2994A" fill-opacity="1"/></g><g style="opacity:0.30000001192092896;"><path d="M843,68C843,68,861,68,861,68C861,68,859,70,859,70C859,70,841,70,841,70C841,70,843,68,843,68C843,68,843,68,843,68Z" fill="#F2994A" fill-opacity="1"/></g></g><g transform="matrix(-1,0,0,1,230,0)"><g style="opacity:0.6000000238418579;"><path d="M117,68C117,68,135,68,135,68C135,68,133,70,133,70C133,70,115,70,115,70C115,70,117,68,117,68C117,68,117,68,117,68Z" fill="#F2994A" fill-opacity="1"/></g><g><path d="M141,68C141,68,159,68,159,68C159,68,157,70,157,70C157,70,139,70,139,70C139,70,141,68,141,68C141,68,141,68,141,68Z" fill="#F2994A" fill-opacity="1"/></g><g style="opacity:0.30000001192092896;"><path d="M165,68C165,68,183,68,183,68C183,68,181,70,181,70C181,70,163,70,163,70C163,70,165,68,165,68C165,68,165,68,165,68Z" fill="#F2994A" fill-opacity="1"/></g></g></g></svg>