<svg xmlns="http://www.w3.org/2000/svg" xmlns:xlink="http://www.w3.org/1999/xlink" fill="none" version="1.1" width="1460" height="10" viewBox="0 0 1460 10"><g transform="matrix(-1,0,0,1,2920,0)"><g><path d="M1467,6C1467,6,1484,6,1484,6C1484,6,1487,8,1487,8C1487,8,1464,8,1464,8C1464,8,1467,6,1467,6C1467,6,1467,6,1467,6Z" fill="#0E4688" fill-opacity="1"/></g><g><path d="M2879,7C2879,7,2894,7,2894,7C2894,7,2897,9,2897,9C2897,9,2882,9,2882,9C2882,9,2879,7,2879,7C2879,7,2879,7,2879,7Z" fill="#1B7EF2" fill-opacity="1"/></g><g style="opacity:0.699999988079071;"><path d="M2902,7C2902,7,2917,7,2917,7C2917,7,2920,9,2920,9C2920,9,2905,9,2905,9C2905,9,2902,7,2902,7C2902,7,2902,7,2902,7Z" fill="#0D3565" fill-opacity="1"/></g><g><g style="opacity:0.20000000298023224;"><path d="M1842,2C1842,2,1860,2,1860,2C1860,2,1858,4,1858,4C1858,4,1840,4,1840,4C1840,4,1842,2,1842,2C1842,2,1842,2,1842,2Z" fill="#F2994A" fill-opacity="1"/></g><g style="opacity:0.20000000298023224;"><path d="M1866,2C1866,2,1884,2,1884,2C1884,2,1882,4,1882,4C1882,4,1864,4,1864,4C1864,4,1866,2,1866,2C1866,2,1866,2,1866,2Z" fill="#F2994A" fill-opacity="1"/></g><g style="opacity:0.20000000298023224;"><path d="M1890,2C1890,2,1908,2,1908,2C1908,2,1906,4,1906,4C1906,4,1888,4,1888,4C1888,4,1890,2,1890,2C1890,2,1890,2,1890,2Z" fill="#F2994A" fill-opacity="1"/></g></g><g><path d="M1912.408,0C1912.408,0,1935,0,1935,0C1935,0,1940,4,1940,4C1940,4,1914.592,4,1914.592,4C1914.592,4,1910.092,10,1910.092,10C1910.092,10,1489,10,1489,10C1489,10,1493,6,1493,6C1493,6,1907.908,6,1907.908,6C1907.908,6,1912.408,0,1912.408,0C1912.408,0,1912.408,0,1912.408,0Z" fill-rule="evenodd" fill="#0E4688" fill-opacity="1"/></g><g><line x1="1918" y1="9.5" x2="2415" y2="9.5" fill-opacity="0" stroke-opacity="1" stroke="#0E488D" fill="none" stroke-width="1"/></g><g transform="matrix(1,-0.0023417130578309298,0.0023417130578309298,1,-0.023417130578309298,5.6833375913556665)"><line x1="2427" y1="9.5" x2="2871.0011291503906" y2="9.5" fill-opacity="0" stroke-opacity="1" stroke="#0E488D" fill="none" stroke-width="1"/></g><g><path d="M1461,9C1461,9,1499,9,1499,9C1499,9,1499,10,1499,10C1499,10,1460,10,1460,10C1460,10,1461,9,1461,9C1461,9,1461,9,1461,9Z" fill="#0E488D" fill-opacity="1"/></g><g transform="matrix(-1,0,0,1,3946,0)"><path d="M1973,3C1973,3,2009,3,2009,3C2009,3,2009,4,2009,4C2009,4,1973,4,1973,4C1973,4,1973,3,1973,3C1973,3,1973,3,1973,3Z" fill="#0E488D" fill-opacity="1"/></g><g transform="matrix(-1,0,0,1,5840,0)"><path d="M2920.00349487,3C2920.00349487,3,3857,3,3857,3C3857,3,3857,4,3857,4C3857,4,2920,4,2920,4C2920,4,2920.00349487,3,2920.00349487,3C2920.00349487,3,2920.00349487,3,2920.00349487,3Z" fill="#0D3565" fill-opacity="1"/></g><g><path d="M2424,7C2424,7,2426,7,2426,7C2426,7,2428,10,2428,10C2428,10,2426,10,2426,10C2426,10,2424,7,2424,7C2424,7,2424,7,2424,7Z" fill="#1B7EF2" fill-opacity="1"/></g></g></svg>