<svg xmlns="http://www.w3.org/2000/svg" xmlns:xlink="http://www.w3.org/1999/xlink" fill="none" version="1.1" width="1460" height="10" viewBox="0 0 1460 10"><g><g><path d="M7,6C7,6,24,6,24,6C24,6,27,8,27,8C27,8,4,8,4,8C4,8,7,6,7,6C7,6,7,6,7,6Z" fill="#0E4688" fill-opacity="1"/></g><g><path d="M1419,7C1419,7,1434,7,1434,7C1434,7,1437,9,1437,9C1437,9,1422,9,1422,9C1422,9,1419,7,1419,7C1419,7,1419,7,1419,7Z" fill="#1B7EF2" fill-opacity="1"/></g><g><path d="M1442,7C1442,7,1457,7,1457,7C1457,7,1460,9,1460,9C1460,9,1445,9,1445,9C1445,9,1442,7,1442,7C1442,7,1442,7,1442,7Z" fill="#0D3565" fill-opacity="1"/></g><g><g style="opacity:0.20000000298023224;"><path d="M382,2C382,2,400,2,400,2C400,2,398,4,398,4C398,4,380,4,380,4C380,4,382,2,382,2C382,2,382,2,382,2Z" fill="#F2994A" fill-opacity="1"/></g><g style="opacity:0.20000000298023224;"><path d="M406,2C406,2,424,2,424,2C424,2,422,4,422,4C422,4,404,4,404,4C404,4,406,2,406,2C406,2,406,2,406,2Z" fill="#F2994A" fill-opacity="1"/></g><g style="opacity:0.20000000298023224;"><path d="M430,2C430,2,448,2,448,2C448,2,446,4,446,4C446,4,428,4,428,4C428,4,430,2,430,2C430,2,430,2,430,2Z" fill="#F2994A" fill-opacity="1"/></g></g><g><path d="M452.408,0C452.408,0,475,0,475,0C475,0,480,4,480,4C480,4,454.592,4,454.592,4C454.592,4,450.092,10,450.092,10C450.092,10,29,10,29,10C29,10,33,6,33,6C33,6,447.908,6,447.908,6C447.908,6,452.408,0,452.408,0C452.408,0,452.408,0,452.408,0Z" fill-rule="evenodd" fill="#0E4688" fill-opacity="1"/></g><g><line x1="458" y1="9.5" x2="955" y2="9.5" fill-opacity="0" stroke-opacity="1" stroke="#0E488D" fill="none" stroke-width="1"/></g><g transform="matrix(1,-0.0023417130578309298,0.0023417130578309298,1,-0.023417130578309298,2.264436526922509)"><line x1="967" y1="9.5" x2="1411.0011291503906" y2="9.5" fill-opacity="0" stroke-opacity="1" stroke="#0E488D" fill="none" stroke-width="1"/></g><g><path d="M1,9C1,9,39,9,39,9C39,9,39,10,39,10C39,10,0,10,0,10C0,10,1,9,1,9C1,9,1,9,1,9Z" fill="#0E488D" fill-opacity="1"/></g><g transform="matrix(-1,0,0,1,1026,0)"><path d="M513,3C513,3,549,3,549,3C549,3,549,4,549,4C549,4,513,4,513,4C513,4,513,3,513,3C513,3,513,3,513,3Z" fill="#0E488D" fill-opacity="1"/></g><g transform="matrix(-1,0,0,1,2920,0)"><path d="M1460.00349487,3C1460.00349487,3,2397,3,2397,3C2397,3,2397,4,2397,4C2397,4,1460,4,1460,4C1460,4,1460.00349487,3,1460.00349487,3C1460.00349487,3,1460.00349487,3,1460.00349487,3Z" fill="#0D3565" fill-opacity="1"/></g><g><path d="M964,7C964,7,966,7,966,7C966,7,968,10,968,10C968,10,966,10,966,10C966,10,964,7,964,7C964,7,964,7,964,7Z" fill="#1B7EF2" fill-opacity="1"/></g></g></svg>