<?xml version="1.0" standalone="no"?>
<!DOCTYPE svg PUBLIC "-//W3C//DTD SVG 1.1//EN" "http://www.w3.org/Graphics/SVG/1.1/DTD/svg11.dtd" >
<svg xmlns="http://www.w3.org/2000/svg">
  <metadata>Created by iconfont</metadata>
  <defs>
  <font id="iconfont" horiz-adv-x="1024">
    <font-face
      font-family="iconfont"
      font-weight="400"
      font-stretch="normal"
      units-per-em="1024"
      ascent="896"
      descent="-128"
    />
      <missing-glyph />
      
      <glyph glyph-name="xuxian" unicode="&#58958;" d="M208.462769 71.128615l111.379693 111.379693 27.844923-27.844923L236.307692 43.323077zM709.710769 570.88l111.458462 111.379692 27.805538-27.844923-111.419077-111.379692zM375.532308 235.835077l111.419077 111.379692 27.844923-27.844923-111.419077-111.379692zM542.641231 400.541538l111.379692 111.419077 27.844923-27.844923-111.379692-111.419077z"  horiz-adv-x="1024" />
      
      <glyph glyph-name="taifenglujing" unicode="&#58953;" d="M339.261058 6.105811a528.074935 528.074935 0 0 0-110.30425 74.246661 401.606938 401.606938 0 0 0-142.098872 221.674241 431.447702 431.447702 0 0 0-16.518994 118.474935C69.628448 682.851691 305.334952 896 595.927147 896c204.444753 0 381.002602-106.574154 468.748655-259.330442A479.583695 479.583695 0 0 1 735.361665 763.137554h-9.946921a527.719688 527.719688 0 0 0 110.30425-74.246661 401.606938 401.606938 0 0 0 142.098872-221.674241 431.447702 431.447702 0 0 0 16.874242-118.474935c0-262.17242-235.706505-474.610234-526.2987-474.610234-204.089506 0-381.180225 104.975542-468.393408 258.087077a479.583695 479.583695 0 0 1 329.314137-126.112749z m199.293669 197.162186a187.570512 187.570512 0 1 1-187.570512 188.281006 187.570512 187.570512 0 0 1 187.570512-188.281006z m0 0"  horiz-adv-x="1068" />
      
      <glyph glyph-name="legend" unicode="&#58921;" d="M226.4 654.4v-360h500v360h-500z m0 51.2h500c28.28 0 51.2-22.92 51.2-51.2v-360c0-28.28-22.92-51.2-51.2-51.2h-500c-28.28 0-51.2 22.92-51.2 51.2v360c0 28.28 22.92 51.2 51.2 51.2z m0 0M688.28 481.6H477.6c-28.27 0-51.2-22.92-51.2-51.2v-74.35H279.11v50.62L382.3 553.19l103.11-42.34 152.21 97.09 50.65-54.76v-71.58z m0 0M500 462.4h297.6c34.14 0 51.2-17.07 51.2-51.2v-297.6c0-34.13-17.07-51.2-51.2-51.2H500c-34.13 0-51.2 17.07-51.2 51.2V411.2c0 34.13 17.07 51.2 51.2 51.2z m0 0M277.6 577.6c0-21.21 17.2-38.4 38.4-38.4 21.21 0 38.4 17.19 38.4 38.4 0 21.21-17.19 38.4-38.4 38.4-21.21 0-38.4-17.19-38.4-38.4z m0 0"  horiz-adv-x="1024" />
      
      <glyph glyph-name="tishi" unicode="&#59179;" d="M512-62.016611c-245.919634 0-446.016611 200.064292-446.016611 446.016611 0 245.919634 200.095256 446.016611 446.016611 446.016611 245.952318 0 446.016611-200.064292 446.016611-446.016611S757.952318-62.016611 512-62.016611zM512 766.016611c-210.655557 0-382.016611-171.359333-382.016611-382.016611 0-210.624593 171.359333-382.016611 382.016611-382.016611 210.624593 0 382.016611 171.359333 382.016611 382.016611S722.624593 766.016611 512 766.016611zM463.99957 591.99957c0-26.509985 21.490445-48.00043 48.00043-48.00043s48.00043 21.490445 48.00043 48.00043-21.490445 48.00043-48.00043 48.00043S463.99957 618.509555 463.99957 591.99957zM512 128c-17.664722 0-32.00086 14.303454-32.00086 32.00086L479.99914 448c0 17.664722 14.336138 32.00086 32.00086 32.00086s32.00086-14.336138 32.00086-32.00086l0-287.99914C544.00086 142.303454 529.664722 128 512 128z"  horiz-adv-x="1024" />
      
      <glyph glyph-name="transparency" unicode="&#58908;" d="M174.521093 273.110056C174.521093 332.337604 204.16299 408.382851 257.147178 499.333417c21.092432 36.166489 45.559652 74.07662 72.782951 113.167927A2580.588713 2580.588713 0 0 0 478.477095 804.920568l3.543529 4.105993L503.731767 834l21.767389-24.973439 3.487282-4.16224 9.730642-11.418036a2610.905569 2610.905569 0 0 0 138.928817-181.057434c27.110805-39.03506 51.634273-76.945191 72.670458-113.055434 52.984188-90.950565 82.682332-167.052059 82.682332-226.223361 0-187.075808-147.253297-339.05381-329.26692-339.05381C321.774389-65.943754 174.521093 86.034248 174.521093 273.110056z m304.743453 441.872382a2488.119492 2488.119492 0 0 1-102.031123-135.947753c-26.435848-37.853884-50.059371-74.414099-70.308106-109.230673-48.146991-82.513593-74.695331-150.628086-74.695331-196.693956 0-155.352791 121.77364-280.95119 271.501781-280.951191 149.784389 0 271.501781 125.5984 271.501781 280.951191 0 46.065871-26.548341 114.180364-74.695331 196.693956a1635.085307 1635.085307 0 0 1-70.195613 109.230673 2548.021998 2548.021998 0 0 1-126.610837 165.92713c-7.649522-9.224423-15.805262-19.236298-24.467221-29.979377z m24.467221-680.019999c-126.835823 0-229.710643 103.83101-229.710643 232.016749 0 128.129492 119.411287 63.277295 229.710643 0 110.805574-63.558527 229.710643 128.129492 229.710643 0s-102.87482-231.960502-229.710643-231.960502z"  horiz-adv-x="1024" />
      
      <glyph glyph-name="huizhi" unicode="&#58967;" d="M0-84.839447m21.522729 0l983.945511 0q21.522729 0 21.522729-21.522729l0-0.115095q0-21.522729-21.522729-21.522729l-983.945511 0q-21.522729 0-21.522729 21.522729l0 0.115095q0 21.522729 21.522729 21.522729ZM550.153181 849.960581a72.739918 72.739918 0 0 0 36.830338-9.783059l56.281361-32.80202a72.970108 72.970108 0 0 0 33.03221-85.170158l-180.123374 103.585327A73.315392 73.315392 0 0 0 550.153181 849.960581m0 46.037923a118.892936 118.892936 0 0 1-103.585327-59.504016l-14.732136-26.356711 262.876541-151.694956 15.192515 26.356711a118.892936 118.892936 0 0 1-43.620932 162.398773L610.002481 880.000326A118.317462 118.317462 0 0 1 550.153181 895.998504zM159.291214 170.901215L276.227538 102.5349c-41.319036-21.177445-80.566365-40.858657-110.030636-54.785129-2.071707 32.226546-5.064172 76.307857-6.905688 123.151444m-49.605862 81.256935s9.667964-262.761446 20.026496-268.746376h1.035854c19.220833 0 241.699096 117.166514 241.699096 117.166514L109.685352 252.15815zM441.848967 734.865773l183.115839-105.196654-263.33692-456.005628-183.115839 105.772128L441.848967 734.865773m-16.918937 63.417239L115.094808 262.977062l263.452014-152.155336 309.259749 535.76633L424.93003 798.283012z"  horiz-adv-x="1026" />
      
      <glyph glyph-name="fubing" unicode="&#58918;" d="M500.388 832a239.413 239.413 0 0 0 31.145-1.73c4.059-5.262 11.068-9.078 13.842-15.57 7.053-16.507 1.875-90.058 1.73-114.183h1.731c10.7 10.3 26.717 14.526 39.8 22.49 13.348 8.129 27.514 18.764 41.526 25.951 8.273 4.244 22.544 7.662 31.145 1.73 11.509-3 13.749-10.256 20.763-17.3 0.776-12.89 2.947-25.023-3.461-34.6-6.983-10.439-21.957-14.014-32.875-20.761-23.077-14.26-47.85-28.97-70.941-43.251-4.989-3.085-25.244-10.295-27.684-13.84v-164.355c6.858-1.859 7.239-4.251 15.573-5.19 10.687 10.429 26.638 14.427 39.8 22.49 21.965 13.461 45.449 28.039 67.48 41.521 4.038 2.478 29.948 13.866 31.138 15.571V676.3c3.876 5.009 4.59 12.484 8.651 17.3 3.188 3.78 10.228 5.2 13.842 8.65 8.993 0.861 17.56 3.224 24.224-1.73 11.51-3 13.749-10.256 20.763-17.3 2.3-33.854 1.715-74.093 1.73-110.722h1.73c8.494 8.182 20.691 10.913 31.145 17.3 16.1 9.837 33.358 22.237 50.178 31.141 5.74 3.039 17.895 7.836 27.684 5.19 15.3-4.137 16.467-16.545 25.954-25.951v-20.76c-5.749-17.736-55.818-41.621-72.671-51.9-9.22-5.624-22.833-7.491-27.684-17.3 21.062-5.34 55.748-31.726 74.4-43.251 9.094-5.619 17.029-6.383 20.763-17.3 4.433-5.6 3.728-17.395 3.461-27.681-6.676-7.214-9.233-16.573-19.033-20.761-21.355-9.126-38.877 6.825-50.178 13.841-24.994 15.516-50.955 26.118-76.131 41.521-5.631 3.444-16.15 14.311-22.494 15.57-5.723 1.136-16.523-9.717-20.763-12.11-21.311-12.029-42.123-23.824-62.289-36.331-16.65-10.326-60.388-22.841-60.56-46.711 18.058-8.811 35.286-20.938 51.908-31.141 18.339-11.257 37.045-18.233 55.369-29.411 8.553-5.218 22.753-19.167 32.875-20.76 9.732-1.533 26.1 14.876 32.875 19.03 25.122 15.4 50.4 27.326 76.131 41.521 9.77 5.39 26.212 19.182 41.527 8.65a24.206 24.206 0 0 0 17.3-15.57c6.849-8.414 2.307-25.564 0-34.6-27.081-17.431-65.065-48.29-96.895-58.821 1.767-1.392 0.475-0.614 3.461-1.73 20.418-19.4 79.636-36.576 93.434-57.092 11.685-17.372 2.088-46.426-13.842-51.9-8.7-6.879-28.5-2.971-36.335 1.73-23.5 14.1-54.413 38.849-81.323 46.711v-102.08c-1.122-1.489-2.314-5.44-3.46-6.921-6.539-22.649-30.747-21.632-51.908-15.57-4.413 6.663-11.431 12.036-13.842 20.761V235.135c-39.077 18.621-75.064 45.072-112.467 65.742-8.765 4.843-33.469 21.735-41.527 10.38V146.9c35.05-15.589 68.341-39.123 100.356-58.821 12.866-7.917 29.788-10.087 32.875-27.681 4.478-5.673 4.413-18.541 0-24.221-3.91-15.613-17.935-22.922-38.066-22.49-8.028 5.579-17.587 7-25.954 12.11-22.519 13.751-46.2 27.892-69.211 41.521v-107.26c-1.122-1.488-2.314-5.439-3.46-6.92-5.725-19.758-31.433-19.539-51.908-13.84-3.512 5.381-9.881 10.921-12.112 17.3-7.122 20.361-1.821 82.451-1.73 108.993h-3.461c-8.245-10.25-24.781-13.7-36.335-20.76-15.089-9.216-31.581-22.646-48.448-29.411-7.652-3.069-20.343-2.17-25.954 1.73-16.586 4.276-21.42 19.653-20.763 41.521 5.417 5.552 7.5 14.415 13.842 19.03 8.531 6.211 18.522 8.229 27.685 13.841 17.95 10.994 37.425 23.594 55.368 34.6 7.074 4.339 35.307 15.071 38.066 20.76V311.257l-5.191 1.73c-2.81 2.586-3.5 2.685-8.651 3.46-9.846-9.606-24.18-13.336-36.336-20.76-21.987-13.43-45.546-28.054-67.48-41.521-6.312-3.876-31.467-12.8-34.605-17.3v-143.594c-11.6-16.919-12.123-29.736-41.527-29.411-9.262 6.286-18.481 5.579-22.493 17.3-10.562 11.693-5.417 89.822-5.191 114.183h-1.73c-10.823-10.341-26.584-14.44-39.8-22.49-23.476-14.305-43.887-35.577-79.592-27.681-7.352 11.193-16.439 18.106-17.3 36.331 6.267 8.459 7.138 18.1 15.572 24.22 23.908 17.339 67.045 30.218 86.514 50.172-34.672 19.264-72.344 37.82-98.625 65.741-2.282 23.866 8.185 56.357 41.526 46.712 24.047-6.957 53.471-30.4 74.4-43.252 16.613-10.2 38.458-15.971 51.908-29.41 14.129 4.1 26.481 15.354 38.066 22.49 23.081 14.217 46.927 25.936 69.21 39.791 14.079 8.754 36.443 9.662 36.336 32.871-13.885 4.313-26.41 15.352-38.066 22.491-21.132 12.943-42.963 21.585-64.02 34.6-7.579 4.686-30.655 22.954-38.065 24.221-5.665 0.969-28.023-16.063-32.875-19.03-25.132-15.369-50.968-26.2-76.132-41.521-8.359-5.088-20.613-17.1-38.066-12.111-13.166 3.766-16.089 13.974-24.223 22.491-0.439 11.776-2.473 22.013 3.46 31.141 10.014 15.4 75.5 47.452 95.165 58.821C210.23 521.64 196 525.226 183.75 532.7c-15.674 9.568-34.81 18.286-50.178 29.41-5.836 4.225-8.884 12.106-13.842 17.3-1.233 18.066 3.208 37.975 19.033 43.251 8.8 6.99 26.507 2.464 34.6-1.73 28.114-14.561 54.68-33.61 83.053-48.441V678.026c2.673 3.376 2.6 8.317 5.191 12.11l15.572 12.111c28.536 2.6 28.758-2.668 44.987-15.571 5.954-44.955 3.44-103.4 3.461-153.973 30.368-17.031 61.482-33.387 91.7-51.9 15.3-9.373 33.235-26.826 53.638-29.41 1.816 2.321 7.364 3.275 8.651 5.19V620.935c-11.576 2.928-20.372 11.732-29.414 17.3-23.084 14.214-46.926 25.939-69.211 39.791-13.535 8.414-30.05 12.249-36.336 27.681-10.28 25.241 9.866 36.623 20.764 46.711 38.8 3.347 83.2-36.5 114.2-51.9V809.509c3.166 3.976 3.764 9.716 6.921 13.84 3.085 4.023 9.937 5.393 13.848 8.651z"  horiz-adv-x="1024" />
      
      <glyph glyph-name="sanweidixing" unicode="&#58917;" d="M869.418667 59.989333H154.325333a25.6 25.6 0 0 0-22.954666 36.864l177.578666 360.576a25.6 25.6 0 0 0 42.24 5.546667l108.970667-124.245333a25.6 25.6 0 0 1 43.093333 7.466666l134.058667 337.664a25.6 25.6 0 0 0 47.914667-0.938666l208.341333-588.8a25.6 25.6 0 0 0-24.149333-34.133334z"  horiz-adv-x="1024" />
      
      <glyph glyph-name="jiayouzhan" unicode="&#65138;" d="M511.5904 387.2768m-450.816 0a450.816 450.816 0 1 1 901.632 0 450.816 450.816 0 1 1-901.632 0ZM243.5584 377.6512c0 72.6016-0.0512 145.2032 0 217.7536 0 36.2496 18.0224 54.1184 54.6304 54.1184 77.056 0.0512 154.0608 0.0512 231.1168 0 35.3792-0.0512 53.6064-18.3808 53.6576-54.016 0.1024-53.3504 0-106.6496 0.0512-160 0.0512-23.9104 4.7104-28.7744 28.0576-29.952 40.704-1.9456 62.3616-24.2176 62.5152-64.8192 0.2048-47.9232 0-95.7952 0.1024-143.7184 0-12.032-0.6144-24.5248 16.8448-25.6 27.2896-1.7408 39.7824 4.7616 41.984 23.5008 0.9728 8.2944 0.6144 16.7424 0.6144 25.1392 0.0512 69.632 0.0512 139.264 0 208.896 0 20.6336-1.5872 22.4256-21.3504 26.2656-28.2624 5.4784-43.8784 23.0912-45.2608 52.0192-0.6656 13.7728-0.7168 27.648-0.1536 41.472 0.9216 22.9888-6.9632 40.7552-26.2144 54.5792-7.6288 5.4784-12.9536 15.616-16.384 24.7296-1.6384 4.352 2.0992 13.2096 6.1952 16.4864 3.2768 2.6112 12.0832 1.9456 16.2816-0.7168 36.3008-22.9376 72.5504-45.9264 107.8784-70.3488 19.2512-13.312 25.5488-33.9968 25.4976-57.088-0.1536-99.7376-0.0512-199.5264-0.0512-299.264 0-20.224 0.256-40.4992-0.1024-60.7232-0.3584-21.0944-9.9328-30.9248-30.9248-31.1808-28.16-0.3584-56.2688-0.2048-84.4288-0.0512-25.088 0.1536-36.1472 10.8544-36.3008 36.1984-0.3072 54.3232-0.0512 108.6464-0.1536 162.9696 0 5.376-0.3072 10.8544-1.28 16.1792-2.3552 12.6464-10.9056 18.944-23.1424 18.176-12.4416-0.768-19.7632-8.448-20.0192-21.3504-0.3072-14.7968-0.2048-29.6448-0.2048-44.4416 0-45.9264 0.0512-91.8528-0.0512-137.7792-0.0512-23.04-7.0656-29.952-30.1568-29.952-92.8256-0.0512-185.6512-0.0512-278.528 0-24.7296 0-30.72 5.888-30.72 30.3616-0.0512 74.0352 0 148.1216 0 222.1568z m174.08 84.5312c30.72 0 61.4912 0.3584 92.2112-0.1536 13.312-0.256 19.3024 5.3248 19.2512 18.2784-0.0512 28.8256 0 57.7024 0 86.528 0 13.0048-6.4512 18.3296-19.5072 18.2784-61.44-0.3072-122.9312-0.1024-184.3712-0.1536-15.7184-0.0512-19.4048-3.6864-19.5072-19.0976-0.1536-28.3648 0.256-56.7296-0.1536-85.0944-0.2048-13.1584 5.0176-18.8416 18.5344-18.6368 31.1296 0.4096 62.3104 0.0512 93.5424 0.0512z m0.1024-112.4352c17.9712 0 35.9424-0.1024 53.9136 0 19.2 0.1024 21.5552 2.4576 21.6576 20.992 0.0512 6.6048-0.3584 13.2608 0.1024 19.8656 0.8704 13.3632-5.0176 18.7392-18.432 18.5344-32.1536-0.4608-64.3072-0.4096-96.4608-0.1024-41.1136 0.4096-39.0656 1.9968-38.8096-41.2672 0.0512-12.3392 6.2976-18.1248 18.4832-18.0736 19.8144 0.1024 39.68 0.0512 59.5456 0.0512z"  horiz-adv-x="1024" />
      
      <glyph glyph-name="sanweidixingtu" unicode="&#58999;" d="M13.544727 34.210909L126.277818 596.759273 324.421818 712.517818l182.411637-103.842909 184.41309 103.563636 212.340364-115.106909 105.844364-561.384727-260.049455 145.966546-242.641454-127.581091-241.058909 127.441454z m251.019637 200.610909l242.036363-128.046545 243.339637 127.906909 195.118545-109.521455-83.269818 441.576728-170.309818 92.299636-184.971637-103.889455L324.747636 658.618182 167.842909 566.970182l-88.436364-440.413091zM307.479273 189.579636l-46.545455 4.189091 44.869818 495.895273 46.545455-4.189091zM723.688727 192.046545l-46.08 493.381819 46.545455 4.328727 46.08-493.381818zM104.773818 313.483636l-24.110545 39.796364 207.639272 125.672727h6.516364c4.654545 0 4.654545 0 18.013091-5.678545l187.392-79.918546 216.901818 127.441455 198.190546-101.701818-21.271273-41.425455L718.661818 467.781818l-215.086545-126.370909-10.798546 4.654546-196.142545 83.781818zM535.272727 91.648h-46.545454V581.492364h46.545454z"  horiz-adv-x="1024" />
      
      <glyph glyph-name="wangguan" unicode="&#58915;" d="M114.451805-39.268511c0-48.991079 119.192413-88.731489 266.208877-88.731489s266.208876 39.726001 266.208876 88.731489-119.192413 88.731489-266.208876 88.731489-266.208876-39.711592-266.208877-88.731489zM229.739341-31.646075c0-23.81831 67.564461-43.112149 150.921341-43.11215s150.921341 19.308249 150.92134 43.11215-67.564461 43.126558-150.92134 43.126558-150.921341-19.308249-150.921341-43.126558zM373.110292-7.438719l-99.351026 172.333324a366.294768 366.294768 0 1 0 213.774013 0l-99.351026-172.333324a8.515802 8.515802 0 0 0-15.08637 0zM518.498523 541.664819h20.432161a23.357217 23.357217 0 0 0 21.239074-13.631048l24.898995-54.380097v-138.327752a23.357217 23.357217 0 0 0-23.357217-23.357217H199.624237a23.357217 23.357217 0 0 0-23.357218 23.357217v137.69375l24.927814 54.956463a23.357217 23.357217 0 0 0 21.267892 13.703093h20.374525a19.509977 19.509977 0 0 0-0.389047 3.890468V720.75603a19.466749 19.466749 0 0 0 38.90468 0v-175.200743a19.394704 19.394704 0 0 0-0.389047-3.890468h199.336054a19.466749 19.466749 0 0 0-0.389047 3.890468V720.75603a19.466749 19.466749 0 0 0 38.904681 0v-175.200743a19.437931 19.437931 0 0 0-0.317001-3.890468z m-281.424929-38.904681a3.890468 3.890468 0 0 1-3.487013-2.146962l-11.685813-23.357217a3.890468 3.890468 0 0 1 3.487012-5.633974h311.237442a3.890468 3.890468 0 0 1 3.645512 5.259337l-8.760757 23.357217a3.890468 3.890468 0 0 1-3.645513 2.521599z m225.358962-93.443278a17.521515 17.521515 0 0 1 0-35.04303h42.823966a17.521515 17.521515 0 0 1 0 35.04303z m-62.290716 0a17.521515 17.521515 0 0 1 0-35.04303h7.780936a17.521515 17.521515 0 0 1 0 35.04303z m-62.290716 0a17.521515 17.521515 0 1 1 0-35.04303h7.780936a17.521515 17.521515 0 1 1 0 35.04303z"  horiz-adv-x="1047" />
      
      <glyph glyph-name="ice-yellow" unicode="&#58910;" d="M153.325137 742.674863A507.251874 507.251874 0 0 1 512-123.246484a507.224926 507.224926 0 0 1 358.674863 148.571621A507.224926 507.224926 0 0 1 706.112674 852.630905 507.214147 507.214147 0 0 1 153.325137 742.674863zM711.0656 123.957895l-37.661642 65.460547 28.246231-7.620716a32.988968 32.988968 0 0 1 40.798316 22.684295 32.988968 32.988968 0 0 1-22.684294 40.798316l-93.615158 25.017937-30.218779 53.533642a22.457937 22.457937 0 0 0 19.612294 33.738105l63.622737 0.043116 66.603116-66.603116a33.964463 33.964463 0 0 1 45.077558-3.384589 33.312337 33.312337 0 0 1 9.954358 37.47301 33.306947 33.306947 0 0 1-7.394358 11.533474l-20.916547 20.911158 73.124379-0.043116a34.083032 34.083032 0 0 1 34.724378 31.183495 33.107537 33.107537 0 0 1-32.687157 34.923789l-76.686821 0.026947 20.625515 20.620127a34.083032 34.083032 0 0 1 3.271411 45.15301 33.441684 33.441684 0 0 1-37.521516 9.808842c-4.311579-1.643789-8.235116-4.160674-11.528084-7.388968l-68.149895-68.149895-62.162189-0.161684a22.765137 22.765137 0 0 0-19.590737 33.942905l31.426021 54.654653 90.456926 24.322695a34.039916 34.039916 0 0 1 25.551495 39.003621 33.156042 33.156042 0 0 1-27.572547 25.923368 33.188379 33.188379 0 0 1-13.312-0.722189l-28.763622-7.556042 37.349053 63.083789a34.320168 34.320168 0 0 1-8.811789 44.678737 32.751832 32.751832 0 0 1-47.589053-10.24539L616.555789 624.219621l-7.895578 28.963032a33.490189 33.490189 0 0 1-33.781222 25.265852 33.091368 33.091368 0 0 1-30.666105-27.098273 33.112926 33.112926 0 0 1 0.603621-14.573137l25.222737-93.367242-30.800842-53.490527a22.398653 22.398653 0 0 0-30.698442-8.353684 22.377095 22.377095 0 0 0-8.218947 8.267453l-31.722443 55.031916 23.767579 91.012042a33.355453 33.355453 0 0 1-19.978779 40.598905 32.805726 32.805726 0 0 1-43.331368-22.12379l-7.556042-28.763621-37.548463 64.900042a33.069811 33.069811 0 0 1-47.610611 10.401685 33.603368 33.603368 0 0 1-9.016589-44.34459l37.305937-65.099452-28.246232 7.626105a34.363284 34.363284 0 0 1-41.698358-21.520169 33.468632 33.468632 0 0 1 22.641179-41.924715l93.572042-24.969432 30.935579-53.355789A22.700463 22.700463 0 0 0 421.995789 423.343158l-63.396378 0.177853L291.996295 490.118737a34.239326 34.239326 0 0 1-45.082948 3.384589 33.253053 33.253053 0 0 1-2.55461-49.006484l20.938105-20.938105-73.124379 0.048505a33.792 33.792 0 0 1-34.519579-34.524968 33.285389 33.285389 0 0 1 9.636379-21.746527 32.649432 32.649432 0 0 1 23.137011-9.684884h76.665263l-20.625516-20.620126a34.115368 34.115368 0 0 1-3.27141-45.147621 33.0752 33.0752 0 0 1 10.64421-8.536927 33.091368 33.091368 0 0 1 26.677895-1.449768 33.1776 33.1776 0 0 1 11.501137 7.340463L360.394105 357.613137l61.978948-0.10779a22.506442 22.506442 0 0 0 19.779368-33.673431l-31.884126-55.101979-90.920421-24.301137a33.522526 33.522526 0 0 1-25.109558-37.214316 32.148211 32.148211 0 0 1 8.924968-18.334989 32.9728 32.9728 0 0 1 31.830232-8.520758l28.763621 7.556042-37.48379-64.738358a32.886568 32.886568 0 0 1-3.007326-25.066442 32.816505 32.816505 0 0 1 15.6672-19.795537 32.865011 32.865011 0 0 1 25.088-2.829474 32.897347 32.897347 0 0 1 19.682358 15.812716l37.510737 64.7168 7.868631-28.941473a33.4848 33.4848 0 0 1 33.754274-25.238906 33.037474 33.037474 0 0 1 30.682274 27.092884 33.064421 33.064421 0 0 1-0.61979 14.578527l-24.969431 93.572042 30.773894 53.506695a22.2208 22.2208 0 0 0 19.402106 11.264 22.215411 22.215411 0 0 0 19.315873-11.420295l31.744-55.053474-24.484379-92.089937a32.412295 32.412295 0 0 1 8.520758-31.835621 33.166821 33.166821 0 0 1 18.114021-9.145937 33.991411 33.991411 0 0 1 37.435285 25.330527l7.151831 27.373137 37.548463-64.900042c1.541389-2.430653 3.346863-4.683453 5.378695-6.720674a33.253053 33.253053 0 0 1 44.053558-2.3552 32.401516 32.401516 0 0 1 8.159663 42.948716l0.021558-0.021558z m-164.319663 239.195621a38.060463 38.060463 0 0 0-41.450442-7.933305 38.028126 38.028126 0 0 0-16.788211 56.287663 38.038905 38.038905 0 0 0 58.465011 5.669726 38.276042 38.276042 0 0 0 11.075368-27.055158 38.200589 38.200589 0 0 0-11.301726-26.968926z"  horiz-adv-x="1024" />
      
      <glyph glyph-name="ice-orange" unicode="&#58911;" d="M153.325137 742.674863A507.251874 507.251874 0 0 1 512-123.246484a507.224926 507.224926 0 0 1 358.674863 148.571621A507.224926 507.224926 0 0 1 706.112674 852.630905 507.214147 507.214147 0 0 1 153.325137 742.674863zM711.0656 123.957895l-37.661642 65.460547 28.246231-7.620716a32.988968 32.988968 0 0 1 40.798316 22.684295 32.988968 32.988968 0 0 1-22.684294 40.798316l-93.615158 25.017937-30.218779 53.533642a22.457937 22.457937 0 0 0 19.612294 33.738105l63.622737 0.043116 66.603116-66.603116a33.964463 33.964463 0 0 1 45.077558-3.384589 33.312337 33.312337 0 0 1 9.954358 37.47301 33.306947 33.306947 0 0 1-7.394358 11.533474l-20.916547 20.911158 73.124379-0.043116a34.083032 34.083032 0 0 1 34.724378 31.183495 33.107537 33.107537 0 0 1-32.687157 34.923789l-76.686821 0.026947 20.625515 20.620127a34.083032 34.083032 0 0 1 3.271411 45.15301 33.441684 33.441684 0 0 1-37.521516 9.808842c-4.311579-1.643789-8.235116-4.160674-11.528084-7.388968l-68.149895-68.149895-62.162189-0.161684a22.765137 22.765137 0 0 0-19.590737 33.942905l31.426021 54.654653 90.456926 24.322695a34.039916 34.039916 0 0 1 25.551495 39.003621 33.156042 33.156042 0 0 1-27.572547 25.923368 33.188379 33.188379 0 0 1-13.312-0.722189l-28.763622-7.556042 37.349053 63.083789a34.320168 34.320168 0 0 1-8.811789 44.678737 32.751832 32.751832 0 0 1-47.589053-10.24539L616.555789 624.219621l-7.895578 28.963032a33.490189 33.490189 0 0 1-33.781222 25.265852 33.091368 33.091368 0 0 1-30.666105-27.098273 33.112926 33.112926 0 0 1 0.603621-14.573137l25.222737-93.367242-30.800842-53.490527a22.398653 22.398653 0 0 0-30.698442-8.353684 22.377095 22.377095 0 0 0-8.218947 8.267453l-31.722443 55.031916 23.767579 91.012042a33.355453 33.355453 0 0 1-19.978779 40.598905 32.805726 32.805726 0 0 1-43.331368-22.12379l-7.556042-28.763621-37.548463 64.900042a33.069811 33.069811 0 0 1-47.610611 10.401685 33.603368 33.603368 0 0 1-9.016589-44.34459l37.305937-65.099452-28.246232 7.626105a34.363284 34.363284 0 0 1-41.698358-21.520169 33.468632 33.468632 0 0 1 22.641179-41.924715l93.572042-24.969432 30.935579-53.355789A22.700463 22.700463 0 0 0 421.995789 423.343158l-63.396378 0.177853L291.996295 490.118737a34.239326 34.239326 0 0 1-45.082948 3.384589 33.253053 33.253053 0 0 1-2.55461-49.006484l20.938105-20.938105-73.124379 0.048505a33.792 33.792 0 0 1-34.519579-34.524968 33.285389 33.285389 0 0 1 9.636379-21.746527 32.649432 32.649432 0 0 1 23.137011-9.684884h76.665263l-20.625516-20.620126a34.115368 34.115368 0 0 1-3.27141-45.147621 33.0752 33.0752 0 0 1 10.64421-8.536927 33.091368 33.091368 0 0 1 26.677895-1.449768 33.1776 33.1776 0 0 1 11.501137 7.340463L360.394105 357.613137l61.978948-0.10779a22.506442 22.506442 0 0 0 19.779368-33.673431l-31.884126-55.101979-90.920421-24.301137a33.522526 33.522526 0 0 1-25.109558-37.214316 32.148211 32.148211 0 0 1 8.924968-18.334989 32.9728 32.9728 0 0 1 31.830232-8.520758l28.763621 7.556042-37.48379-64.738358a32.886568 32.886568 0 0 1-3.007326-25.066442 32.816505 32.816505 0 0 1 15.6672-19.795537 32.865011 32.865011 0 0 1 25.088-2.829474 32.897347 32.897347 0 0 1 19.682358 15.812716l37.510737 64.7168 7.868631-28.941473a33.4848 33.4848 0 0 1 33.754274-25.238906 33.037474 33.037474 0 0 1 30.682274 27.092884 33.064421 33.064421 0 0 1-0.61979 14.578527l-24.969431 93.572042 30.773894 53.506695a22.2208 22.2208 0 0 0 19.402106 11.264 22.215411 22.215411 0 0 0 19.315873-11.420295l31.744-55.053474-24.484379-92.089937a32.412295 32.412295 0 0 1 8.520758-31.835621 33.166821 33.166821 0 0 1 18.114021-9.145937 33.991411 33.991411 0 0 1 37.435285 25.330527l7.151831 27.373137 37.548463-64.900042c1.541389-2.430653 3.346863-4.683453 5.378695-6.720674a33.253053 33.253053 0 0 1 44.053558-2.3552 32.401516 32.401516 0 0 1 8.159663 42.948716l0.021558-0.021558z m-164.319663 239.195621a38.060463 38.060463 0 0 0-41.450442-7.933305 38.028126 38.028126 0 0 0-16.788211 56.287663 38.038905 38.038905 0 0 0 58.465011 5.669726 38.276042 38.276042 0 0 0 11.075368-27.055158 38.200589 38.200589 0 0 0-11.301726-26.968926z"  horiz-adv-x="1024" />
      
      <glyph glyph-name="ice-blue" unicode="&#58912;" d="M153.325137 742.674863A507.251874 507.251874 0 0 1 512-123.246484a507.224926 507.224926 0 0 1 358.674863 148.571621A507.224926 507.224926 0 0 1 706.112674 852.630905 507.214147 507.214147 0 0 1 153.325137 742.674863zM711.0656 123.957895l-37.661642 65.460547 28.246231-7.620716a32.988968 32.988968 0 0 1 40.798316 22.684295 32.988968 32.988968 0 0 1-22.684294 40.798316l-93.615158 25.017937-30.218779 53.533642a22.457937 22.457937 0 0 0 19.612294 33.738105l63.622737 0.043116 66.603116-66.603116a33.964463 33.964463 0 0 1 45.077558-3.384589 33.312337 33.312337 0 0 1 9.954358 37.47301 33.306947 33.306947 0 0 1-7.394358 11.533474l-20.916547 20.911158 73.124379-0.043116a34.083032 34.083032 0 0 1 34.724378 31.183495 33.107537 33.107537 0 0 1-32.687157 34.923789l-76.686821 0.026947 20.625515 20.620127a34.083032 34.083032 0 0 1 3.271411 45.15301 33.441684 33.441684 0 0 1-37.521516 9.808842c-4.311579-1.643789-8.235116-4.160674-11.528084-7.388968l-68.149895-68.149895-62.162189-0.161684a22.765137 22.765137 0 0 0-19.590737 33.942905l31.426021 54.654653 90.456926 24.322695a34.039916 34.039916 0 0 1 25.551495 39.003621 33.156042 33.156042 0 0 1-27.572547 25.923368 33.188379 33.188379 0 0 1-13.312-0.722189l-28.763622-7.556042 37.349053 63.083789a34.320168 34.320168 0 0 1-8.811789 44.678737 32.751832 32.751832 0 0 1-47.589053-10.24539L616.555789 624.219621l-7.895578 28.963032a33.490189 33.490189 0 0 1-33.781222 25.265852 33.091368 33.091368 0 0 1-30.666105-27.098273 33.112926 33.112926 0 0 1 0.603621-14.573137l25.222737-93.367242-30.800842-53.490527a22.398653 22.398653 0 0 0-30.698442-8.353684 22.377095 22.377095 0 0 0-8.218947 8.267453l-31.722443 55.031916 23.767579 91.012042a33.355453 33.355453 0 0 1-19.978779 40.598905 32.805726 32.805726 0 0 1-43.331368-22.12379l-7.556042-28.763621-37.548463 64.900042a33.069811 33.069811 0 0 1-47.610611 10.401685 33.603368 33.603368 0 0 1-9.016589-44.34459l37.305937-65.099452-28.246232 7.626105a34.363284 34.363284 0 0 1-41.698358-21.520169 33.468632 33.468632 0 0 1 22.641179-41.924715l93.572042-24.969432 30.935579-53.355789A22.700463 22.700463 0 0 0 421.995789 423.343158l-63.396378 0.177853L291.996295 490.118737a34.239326 34.239326 0 0 1-45.082948 3.384589 33.253053 33.253053 0 0 1-2.55461-49.006484l20.938105-20.938105-73.124379 0.048505a33.792 33.792 0 0 1-34.519579-34.524968 33.285389 33.285389 0 0 1 9.636379-21.746527 32.649432 32.649432 0 0 1 23.137011-9.684884h76.665263l-20.625516-20.620126a34.115368 34.115368 0 0 1-3.27141-45.147621 33.0752 33.0752 0 0 1 10.64421-8.536927 33.091368 33.091368 0 0 1 26.677895-1.449768 33.1776 33.1776 0 0 1 11.501137 7.340463L360.394105 357.613137l61.978948-0.10779a22.506442 22.506442 0 0 0 19.779368-33.673431l-31.884126-55.101979-90.920421-24.301137a33.522526 33.522526 0 0 1-25.109558-37.214316 32.148211 32.148211 0 0 1 8.924968-18.334989 32.9728 32.9728 0 0 1 31.830232-8.520758l28.763621 7.556042-37.48379-64.738358a32.886568 32.886568 0 0 1-3.007326-25.066442 32.816505 32.816505 0 0 1 15.6672-19.795537 32.865011 32.865011 0 0 1 25.088-2.829474 32.897347 32.897347 0 0 1 19.682358 15.812716l37.510737 64.7168 7.868631-28.941473a33.4848 33.4848 0 0 1 33.754274-25.238906 33.037474 33.037474 0 0 1 30.682274 27.092884 33.064421 33.064421 0 0 1-0.61979 14.578527l-24.969431 93.572042 30.773894 53.506695a22.2208 22.2208 0 0 0 19.402106 11.264 22.215411 22.215411 0 0 0 19.315873-11.420295l31.744-55.053474-24.484379-92.089937a32.412295 32.412295 0 0 1 8.520758-31.835621 33.166821 33.166821 0 0 1 18.114021-9.145937 33.991411 33.991411 0 0 1 37.435285 25.330527l7.151831 27.373137 37.548463-64.900042c1.541389-2.430653 3.346863-4.683453 5.378695-6.720674a33.253053 33.253053 0 0 1 44.053558-2.3552 32.401516 32.401516 0 0 1 8.159663 42.948716l0.021558-0.021558z m-164.319663 239.195621a38.060463 38.060463 0 0 0-41.450442-7.933305 38.028126 38.028126 0 0 0-16.788211 56.287663 38.038905 38.038905 0 0 0 58.465011 5.669726 38.276042 38.276042 0 0 0 11.075368-27.055158 38.200589 38.200589 0 0 0-11.301726-26.968926z"  horiz-adv-x="1024" />
      
      <glyph glyph-name="ice-red" unicode="&#58909;" d="M153.325137 742.674863A507.251874 507.251874 0 0 1 512-123.24648400000001a507.224926 507.224926 0 0 1 358.674863 148.571621A507.224926 507.224926 0 0 1 706.112674 852.630905 507.214147 507.214147 0 0 1 153.325137 742.674863zM711.0656 123.95789500000001l-37.661642 65.460547 28.246231-7.620716a32.988968 32.988968 0 0 1 40.798316 22.684295 32.988968 32.988968 0 0 1-22.684294 40.798316l-93.615158 25.017937-30.218779 53.533642a22.457937 22.457937 0 0 0 19.612294 33.738105l63.622737 0.043116 66.603116-66.603116a33.964463 33.964463 0 0 1 45.077558-3.384589 33.312337 33.312337 0 0 1 9.954358 37.47301 33.306947 33.306947 0 0 1-7.394358 11.533474l-20.916547 20.911158 73.124379-0.043116a34.083032 34.083032 0 0 1 34.724378 31.183495 33.107537 33.107537 0 0 1-32.687157 34.923789l-76.686821 0.026947 20.625515 20.620127a34.083032 34.083032 0 0 1 3.271411 45.15301 33.441684 33.441684 0 0 1-37.521516 9.808842c-4.311579-1.643789-8.235116-4.160674-11.528084-7.388968l-68.149895-68.149895-62.162189-0.161684a22.765137 22.765137 0 0 0-19.590737 33.942905l31.426021 54.654653 90.456926 24.322695a34.039916 34.039916 0 0 1 25.551495 39.003621 33.156042 33.156042 0 0 1-27.572547 25.923368 33.188379 33.188379 0 0 1-13.312-0.722189l-28.763622-7.556042 37.349053 63.083789a34.320168 34.320168 0 0 1-8.811789 44.678737 32.751832 32.751832 0 0 1-47.589053-10.24539L616.555789 624.219621l-7.895578 28.963032a33.490189 33.490189 0 0 1-33.781222 25.265852 33.091368 33.091368 0 0 1-30.666105-27.098273 33.112926 33.112926 0 0 1 0.603621-14.573137l25.222737-93.367242-30.800842-53.490527a22.398653 22.398653 0 0 0-30.698442-8.353684 22.377095 22.377095 0 0 0-8.218947 8.267453l-31.722443 55.031916 23.767579 91.012042a33.355453 33.355453 0 0 1-19.978779 40.598905 32.805726 32.805726 0 0 1-43.331368-22.12379l-7.556042-28.763621-37.548463 64.900042a33.069811 33.069811 0 0 1-47.610611 10.401685 33.603368 33.603368 0 0 1-9.016589-44.34459l37.305937-65.099452-28.246232 7.626105a34.363284 34.363284 0 0 1-41.698358-21.520169 33.468632 33.468632 0 0 1 22.641179-41.924715l93.572042-24.969432 30.935579-53.355789A22.700463 22.700463 0 0 0 421.995789 423.343158l-63.396378 0.177853L291.996295 490.118737a34.239326 34.239326 0 0 1-45.082948 3.384589 33.253053 33.253053 0 0 1-2.55461-49.006484l20.938105-20.938105-73.124379 0.048505a33.792 33.792 0 0 1-34.519579-34.524968 33.285389 33.285389 0 0 1 9.636379-21.746527 32.649432 32.649432 0 0 1 23.137011-9.684884h76.665263l-20.625516-20.620126a34.115368 34.115368 0 0 1-3.27141-45.147621 33.0752 33.0752 0 0 1 10.64421-8.536927 33.091368 33.091368 0 0 1 26.677895-1.449768 33.1776 33.1776 0 0 1 11.501137 7.340463L360.394105 357.61313700000005l61.978948-0.10779a22.506442 22.506442 0 0 0 19.779368-33.673431l-31.884126-55.101979-90.920421-24.301137a33.522526 33.522526 0 0 1-25.109558-37.214316 32.148211 32.148211 0 0 1 8.924968-18.334989 32.9728 32.9728 0 0 1 31.830232-8.520758l28.763621 7.556042-37.48379-64.738358a32.886568 32.886568 0 0 1-3.007326-25.066442 32.816505 32.816505 0 0 1 15.6672-19.795537 32.865011 32.865011 0 0 1 25.088-2.829474 32.897347 32.897347 0 0 1 19.682358 15.812716l37.510737 64.7168 7.868631-28.941473a33.4848 33.4848 0 0 1 33.754274-25.238906 33.037474 33.037474 0 0 1 30.682274 27.092884 33.064421 33.064421 0 0 1-0.61979 14.578527l-24.969431 93.572042 30.773894 53.506695a22.2208 22.2208 0 0 0 19.402106 11.264 22.215411 22.215411 0 0 0 19.315873-11.420295l31.744-55.053474-24.484379-92.089937a32.412295 32.412295 0 0 1 8.520758-31.835621 33.166821 33.166821 0 0 1 18.114021-9.145937 33.991411 33.991411 0 0 1 37.435285 25.330527l7.151831 27.373137 37.548463-64.900042c1.541389-2.430653 3.346863-4.683453 5.378695-6.720674a33.253053 33.253053 0 0 1 44.053558-2.3552 32.401516 32.401516 0 0 1 8.159663 42.948716l0.021558-0.021558z m-164.319663 239.195621a38.060463 38.060463 0 0 0-41.450442-7.933305 38.028126 38.028126 0 0 0-16.788211 56.287663 38.038905 38.038905 0 0 0 58.465011 5.669726 38.276042 38.276042 0 0 0 11.075368-27.055158 38.200589 38.200589 0 0 0-11.301726-26.968926z"  horiz-adv-x="1024" />
      
      <glyph glyph-name="zidongqixiangzhan" unicode="&#58982;" d="M227.547104 676.571742H0l75.849035 109.714129L0 896h227.547104l50.614784-73.142753h556.177492V896L1023.998537 786.285871 834.33938 676.571742V749.714495h-265.508193v-402.28514h118.418117c24.795393 99.620429 144.82265 176.493462 214.600836 182.491168L910.188414 530.286237C986.110591 530.286237 1023.998537 432.05552 1023.998537 310.857979s-37.887946-219.428258-113.810123-219.428258c-68.02276 0-197.119718 78.994173-222.93911 182.856881H568.90433V-54.855784h227.473961c13.604552 0 26.111963-6.948562 32.914239-18.285689a35.474235 35.474235 0 0 0 0-36.571376 38.180517 38.180517 0 0 0-32.914239-18.285688H265.508192a38.25366 38.25366 0 0 0-32.914239 18.285688 35.474235 35.474235 0 0 0 0 36.571376 38.25366 38.25366 0 0 0 32.914239 18.285689h227.473961V274.286602H452.022211c-17.700546-100.790713-105.252421-176.493462-211.016841-182.491167L227.473961 91.429721C106.861562 91.429721 7.16799 182.419305 0.438857 298.643139c-6.729133 116.296977 81.919883 217.307118 201.873997 230.253385 119.954114 12.946267 229.595101-66.70619 249.709357-181.467169h40.959942V749.714495H278.235031L227.473961 676.571742z"  horiz-adv-x="1024" />
      
      <glyph glyph-name="zhishiku" unicode="&#59947;" d="M938.666667-93.866667H85.333333c-32.426667 0-59.733333 27.306667-59.733333 59.733334V261.12c0 32.426667 27.306667 59.733333 59.733333 59.733333h257.706667l168.96-170.666666 174.08 172.373333H938.666667c32.426667 0 59.733333-27.306667 59.733333-59.733333v-296.96c0-32.426667-27.306667-59.733333-59.733333-59.733334zM85.333333 269.653333c-5.12 0-8.533333-3.413333-8.533333-8.533333v-296.96c0-3.413333 5.12-6.826667 8.533333-6.826667h853.333334c5.12 0 8.533333 3.413333 8.533333 8.533334V261.12c0 5.12-3.413333 8.533333-8.533333 8.533333H708.266667l-165.546667-162.133333c-17.066667-17.066667-44.373333-17.066667-59.733333 0l-160.426667 162.133333H85.333333zM926.72 295.253333h-51.2V768c0 23.893333-18.773333 42.666667-42.666667 42.666667H298.666667C274.773333 810.666667 256 791.893333 256 768v-472.746667h-51.2V768c0 51.2 42.666667 93.866667 93.866667 93.866667h534.186666c51.2 0 93.866667-42.666667 93.866667-93.866667v-472.746667zM155.306667 295.253333h-51.2V650.24c0 51.2 42.666667 93.866667 93.866666 93.866667h34.133334v-51.2h-34.133334c-23.893333 0-42.666667-18.773333-42.666666-42.666667v-354.986667zM769.706667 593.9200000000001H361.813333c-13.653333 0-25.6 11.946667-25.6 25.6s11.946667 25.6 25.6 25.6h407.893334c13.653333 0 25.6-11.946667 25.6-25.6s-11.946667-25.6-25.6-25.6zM769.706667 431.786667H361.813333c-13.653333 0-25.6 11.946667-25.6 25.6s11.946667 25.6 25.6 25.6h407.893334c13.653333 0 25.6-11.946667 25.6-25.6s-11.946667-25.6-25.6-25.6z"  horiz-adv-x="1024" />
      
      <glyph glyph-name="jiankong" unicode="&#58906;" d="M774.657674 190.296621l-264.617104-277.596942-264.356953 277.596942a406.664686 406.664686 0 0 0 0 555.199419l8.568353 9.088654L263.340624 763.153048a361.476031 361.476031 0 0 0 510.79675-18.177308 407.162846 407.162846 0 0 0 0.5203-554.679119zM500.951916 827.814227a343.547803 343.547803 0 0 0 347.560759-401.649874 343.553338 343.553338 0 0 0-682.036513 49.262498V484.515505a339.141853 339.141853 0 0 0 334.475754 343.298722zM300.625139 441.380376a14.817495 14.817495 0 0 0-8.917065 2.972355l-56.568846 42.421099a14.861776 14.861776 0 0 0 1.134698 24.548223L571.081787 717.266968l0.066421 0.033211a48.531863 48.531863 0 0 0 64.827233-13.450322l53.762544-81.100463a14.872846 14.872846 0 0 0-4.605214-20.872908L486.389036 479.677817a14.740004 14.740004 0 0 0-19.029715 2.972355 84.869874 84.869874 0 0 1-24.243791 17.966974c-17.933763 8.695661-35.623981 8.059123-52.57803-1.881938-50.806794-29.812114-80.181634-53.729333-80.46946-53.967343a14.867311 14.867311 0 0 0-9.442901-3.387489z m-30.166361 56.092826l30.016913-22.522371c12.786109 9.631095 38.413678 27.952316 75.006304 49.417481 26.064843 15.28798 54.31052 16.140387 81.69272 2.45759a114.997489 114.997489 0 0 0 23.457805-15.769535L656.466426 619.157106 611.410613 687.155959a18.930083 18.930083 0 0 1-24.797302 4.760196L270.458778 497.467667zM426.189157 376.708126a14.867311 14.867311 0 0 0-12.409721 6.680881L368.197788 452.505951a14.867311 14.867311 0 0 0 24.824977 16.372862l37.389683-56.712759 230.814174 152.215583-14.623766 23.053742a14.867311 14.867311 0 1 0 25.107268 15.880237l22.44488-35.397042a14.883916 14.883916 0 0 0-4.372739-20.369213L434.358983 379.149111a14.82303 14.82303 0 0 0-8.169826-2.440985zM366.730983 373.597393a14.867311 14.867311 0 0 0-12.869136 7.428121l-25.334208 43.843623a14.867311 14.867311 0 0 0 25.743807 14.867311l17.657007-30.553819 22.240081 13.821175a14.872846 14.872846 0 0 0 19.926403-21.288041c-1.134698-1.588577-2.573827-2.933609-4.234361-3.96314l-35.280804-21.924579a14.867311 14.867311 0 0 0-7.848789-2.230651z m204.212426 12.902347a52.710873 52.710873 0 1 0 52.710872 52.705337 52.771759 52.771759 0 0 0-52.710872-52.705337z m0 75.687122a22.981785 22.981785 0 1 1 0-45.96357 22.981785 22.981785 0 0 1 0 45.96357zM562.502363 439.415411a10.107115 10.107115 0 1 1 20.214229 0 10.107115 10.107115 0 0 1-20.214229 0zM719.915416 346.801916H597.102348a53.795754 53.795754 0 0 0-53.729333 53.757008c0 1.273076 0.055351 2.618108 0.166054 4.112589a14.861776 14.861776 0 0 0 19.77142 12.885741 22.970715 22.970715 0 0 1 30.60917 21.509445v0.365318a14.867311 14.867311 0 0 0 14.867311 14.861776h111.128446a14.850706 14.850706 0 0 0 14.867311-14.861776v-77.76279a14.856241 14.856241 0 0 0-14.867311-14.861776z m-142.551277 40.074211a24.005781 24.005781 0 0 1 19.738209-10.350659h107.951292v48.022632H621.578614a52.854785 52.854785 0 0 0-44.214475-37.666438zM719.915416 295.275557a14.867311 14.867311 0 0 0-14.861776 14.861776V486.890068a14.856241 14.856241 0 1 0 29.729087 0v-176.752735a14.867311 14.867311 0 0 0-14.867311-14.861776zM794.650499 772.507387a389.522444 389.522444 0 0 1-549.227033 19.732675l-10.389405-10.129255-9.343269-9.608955a437.561682 437.561682 0 0 1 0-597.266271l285.644995-298.635903 285.65053 298.635903a438.070912 438.070912 0 0 1-2.335818 597.266271z m-19.992825-582.210766l-264.617104-277.596942-264.356953 277.596942a406.664686 406.664686 0 0 0 0 555.199419l8.568353 9.088654L263.340624 763.153048a361.476031 361.476031 0 0 0 510.79675-18.177308 407.162846 407.162846 0 0 0 0.5203-554.679119z"  horiz-adv-x="1024" />
      
      <glyph glyph-name="xiexian" unicode="&#59050;" d="M149.961328 112.470996m45.254834 45.254834l543.058008 543.058008q45.254834 45.254834 90.509668 0l0 0q45.254834-45.254834 0-90.509668l-543.058008-543.058008q-45.254834-45.254834-90.509668 0l0 0q-45.254834 45.254834 0 90.509668Z"  horiz-adv-x="1024" />
      
      <glyph glyph-name="tuoyuan" unicode="&#58905;" d="M727.04 658.944V660.48H291.84v-1.536c-156.16-3.072-281.6-130.56-281.6-287.744 0-156.672 125.44-284.16 281.6-287.232h433.152c158.72 0 287.744 128.512 287.744 287.744 0.512 158.208-127.488 286.208-285.696 287.232z"  horiz-adv-x="1024" />
      
      <glyph glyph-name="ganta" unicode="&#58904;" d="M766.55193477 80.70992809999996H253.75890675a28.66544877 28.66544877 0 0 0 0 56.97954911h86.00398432v6.0874934L425.04890251 638.2846044600001H330.09317134v-35.82990147a22.92930382 22.92930382 0 1 0-45.5072592 0V662.64985402A23.29592826 23.29592826 0 0 0 307.14859152 686.31240671c1.65744802 0.36662445 3.36072409 0.36662445 5.01817208 0h390.22589335c1.66508602 0.3284344 3.36072409 0.3284344 5.02581011 0a22.93694183 22.93694183 0 0 0 22.57031737-23.6549147v-61.27211033a22.93694183 22.93694183 0 0 0-22.57031737-23.65491468 23.29592826 23.29592826 0 0 0-22.93694183 23.65491469V637.20000713H589.53343205l85.27837344-494.50763384c0.36662445-2.1386426 0.36662445-4.31547524 0-6.44647983h91.73249128a28.31410034 28.31410034 0 1 0 0-56.62056267v1.0769593z m-381.63313292 56.97954911h182.03667481L398.89635881 217.23170572000004l-13.97755696-79.55750452z m35.83753947 213.20739065L405.69418705 264.54153509h139.39366908l-124.34679083 86.35533277z m12.18262478 60.56177545h107.4973424L446.90888505 492.44445554l-13.97755696-80.98581223zM544.73650771 629.6842060199999a45.44615513 45.44615513 0 0 0 0 7.1720907H468.76886756c0.54993667-2.36778287 0.54993667-4.81194584 0-7.1720907l-11.46465192-71.66744093h99.9815413l-12.54924923 71.66744093z m19.70606391-114.6694331h-82.41411998l96.75066336-83.85006571-14.33654338 83.85006571z m25.09086043-147.27609465H468.76886756l137.95772335-96.03269048L589.52579405 367.73104026z m25.43457085-146.55812177h-130.07529778l140.11164196-66.64926886-10.02870617 66.64926886zM741.82769878 500.3268811a16.84181044 16.84181044 0 0 0 0-33.32463442h-69.16217389a16.84181044 16.84181044 0 0 0-15.4058647 17.5597833 16.84181044 16.84181044 0 0 0 15.40586471 15.76485112h69.16217388z m19.70606391 13.25958409H654.02878228a19.34707747 19.34707747 0 1 0 0 38.69415493H761.53376269a19.70606391 19.70606391 0 0 0 19.70606391-19.34707746 19.36235348 19.36235348 0 0 0-19.70606391-19.34707747zM341.91680968 500.3268811a16.482824 16.482824 0 0 0 15.76485113-16.84181042 16.13147557 16.13147557 0 0 0-15.76485113-16.482824H272.40328736a16.482824 16.482824 0 0 0-15.77248913 16.482824 16.482824 16.482824 0 0 0 15.77248914 16.84181042h69.51352231z m37.98382008 32.61429957a18.27775618 18.27775618 0 0 0-18.27011815-18.99572905H253.75890675a18.6367426 18.6367426 0 0 0-18.27775617 18.98809104 18.99572904 18.99572904 0 0 0 18.27775617 19.35471548h107.4973424a18.98809103 18.98809103 0 0 0 18.27775617-19.35471548h0.35898643z"  horiz-adv-x="1024" />
      
      <glyph glyph-name="dituganta500" unicode="&#58899;" d="M342.02606-67.947661a168.143941 60.051979 0 1 1 336.289882 0 168.143941 60.051979 0 1 1-336.289882 0zM756.141914 242.87923l-244.769914-256.77991-244.529914 256.77991a376.162868 376.162868 0 0 0 0 513.560819l7.926997 8.406997 8.406997 7.926997a334.366882 334.366882 0 0 0 472.485834-16.813994 376.643868 376.643868 0 0 0 0.48-513.080819zM502.965003 832.586022a317.792888 317.792888 0 1 0-309.385891-325.959885v8.406997A313.70989 313.70989 0 0 0 502.965003 832.586022zM674.952943 308.695206H331.217064a19.216993 19.216993 0 0 0 0 38.192987h57.649979v4.083999l57.16898 331.483883H382.380046v-24.019991a15.372995 15.372995 0 1 0-30.50599 0V698.790069a15.612995 15.612995 0 0 0 15.132995 15.852995 7.686997 7.686997 0 0 0 3.362999 0h261.584908a8.646997 8.646997 0 0 0 3.361999 0 15.372995 15.372995 0 0 0 15.133994-15.852995v-41.075985a15.372995 15.372995 0 0 0-15.133994-15.852995 15.612995 15.612995 0 0 0-15.372995 15.852995v24.019991h-63.653978l57.16898-331.483883a12.970995 12.970995 0 0 0 0-4.323999h61.492979a18.975993 18.975993 0 1 0 0-37.951986z m-255.81991 38.192987h122.024957L428.500029 400.214174z m24.019991 142.92295l-10.087996-57.88998h93.439967z m8.166997 40.594986h72.061975l-62.693978 54.28598z m74.944974 146.285948a30.505989 30.505989 0 0 0 0 4.803998H475.340013a10.569996 10.569996 0 0 0 0-4.803998l-7.686997-48.041983h67.017976z m13.210995-76.866973H484.23001l64.854977-56.20798z m16.814994-98.723965h-80.949971l92.479967-64.375978z m17.053994-98.244966H486.150009l93.920967-44.677984z m85.032971 187.120935a11.289996 11.289996 0 0 0 0-22.339993h-46.359984a11.289996 11.289996 0 0 0-10.327997 11.769996 11.289996 11.289996 0 0 0 10.327997 10.569997z m13.211995 8.887996h-72.061975a12.970995 12.970995 0 0 0 0 25.941991h72.061975a13.210995 13.210995 0 0 0 13.210995-12.970995 12.970995 12.970995 0 0 0-13.210995-12.970996z m-281.281901-8.887996a11.049996 11.049996 0 0 0 10.568996-11.289996 10.809996 10.809996 0 0 0-10.569996-11.049997h-46.599984a11.049996 11.049996 0 0 0-10.567996 11.049997 11.049996 11.049996 0 0 0 10.568996 11.289996z m25.461991 21.858992a12.249996 12.249996 0 0 0-12.249996-12.730996h-72.302974a12.489996 12.489996 0 0 0-12.249996 12.729996 12.729996 12.729996 0 0 0 12.249996 12.971995h72.061974a12.729996 12.729996 0 0 0 12.249996-12.970995zM774.637908 781.42204a360.309873 360.309873 0 0 1-508.035822 18.254994l-9.608996-9.367997-8.646997-8.886997a404.747858 404.747858 0 0 1 0-552.474805l264.226907-276.237903L776.799907 228.947235a405.227858 405.227858 0 0 1-2.161999 552.474805z m-18.495994-538.54281l-244.769914-256.77991-244.529914 256.77991a376.162868 376.162868 0 0 0 0 513.560819l7.926997 8.406997 8.406997 7.926997a334.366882 334.366882 0 0 0 472.485834-16.813994 376.643868 376.643868 0 0 0 0.48-513.080819z"  horiz-adv-x="1024" />
      
      <glyph glyph-name="dituganta110" unicode="&#58901;" d="M342.02606-67.947661a168.143941 60.051979 0 1 1 336.289882 0 168.143941 60.051979 0 1 1-336.289882 0zM756.141914 242.87923l-244.769914-256.77991-244.529914 256.77991a376.162868 376.162868 0 0 0 0 513.560819l7.926997 8.406997 8.406997 7.926997a334.366882 334.366882 0 0 0 472.485834-16.813994 376.643868 376.643868 0 0 0 0.48-513.080819zM502.965003 832.586022a317.792888 317.792888 0 1 0-309.385891-325.959885v8.406997A313.70989 313.70989 0 0 0 502.965003 832.586022zM674.952943 308.695206H331.217064a19.216993 19.216993 0 0 0 0 38.192987h57.649979v4.083999l57.16898 331.483883H382.380046v-24.019991a15.372995 15.372995 0 1 0-30.50599 0V698.790069a15.612995 15.612995 0 0 0 15.132995 15.852995 7.686997 7.686997 0 0 0 3.362999 0h261.584908a8.646997 8.646997 0 0 0 3.361999 0 15.372995 15.372995 0 0 0 15.133994-15.852995v-41.075985a15.372995 15.372995 0 0 0-15.133994-15.852995 15.612995 15.612995 0 0 0-15.372995 15.852995v24.019991h-63.653978l57.16898-331.483883a12.970995 12.970995 0 0 0 0-4.323999h61.492979a18.975993 18.975993 0 1 0 0-37.951986z m-255.81991 38.192987h122.024957L428.500029 400.214174z m24.019991 142.92295l-10.087996-57.88998h93.439967z m8.166997 40.594986h72.061975l-62.693978 54.28598z m74.944974 146.285948a30.505989 30.505989 0 0 0 0 4.803998H475.340013a10.569996 10.569996 0 0 0 0-4.803998l-7.686997-48.041983h67.017976z m13.210995-76.866973H484.23001l64.854977-56.20798z m16.814994-98.723965h-80.949971l92.479967-64.375978z m17.053994-98.244966H486.150009l93.920967-44.677984z m85.032971 187.120935a11.289996 11.289996 0 0 0 0-22.339993h-46.359984a11.289996 11.289996 0 0 0-10.327997 11.769996 11.289996 11.289996 0 0 0 10.327997 10.569997z m13.211995 8.887996h-72.061975a12.970995 12.970995 0 0 0 0 25.941991h72.061975a13.210995 13.210995 0 0 0 13.210995-12.970995 12.970995 12.970995 0 0 0-13.210995-12.970996z m-281.281901-8.887996a11.049996 11.049996 0 0 0 10.568996-11.289996 10.809996 10.809996 0 0 0-10.569996-11.049997h-46.599984a11.049996 11.049996 0 0 0-10.567996 11.049997 11.049996 11.049996 0 0 0 10.568996 11.289996z m25.461991 21.858992a12.249996 12.249996 0 0 0-12.249996-12.730996h-72.302974a12.489996 12.489996 0 0 0-12.249996 12.729996 12.729996 12.729996 0 0 0 12.249996 12.971995h72.061974a12.729996 12.729996 0 0 0 12.249996-12.970995zM774.637908 781.42204a360.309873 360.309873 0 0 1-508.035822 18.254994l-9.608996-9.367997-8.646997-8.886997a404.747858 404.747858 0 0 1 0-552.474805l264.226907-276.237903L776.799907 228.947235a405.227858 405.227858 0 0 1-2.161999 552.474805z m-18.495994-538.54281l-244.769914-256.77991-244.529914 256.77991a376.162868 376.162868 0 0 0 0 513.560819l7.926997 8.406997 8.406997 7.926997a334.366882 334.366882 0 0 0 472.485834-16.813994 376.643868 376.643868 0 0 0 0.48-513.080819z"  horiz-adv-x="1024" />
      
      <glyph glyph-name="dituganta220" unicode="&#58902;" d="M342.02606-67.947661a168.143941 60.051979 0 1 1 336.289882 0 168.143941 60.051979 0 1 1-336.289882 0zM756.141914 242.87923l-244.769914-256.77991-244.529914 256.77991a376.162868 376.162868 0 0 0 0 513.560819l7.926997 8.406997 8.406997 7.926997a334.366882 334.366882 0 0 0 472.485834-16.813994 376.643868 376.643868 0 0 0 0.48-513.080819zM502.965003 832.586022a317.792888 317.792888 0 1 0-309.385891-325.959885v8.406997A313.70989 313.70989 0 0 0 502.965003 832.586022zM674.952943 308.695206H331.217064a19.216993 19.216993 0 0 0 0 38.192987h57.649979v4.083999l57.16898 331.483883H382.380046v-24.019991a15.372995 15.372995 0 1 0-30.50599 0V698.790069a15.612995 15.612995 0 0 0 15.132995 15.852995 7.686997 7.686997 0 0 0 3.362999 0h261.584908a8.646997 8.646997 0 0 0 3.361999 0 15.372995 15.372995 0 0 0 15.133994-15.852995v-41.075985a15.372995 15.372995 0 0 0-15.133994-15.852995 15.612995 15.612995 0 0 0-15.372995 15.852995v24.019991h-63.653978l57.16898-331.483883a12.970995 12.970995 0 0 0 0-4.323999h61.492979a18.975993 18.975993 0 1 0 0-37.951986z m-255.81991 38.192987h122.024957L428.500029 400.214174z m24.019991 142.92295l-10.087996-57.88998h93.439967z m8.166997 40.594986h72.061975l-62.693978 54.28598z m74.944974 146.285948a30.505989 30.505989 0 0 0 0 4.803998H475.340013a10.569996 10.569996 0 0 0 0-4.803998l-7.686997-48.041983h67.017976z m13.210995-76.866973H484.23001l64.854977-56.20798z m16.814994-98.723965h-80.949971l92.479967-64.375978z m17.053994-98.244966H486.150009l93.920967-44.677984z m85.032971 187.120935a11.289996 11.289996 0 0 0 0-22.339993h-46.359984a11.289996 11.289996 0 0 0-10.327997 11.769996 11.289996 11.289996 0 0 0 10.327997 10.569997z m13.211995 8.887996h-72.061975a12.970995 12.970995 0 0 0 0 25.941991h72.061975a13.210995 13.210995 0 0 0 13.210995-12.970995 12.970995 12.970995 0 0 0-13.210995-12.970996z m-281.281901-8.887996a11.049996 11.049996 0 0 0 10.568996-11.289996 10.809996 10.809996 0 0 0-10.569996-11.049997h-46.599984a11.049996 11.049996 0 0 0-10.567996 11.049997 11.049996 11.049996 0 0 0 10.568996 11.289996z m25.461991 21.858992a12.249996 12.249996 0 0 0-12.249996-12.730996h-72.302974a12.489996 12.489996 0 0 0-12.249996 12.729996 12.729996 12.729996 0 0 0 12.249996 12.971995h72.061974a12.729996 12.729996 0 0 0 12.249996-12.970995zM774.637908 781.42204a360.309873 360.309873 0 0 1-508.035822 18.254994l-9.608996-9.367997-8.646997-8.886997a404.747858 404.747858 0 0 1 0-552.474805l264.226907-276.237903L776.799907 228.947235a405.227858 405.227858 0 0 1-2.161999 552.474805z m-18.495994-538.54281l-244.769914-256.77991-244.529914 256.77991a376.162868 376.162868 0 0 0 0 513.560819l7.926997 8.406997 8.406997 7.926997a334.366882 334.366882 0 0 0 472.485834-16.813994 376.643868 376.643868 0 0 0 0.48-513.080819z"  horiz-adv-x="1024" />
      
      <glyph glyph-name="zaihaijiance" unicode="&#58897;" d="M877.959256 822.787933c43.912047 0 73.186746-29.274698 73.186746-73.186746v-585.238068c0-43.912047-29.274698-73.186746-73.186746-73.186746H146.398875c-43.912047 0-73.186746 29.274698-73.186745 73.186746V749.601187c0 43.912047 29.274698 73.186746 73.186745 73.186746h731.560381m0 73.135566H146.398875A146.731748 146.731748 0 0 1 0.076563 749.601187v-585.238068a146.731748 146.731748 0 0 1 146.322312-146.322312h731.560381a146.731748 146.731748 0 0 1 146.322312 146.322312V749.601187a146.731748 146.731748 0 0 1-146.322312 146.322312z m-219.457878-877.882692H365.856754v-146.322312h292.644624v146.322312z m365.78019-109.728939c0 21.904844-14.637349 36.542193-36.593373 36.542193H36.669936c-22.007203 0-36.593373-14.637349-36.593373-36.542193 0-21.956024 14.58617-36.593373 36.593373-36.593373h951.018259c21.956024 0 36.593373 14.637349 36.593373 36.593373z m-365.78019 621.831441l51.179542-146.322312h139.054817c14.58617 0 29.223519 14.637349 29.223519 36.593373s-14.637349 36.593373-36.542193 36.593373H760.911642l-102.410264 292.593444-153.640987-387.736214-139.003637 285.32595L270.765164 457.007743H182.941069c-21.904844 0-36.542193-14.637349-36.542194-36.593373s14.637349-36.593373 36.542194-36.593373H314.626032l51.230722 102.410264 153.640986-299.963298 139.003638 343.875346z"  horiz-adv-x="1024" />
      
      <glyph glyph-name="qixiangzhan" unicode="&#59076;" d="M265.5 730.5c-148.8-141.2-154.9-376.3-13.7-525.1 0.7-0.8 1.5-1.6 2.2-2.3L524.2-67l257.3 257.3c147.7 142.4 152 377.5 9.6 525.2-1.3 1.3-2.6 2.6-3.8 3.9C645.7 865.2 413.2 870.1 265.5 730.5zM285.5 234.5C160.6 365.1 165.3 572.2 296 697.1 426.6 822 633.7 817.3 758.6 686.6c124.9-130.1 120.6-336.8-9.5-461.7-0.3-0.3-0.6-0.6-1-0.9-130.7-124.8-337.8-120.1-462.6 10.5zM480.6 457c-0.2-3 2.1-5.5 5-5.7h0.7c3.2 0 5.7 2.6 5.7 5.7-0.2 3.1-2.6 5.6-5.7 5.7-3.1 0-5.7-2.5-5.7-5.7zM415.8 565.1v17.8h11.8v-17.8h195.5v47.2h-34.8v-10.1l-29.7-13.5 8.5 26.7-8.5 27 29.7-13.5v-10.2h77v10.5l23.7-14.9-23.7-14.8v13.2h-29.7v-47.3M401.6 606.6h35.5V589h-35.5zM458.7 601.2c-7.7 0.1-14.7 4.4-18.2 11.1h-18.2c-3.7-3.1-8.1-5-12.8-5.7-0.3 1.9-0.3 3.8 0 5.7H400c-4-10.7-15.9-16.1-26.5-12.1-10.7 4-16.1 15.9-12.1 26.5 0.3 0.8 0.7 1.7 1.1 2.4 5.1 10.2 17.5 14.3 27.6 9.2 6.1-3 10.3-8.9 11.2-15.6h7.1v10.8c7.4 1 14.4-3.6 16.5-10.8h12.8c1.6 11.2 11.7 19.1 23 17.9 11.4-0.7 20-10.6 19.2-21.9s-10.6-20-21.9-19.2l0.7 1.7zM507 516.8h30v-30.1h-30zM507 351.7h30v-115.9h-30zM345.6 566.7h352.8c9.7 0 14.5-4.8 14.5-14.5v-6.4c0-9.7-4.8-14.5-14.5-14.5H345.6c-9.7 0-14.5 4.8-14.5 14.5v6.4c-0.1 9.7 4.8 14.5 14.5 14.5zM508.3 474.9H407v-107.7h232.6V474.6l-131.3 0.3z m-21.9-30.1c-6.3 0-11.5 5.1-11.5 11.5 0 6.3 5.1 11.5 11.5 11.5 6.3 0 11.5-5.1 11.5-11.5s-5.2-11.5-11.5-11.5z m47.9-67.5c-22.3 1.6-39.1 21-37.5 43.3v0.2c1.5 20.1 17.4 36 37.5 37.5 14.9-0.4 28.1-9.5 33.8-23.3h-13.2c-4.6 7.1-12.4 11.5-20.9 11.8-16-1.8-27.6-16.1-26-32.1 1.4-13.7 12.3-24.6 26-26 10.9 0.3 20.4 7.3 24 17.6h12.5c-4.2-16.8-19.2-28.7-36.5-29h0.3z"  horiz-adv-x="1024" />
      
      <glyph glyph-name="a-500kV" unicode="&#58892;" d="M84.897959 386.633143a424.479347 424.479347 0 1 1 848.948245 0 424.479347 424.479347 0 0 1-848.948245 0zM84.897959 386.633143a424.479347 424.479347 0 1 0 848.948245 0 424.479347 424.479347 0 0 0-848.948245 0zM254.223673 641.7658779999999a358.452245 358.452245 0 0 1-105.67053-255.132735 358.347755 358.347755 0 0 1 105.67053-255.132735 358.431347 358.431347 0 0 1 255.132735-105.67053 358.441796 358.441796 0 0 1 255.132735 105.67053 358.337306 358.337306 0 0 1 105.67053 255.132735 358.441796 358.441796 0 0 1-105.67053 255.132735 358.452245 358.452245 0 0 1-255.132735 105.67053 358.441796 358.441796 0 0 1-255.132735-105.67053z m-42.004897-255.132735a297.127184 297.127184 0 1 0 594.264816 0 297.127184 297.127184 0 0 0-594.254368 0zM344.293878 551.706122a231.936 231.936 0 0 1-68.388572-165.072979 231.915102 231.915102 0 0 1 68.388572-165.07298 231.967347 231.967347 0 0 1 165.072979-68.388571 231.967347 231.967347 0 0 1 165.07298 68.378122 231.925551 231.925551 0 0 1 68.388571 165.083429 231.967347 231.967347 0 0 1-68.378122 165.072979 231.988245 231.988245 0 0 1-165.083429 68.388572 231.988245 231.988245 0 0 1-165.072979-68.367674v-0.020898z m16.509387-165.072979a148.563592 148.563592 0 1 0 297.127184 0 148.563592 148.563592 0 0 0-297.127184 0z"  horiz-adv-x="1024" />
      
      <glyph glyph-name="a-110kV" unicode="&#58893;" d="M84.897959 386.633143a424.479347 424.479347 0 1 1 848.948245 0 424.479347 424.479347 0 0 1-848.948245 0zM84.897959 386.633143a424.479347 424.479347 0 1 0 848.948245 0 424.479347 424.479347 0 0 0-848.948245 0zM254.223673 641.765878a358.452245 358.452245 0 0 1-105.67053-255.132735 358.347755 358.347755 0 0 1 105.67053-255.132735 358.431347 358.431347 0 0 1 255.132735-105.67053 358.441796 358.441796 0 0 1 255.132735 105.67053 358.337306 358.337306 0 0 1 105.67053 255.132735 358.441796 358.441796 0 0 1-105.67053 255.132735 358.452245 358.452245 0 0 1-255.132735 105.67053 358.441796 358.441796 0 0 1-255.132735-105.67053z m-42.004897-255.132735a297.127184 297.127184 0 1 0 594.264816 0 297.127184 297.127184 0 0 0-594.254368 0zM344.293878 551.706122a231.936 231.936 0 0 1-68.388572-165.072979 231.915102 231.915102 0 0 1 68.388572-165.07298 231.967347 231.967347 0 0 1 165.072979-68.388571 231.967347 231.967347 0 0 1 165.07298 68.378122 231.925551 231.925551 0 0 1 68.388571 165.083429 231.967347 231.967347 0 0 1-68.378122 165.072979 231.988245 231.988245 0 0 1-165.083429 68.388572 231.988245 231.988245 0 0 1-165.072979-68.367674v-0.020898z m16.509387-165.072979a148.563592 148.563592 0 1 0 297.127184 0 148.563592 148.563592 0 0 0-297.127184 0z"  horiz-adv-x="1024" />
      
      <glyph glyph-name="a-220kV" unicode="&#58895;" d="M84.897959 386.633143a424.479347 424.479347 0 1 1 848.948245 0 424.479347 424.479347 0 0 1-848.948245 0zM84.897959 386.633143a424.479347 424.479347 0 1 0 848.948245 0 424.479347 424.479347 0 0 0-848.948245 0zM254.223673 641.765878a358.452245 358.452245 0 0 1-105.67053-255.132735 358.347755 358.347755 0 0 1 105.67053-255.132735 358.431347 358.431347 0 0 1 255.132735-105.67053 358.441796 358.441796 0 0 1 255.132735 105.67053 358.337306 358.337306 0 0 1 105.67053 255.132735 358.441796 358.441796 0 0 1-105.67053 255.132735 358.452245 358.452245 0 0 1-255.132735 105.67053 358.441796 358.441796 0 0 1-255.132735-105.67053z m-42.004897-255.132735a297.127184 297.127184 0 1 0 594.264816 0 297.127184 297.127184 0 0 0-594.254368 0zM344.293878 551.706122a231.936 231.936 0 0 1-68.388572-165.072979 231.915102 231.915102 0 0 1 68.388572-165.07298 231.967347 231.967347 0 0 1 165.072979-68.388571 231.967347 231.967347 0 0 1 165.07298 68.378122 231.925551 231.925551 0 0 1 68.388571 165.083429 231.967347 231.967347 0 0 1-68.378122 165.072979 231.988245 231.988245 0 0 1-165.083429 68.388572 231.988245 231.988245 0 0 1-165.072979-68.367674v-0.020898z m16.509387-165.072979a148.563592 148.563592 0 1 0 297.127184 0 148.563592 148.563592 0 0 0-297.127184 0z"  horiz-adv-x="1024" />
      
      <glyph glyph-name="dituganta" unicode="&#58969;" d="M342.026449-67.948393a168.144499 60.051607 0 1 1 336.288998 0 168.144499 60.051607 0 1 1-336.288998 0ZM756.14233 242.878724L511.37198-13.901947 266.841837 242.878724a376.163265 376.163265 0 0 0 0 513.561342l7.926812 8.407225 8.407225 7.926812a334.367347 334.367347 0 0 0 472.486043-16.81445 376.643678 376.643678 0 0 0 0.480413-513.080929zM502.964755 832.585503A317.793103 317.793103 0 1 0 193.578877 506.625381v8.407225A313.709594 313.709594 0 0 0 502.964755 832.585503zM674.952557 308.695285H331.21716a19.216514 19.216514 0 0 0 0 38.192822h57.649542v4.083509l57.16913 331.48487h-63.654703v-24.020643a15.373211 15.373211 0 1 0-30.506216 0V698.790523a15.613418 15.613418 0 0 0 15.133004 15.853624 7.686606 7.686606 0 0 0 3.36289 0H631.955607a8.647431 8.647431 0 0 0 3.36289 0 15.373211 15.373211 0 0 0 15.133005-15.853624v-41.075299a15.373211 15.373211 0 0 0-15.133005-15.853624 15.613418 15.613418 0 0 0-15.373212 15.853624v24.020643h-63.654703l57.16913-331.48487a12.971147 12.971147 0 0 0 0-4.323716h61.492845a18.976308 18.976308 0 1 0 0-37.952615z m-255.819845 38.192822h122.024865l-112.656814 53.325827z m24.020643 142.922824l-10.08867-57.889749h93.4403z m8.167018 40.594886h72.061929l-62.693878 54.286653z m74.944406 146.285715a30.506216 30.506216 0 0 0 0 4.804128h-50.923763a10.569083 10.569083 0 0 0 0-4.804128l-7.686605-48.041286h67.017593z m13.211353-76.866057h-55.247478l64.855735-56.208304z m16.81445-98.724842h-80.949566l92.479475-64.375322z m17.054657-98.244428h-87.194934l93.920714-44.678396z m85.033075 187.120806a11.289702 11.289702 0 0 0 0-22.339197h-46.359841a11.289702 11.289702 0 0 0-10.328876 11.770115 11.289702 11.289702 0 0 0 10.328876 10.569082z m13.211353 8.887638h-72.061928a12.971147 12.971147 0 0 0 0 25.942294h72.061928a13.211354 13.211354 0 0 0 13.211354-12.971147 12.971147 12.971147 0 0 0-13.211354-12.971147z m-281.281726-8.887638a11.049496 11.049496 0 0 0 10.569083-11.289702 10.809289 10.809289 0 0 0-10.569083-11.049495H343.707894a11.049496 11.049496 0 0 0-10.569083 11.049495 11.049496 11.049496 0 0 0 10.569083 11.289702z m25.461881 21.858785a12.250528 12.250528 0 0 0-12.250528-12.73094H331.21716a12.490734 12.490734 0 0 0-12.250528 12.73094 12.730941 12.730941 0 0 0 12.250528 12.971147h72.061928a12.730941 12.730941 0 0 0 12.250528-12.971147zM774.638225 781.421534a360.309641 360.309641 0 0 1-508.036594 18.255689l-9.608257-9.368051-8.647432-8.887638a404.74783 404.74783 0 0 1 0-552.474783l264.22707-276.237391 264.227071 276.237391a405.228243 405.228243 0 0 1-2.161858 552.474783z m-18.495895-538.54281L511.37198-13.901947 266.841837 242.878724a376.163265 376.163265 0 0 0 0 513.561342l7.926812 8.407225 8.407225 7.926812a334.367347 334.367347 0 0 0 472.486043-16.81445 376.643678 376.643678 0 0 0 0.480413-513.080929z"  horiz-adv-x="1024" />
      
      <glyph glyph-name="huodian" unicode="&#59121;" d="M0 384.948241c0-282.226338 228.800468-511.039283 511.051759-511.039283S1022.091042 102.709426 1022.091042 384.948241 793.303051 896 511.051759 896 0 667.199532 0 384.948241z m0 0M477.002437 264.272151l-5.502291-43.232284-8.733795-68.161029 39.663905-48.659713-53.850082-12.152452-60.762258 24.304903L290.710596 193.378692l-34.436105 117.469539 30.356175 147.875621 107.300906 89.10966 70.880983 85.004776 16.219904 40.562238H521.532313l38.478604-40.562238 27.024856-19.613607 24.167658-40.275271 6.450531-77.356467v-35.44673l-8.060044-19.339117s37.056243 20.94863 43.506774 28.996199 28.996198 20.94863 28.996199 20.94863a231.24593 231.24593 0 0 0 35.446729-38.678234c16.095136-22.545667 18.016571-75.697046 24.342334-86.202553s24.042889-55.571888 22.458329-60.412906 4.828541-33.837216-11.229165-48.335316S722.409592 212.006628 722.409592 212.006628l-35.44673-62.833414-91.817136-43.544205-109.559217 124.069792zM509.654352 62.983137c-153.203236 0-277.485135 116.783312-277.485135 260.341943 0 73.925334 34.286383 144.631641 93.214544 193.915197 8.571596 6.425578 17.143191 12.851155 25.714787 20.362218 38.565942 29.944439 83.594892 63.20772 125.354908 156.422264 4.279559 10.717614 17.143191 14.97222 27.848328 10.717614 22.458329-8.571596 99.640121-44.99152 129.634467-122.135881 11.778146-29.944439 14.97222-63.20772 9.644605-97.494103 8.571596 9.644605 14.97222 19.289209 21.435227 27.860805a20.836339 20.836339 0 0 0 14.97222 9.644605c6.425578 1.073009 11.790623-1.073009 17.143191-4.292036 58.928161-49.283556 93.202066-119.989863 93.202067-193.915197 0-109.284726-73.925334-207.851837-184.270592-244.271761a21.62238 21.62238 0 0 0-18.2162 2.146018c-50.356565 31.067355-81.42392 73.925334-100.71313 111.418267 2.146018-50.356565 27.860805-81.42392 38.565942-92.141534 6.425578-6.425578 8.571596-14.97222 4.279559-23.568769a21.497612 21.497612 0 0 0-20.362218-14.97222z m-4.279559 593.548689c-43.930987-87.849498-91.081002-124.281899-129.634467-153.203236-8.571596-6.425578-16.070182-12.851155-23.568769-19.28921-49.283556-40.71196-77.144361-99.640121-77.144361-160.701823 0-104.992689 81.42392-193.915196 189.648113-213.204406-19.251779 36.419924-34.29886 95.310654-4.279559 172.479969 3.219027 8.571596 12.851155 14.97222 22.458329 13.924164s17.143191-8.571596 19.28921-18.2162c0-1.073009 17.143191-100.71313 99.640121-156.422263 86.776489 34.286383 144.631641 113.539331 144.63164 201.413783 0 53.575592-21.435228 106.053222-61.074179 145.704649a276.886246 276.886246 0 0 0-72.852324-64.280729 24.704162 24.704162 0 0 0-25.714787 2.146018 23.306755 23.306755 0 0 0-5.352569 24.654255c23.568769 49.283556 26.787796 94.287552 11.778146 133.926504-16.070182 41.784969-52.502583 72.852325-87.849498 91.081002z m0 0"  horiz-adv-x="1024" />
      
      <glyph glyph-name="biandianzhan" unicode="&#59978;" d="M512-128c-281.6 0-512 230.4-512 512s230.4 512 512 512 512-230.4 512-512-230.4-512-512-512zM512 832C262.4 832 64 633.6 64 384s198.4-448 448-448 448 198.4 448 448-198.4 448-448 448zM512 32C320 32 160 192 160 384S320 736 512 736 864 576 864 384 704 32 512 32z m0 640c-160 0-288-128-288-288s128-288 288-288 288 128 288 288-128 288-288 288zM512 576c108.8 0 192-83.2 192-192s-83.2-192-192-192-192 83.2-192 192 83.2 192 192 192z"  horiz-adv-x="1024" />
      
      <glyph glyph-name="circle" unicode="&#60510;" d="M512 384m-160 0a160 160 0 1 1 320 0 160 160 0 1 1-320 0Z"  horiz-adv-x="1024" />
      
      <glyph glyph-name="line" unicode="&#60511;" d="M324.608 297.408l242.336-166.592a16 16 0 0 1 23.072 5.472L926.112 775.424a16 16 0 1 1-28.064 15.424L570.496 167.20000000000005l-241.44 165.984a16 16 0 0 1-22.56-4.608L99.136-7.039999999999964a16 16 0 0 1 27.008-17.184l198.464 321.664z"  horiz-adv-x="1024" />
      
      <glyph glyph-name="fill" unicode="&#60538;" d="M144 463.264V-16h768V315.904L466.112 777.344 144 463.232zM128 470.016L466.464 800 928 322.36800000000005V-32H128V470.016z m32-13.504V0h736v309.44L465.792 754.656 160 456.512z"  horiz-adv-x="1024" />
      
      <glyph glyph-name="shouqi" unicode="&#58925;" d="M1280.65663726 17.491071069999975H179.80395833a49.41964298 49.41964298 0 0 0-37.36607108 81.84375002L693.0450294 732.14732107a49.41964298 49.41964298 0 0 0 74.49107191 2e-8l550.48660702-632.8125a49.41964298 49.41964298 0 0 0-37.24553596-81.96428513z"  horiz-adv-x="1463" />
      
      <glyph glyph-name="switch" unicode="&#59025;" d="M810.752 690.602667a213.333333 213.333333 0 0 0 213.333333-213.333334v-128h-85.333333v128a128 128 0 0 1-128 128h-768a42.666667 42.666667 0 0 0-24.746667 77.397334L316.586667 896l49.493333-69.461333-190.293333-135.936h634.88z m-597.333333-597.333334a213.333333 213.333333 0 0 0-213.333334 213.333334v128h85.333334v-128a128 128 0 0 1 128-128h768a42.666667 42.666667 0 0 0 24.746666-77.397334l-298.666666-213.333333-49.493334 69.461333 190.293334 135.936H213.333333z"  horiz-adv-x="1024" />
      
      <glyph glyph-name="ribaobaogao" unicode="&#59033;" d="M748.8 592h41.6c22.4 0 41.6-19.2 41.6-41.6v-480c0-22.4-19.2-41.6-41.6-41.6H384c-22.4 0-41.6 19.2-41.6 41.6v41.6h364.8c22.4 0 41.6 19.2 41.6 41.6V592zM233.6 736H640c22.4 0 41.6-19.2 41.6-41.6v-480c0-22.4-19.2-41.6-41.6-41.6H233.6c-22.4 0-41.6 19.2-41.6 41.6v480C192 716.8 211.2 736 233.6 736z m83.2-115.2c-19.2 0-35.2-16-35.2-35.2s16-35.2 35.2-35.2h243.2c19.2 0 35.2 16 35.2 35.2 0 19.2-16 35.2-35.2 35.2H316.8z m0-137.6c-19.2 0-35.2-16-35.2-35.2 0-19.2 16-35.2 35.2-35.2h243.2c19.2 0 35.2 16 35.2 35.2s-16 35.2-35.2 35.2H316.8z m0-134.4c-19.2 0-35.2-16-35.2-35.2 0-19.2 16-35.2 35.2-35.2h243.2c19.2 0 35.2 16 35.2 35.2 0 19.2-16 35.2-35.2 35.2H316.8z"  horiz-adv-x="1024" />
      
      <glyph glyph-name="shuijin" unicode="&#58957;" d="M248.339 492.033h527.323c17.172 0 32.77-7.009 44.073-18.311 11.302-11.265 18.311-26.862 18.311-44.035v-157.462c0-17.172-7.009-32.77-18.311-44.073h-0.074c-11.302-11.302-26.862-18.311-43.999-18.311h-527.323c-17.101 0-32.697 7.009-43.962 18.311l-0.074 0.074c-11.302 11.302-18.311 26.862-18.311 43.999v157.462c0 17.137 7.009 32.77 18.311 44.035h0.074c11.265 11.302 26.862 18.311 43.962 18.311zM775.661 453.319h-527.323c-6.495 0-12.403-2.678-16.697-6.935l0.036-0.036c-4.294-4.294-6.973-10.201-6.973-16.659v-157.462c0-6.532 2.678-12.441 6.935-16.733 4.294-4.256 10.201-6.898 16.697-6.898h527.323c6.532 0 12.441 2.642 16.733 6.898l-0.036 0.036c4.294 4.294 6.935 10.201 6.935 16.697v157.462c0 6.459-2.642 12.367-6.935 16.659s-10.201 6.973-16.697 6.973zM665.133 472.658c0-10.679-8.66-19.339-19.375-19.339-10.679 0-19.375 8.66-19.375 19.339v120.4c0 10.679 8.698 19.339 19.375 19.339 10.716 0 19.375-8.66 19.375-19.339v-120.4zM606.971 617.865c-7.229-7.852-19.45-8.367-27.302-1.139s-8.367 19.45-1.139 27.302c1.798 1.945 3.633 3.781 5.503 5.503 1.872 1.689 3.853 3.34 5.945 4.954h0.074l0.478 0.33 0.074 0.074c19.411 14.605 42.823 19.964 65.062 16.88 22.275-3.119 43.376-14.715 58.126-34.017v-0.074l0.33-0.478c6.459-8.478 4.771-20.549-3.707-27.009-8.478-6.422-20.549-4.771-27.009 3.743l-0.293 0.404-0.036-0.036c-8.331 10.899-20.183 17.431-32.697 19.19-12.549 1.725-25.724-1.284-36.623-9.468l-0.036 0.036-0.293-0.256v-0.036c-1.1-0.843-2.202-1.798-3.376-2.827-1.063-0.99-2.093-2.018-3.083-3.083zM571.852 661.605c-7.229-7.852-19.45-8.367-27.302-1.139s-8.367 19.45-1.139 27.302c2.716 2.898 5.503 5.724 8.403 8.331 2.827 2.567 5.834 5.101 8.991 7.522l0.074 0.074 0.77 0.587h0.074c29.467 22.092 65.026 30.274 98.748 25.539 33.795-4.697 65.795-22.275 88.18-51.595l0.074-0.074 0.587-0.77c6.459-8.513 4.734-20.66-3.781-27.083-8.513-6.459-20.623-4.734-27.083 3.781l-0.587 0.77h0.036c-15.963 20.843-38.715 33.356-62.715 36.697-24.035 3.376-49.319-2.422-70.273-18.092l0.036-0.036-0.77-0.587c-2.129-1.615-4.256-3.412-6.349-5.321s-4.074-3.89-5.983-5.908zM526.934 704.246c-7.376-7.743-19.595-8.036-27.302-0.698-7.743 7.376-8.036 19.595-0.698 27.339 1.982 2.093 4.074 4.147 6.202 6.202 2.496 2.386 4.624 4.367 6.385 5.945h0.074l1.173 0.99 0.074 0.11c41.357 35.742 93.098 51.485 143.482 48.036 50.494-3.487 99.667-26.163 135.775-67.19v-0.074l1.027-1.173c7.009-8.036 6.202-20.22-1.834-27.266-8-7.009-20.22-6.202-27.228 1.834l-0.99 1.139-0.036-0.036c-29.135 33.1-68.695 51.375-109.281 54.163-40.658 2.788-82.383-9.87-115.63-38.641l-1.063-0.917 0.036-0.036c-2.164-1.908-3.926-3.487-5.21-4.734-1.652-1.615-3.34-3.265-4.954-4.99zM303.125 241.473c6.789 8.221 18.934 9.394 27.155 2.642 8.257-6.753 9.431-18.934 2.642-27.155-0.036-0.074-18.567-20.879 105.647-27.815 82.823-4.624 143.408-12.256 181.681-23.155 51.117-14.53 70.053-36.88 56.769-67.484-4.22-9.798-15.559-14.274-25.321-10.054-9.798 4.22-14.274 15.559-10.054 25.321 1.504 3.521-9.137 8.513-31.999 15.008-35.632 10.128-93.392 17.321-173.205 21.761-201.131 11.265-133.5 90.713-133.317 90.932zM150.030 83.68c-7.963 7.119-8.698 19.339-1.578 27.302 7.083 8 19.339 8.698 27.302 1.615 0.147-0.11 43.814-40.109 135.225-21.724 28 5.614 47.815 11.083 63.85 15.523 43.155 11.926 61.356 16.953 139.408 3.34 23.852-4.147 42.896-8.331 59.558-11.963 46.677-10.238 73.098-16.037 122.895-1.321 78.309 23.119 169.682-4.22 169.939-4.294 10.238-3.045 16.074-13.835 13.027-24.074s-13.835-16.037-24.074-12.991c-0.22 0.036-80.732 24.145-147.997 4.294-59.411-17.541-89.207-11.009-141.978 0.549-16.513 3.633-35.412 7.78-57.87 11.669-69.758 12.182-85.466 7.817-122.603-2.422-16.367-4.513-36.549-10.128-66.604-16.147-110.603-22.238-168.324 30.494-168.509 30.641zM150.030 11.462c-7.963 7.119-8.698 19.339-1.578 27.339 7.083 7.963 19.339 8.66 27.302 1.578 0.147-0.11 43.814-40.109 135.225-21.724 28 5.614 47.815 11.083 63.85 15.523 43.155 11.926 61.356 16.953 139.408 3.34 23.852-4.147 42.896-8.331 59.558-11.963 46.677-10.238 73.098-16.037 122.895-1.321 78.309 23.119 169.682-4.22 169.939-4.294 10.238-3.045 16.074-13.835 13.027-24.074s-13.835-16.037-24.074-12.991c-0.22 0.074-80.732 24.145-147.997 4.294-59.411-17.541-89.207-11.009-141.978 0.549-16.513 3.633-35.412 7.78-57.87 11.669-69.758 12.182-85.466 7.852-122.603-2.422-16.367-4.513-36.549-10.091-66.604-16.147-110.603-22.202-168.324 30.494-168.509 30.641z"  horiz-adv-x="1024" />
      
      <glyph glyph-name="diding" unicode="&#58891;" d="M164.522667-0.10666700000001583V206.72000000000003h62.250666l28.096 180.821333a74.453333 74.453333 0 0 0 19.2 123.52l39.552 257.045334h396.8l39.893334-257.045334a74.453333 74.453333 0 0 0 19.2-123.52l27.733333-180.821333h62.250667v-206.826667z m57.92 59.093334h579.136V147.626667H222.442667z m62.826666 147.733333h453.184L660.842667 709.013333H362.88z m98.133334 295.530667a128.554667 128.554667 0 0 0 257.109333 0c0.042667-71.018667-128.490667-214.250667-128.490667-214.250667s-128.554667 143.232-128.554666 214.250667z m80 0a48.533333 48.533333 0 1 1 48.618666 48.533333 48.554667 48.554667 0 0 1-48.554666-48.533333z m353.749333-163.456a149.930667 149.930667 0 0 1 0 208.896l40.896 41.664a210.048 210.048 0 0 0 0-292.501334zM165.973333 589.3546670000001l40.810667-41.962667a149.952 149.952 0 0 1 0-208.874667L165.973333 296.853333a210.005333 210.005333 0 0 0 0 292.501334z"  horiz-adv-x="1024" />
      
      <glyph glyph-name="fanhui" unicode="&#58924;" d="M666.829 550.298H199.27c29.9008 30.3104 60.6208 62.0544 82.7392 85.1968 13.1072 13.7216 23.1424 24.1664 28.2624 29.2864a24.5965 24.5965 0 1 1-34.816 34.816c-5.12-5.12-15.5648-15.9744-28.8768-29.9008-24.7808-25.8048-60.2112-62.8736-93.3888-95.8464a68.608 68.608 0 0 1 0-97.0752c14.1312-14.1312 43.2128-42.5984 72.2944-71.0656 29.0816-28.4672 57.9584-56.7296 72.0896-70.8608a24.6579 24.6579 0 0 1 34.816 0c9.6256 9.6256 9.6256 25.1904 0 34.816-14.1312 14.1312-43.2128 42.5984-72.2944 71.0656-23.1424 22.7328-46.08 45.2608-61.6448 60.416h468.582c107.725 0 195.379-87.6544 195.379-195.379s-87.6544-195.379-195.379-195.379H226.918c-13.5168 0-24.576-11.0592-24.576-24.576s11.0592-24.576 24.576-24.576h439.91c134.758 0 244.531 109.773 244.531 244.531s-109.568 244.531-244.531 244.531Z"  horiz-adv-x="1024" />
      
      <glyph glyph-name="home" unicode="&#59134;" d="M1016.439 362.118c-27.937 30.208-429.991 451.851-455.079 479.032-22.506 24.376-76.088 24.799-98.571 0-34.215-37.754-434.221-457.171-454.055-477.963-24.732-25.934 6.745-52.202 49.041-52.202h64.445v-329.416c0-40.403 32.835-73.149 73.327-73.149h219.025v268.221h195.072v-268.221h221.251c40.493 0 73.305 32.746 73.305 73.149v329.416h63.488c46.592 0 69.231 29.006 48.751 51.133z"  horiz-adv-x="1025" />
      
      <glyph glyph-name="zhuji" unicode="&#58888;" d="M0 896h1024v-1024H0V896z m54.4768-54.4768v-440.092672h50.102272v-56.64768H54.4768V-73.5232h440.092672v100.212736h56.64768V-73.5232H969.5232V344.782848h-50.102272v56.64768H969.5232V841.5232H551.217152v-100.212736h-56.64768V841.5232H54.4768z m516.347904-126.3616c216.088576-566.272 216.34048-566.943744 252.7232-662.3232h-98.033664c-40.503296 111.992832-41.0624 113.547264-65.36192 180.8384H385.6384c-25.257984-69.8368-25.481216-70.418432-65.36192-180.8384h-98.045952c131.022848 343.83872 252.7232 662.3232 252.7232 662.3232h95.862784z m-156.8768-407.420928h217.882624c-40.521728 125.167616-40.927232 126.375936-104.579072 322.451456h-8.716288C443.8016 399.837184 443.06432 397.531136 413.958144 307.744768z"  horiz-adv-x="1024" />
      
      <glyph glyph-name="lishigaojing" unicode="&#58894;" d="M915.8 855c9.4 0 17.4-8 17.4-17.4v-908.1c0-9.4-8-17.4-17.4-17.4H113.4c-9.4 0-17.4 8-17.4 17.4V837.6C96 847 104 855 113.4 855h802.4m0 40H113.4C81.8 895 56 869.2 56 837.6v-908.1c0-31.6 25.8-57.4 57.4-57.4h802.3c31.6 0 57.4 25.8 57.4 57.4V837.6C973.2 869.2 947.3 895 915.8 895zM782 687.3H237.6c-10.7 0-19.5 8.8-19.5 19.5v14c0 10.7 8.8 19.5 19.5 19.5H782c10.7 0 19.5-8.8 19.5-19.5v-14c0-10.8-8.8-19.5-19.5-19.5zM782 431.6H237.6c-10.7 0-19.5 8.8-19.5 19.5v14c0 10.7 8.8 19.5 19.5 19.5H782c10.7 0 19.5-8.8 19.5-19.5v-14c0-10.7-8.8-19.5-19.5-19.5zM374 175.89999999999998H237.6c-10.7 0-19.5 8.8-19.5 19.5v14c0 10.7 8.8 19.5 19.5 19.5H374c10.7 0 19.5-8.8 19.5-19.5v-14c0-10.7-8.8-19.5-19.5-19.5zM542.9 3.6000000000000227V163.70000000000005c0 65 53.1 118.1 118.1 118.1s118.1-53.1 118.1-118.1v-160.1H542.9zM820.6-3.7999999999999545H501.3c-5.3 0-9.7 4.3-9.7 9.7V13c0 5.3 4.3 9.7 9.7 9.7h319.2c5.3 0 9.7-4.3 9.7-9.7v-7.2c0-5.2-4.3-9.6-9.6-9.6zM647.7 323.20000000000005v56.3c0 5.3 4.3 9.7 9.7 9.7h7.2c5.3 0 9.7-4.3 9.7-9.7v-56.3c0-5.3-4.3-9.7-9.7-9.7h-7.2c-5.3 0-9.7 4.4-9.7 9.7zM813.4 231.10000000000002h56.3c5.3 0 9.7-4.3 9.7-9.7v-7.2c0-5.3-4.4-9.7-9.7-9.7h-56.3c-5.3 0-9.7 4.3-9.7 9.7v7.2c0 5.4 4.4 9.7 9.7 9.7zM451.4 231.10000000000002h56.3c5.3 0 9.7-4.3 9.7-9.7v-7.2c0-5.3-4.4-9.7-9.7-9.7h-56.3c-5.3 0-9.7 4.3-9.7 9.7v7.2c0.1 5.4 4.4 9.7 9.7 9.7zM535 335.20000000000005l39.8-39.8c3.8-3.8 3.8-9.9 0-13.7l-5.1-5.1c-3.8-3.8-9.9-3.8-13.7 0l-39.8 39.8c-3.8 3.8-3.8 9.9 0 13.7l5.1 5.1c3.8 3.7 9.9 3.7 13.7 0zM812.6 335.20000000000005l-39.8-39.8c-3.8-3.8-3.8-9.9 0-13.7l5.1-5.1c3.8-3.8 9.9-3.8 13.7 0l39.8 39.8c3.8 3.8 3.8 9.9 0 13.7l-5.1 5.1c-3.8 3.7-10 3.7-13.7 0z"  horiz-adv-x="1024" />
      
      <glyph glyph-name="jinrigaojingicon" unicode="&#58913;" d="M512 896c282.76736 0 512-229.23264 512-512S794.76736-128 512-128 0 101.23263999999995 0 384 229.23264 896 512 896z m-2.92864-329.5232c-103.87456 0-188.08832-87.552-188.08832-195.50208v-215.04H255.1808l-1.67936-0.16384a9.68704 9.68704 0 0 1-7.72096-9.6256v-39.09632l0.14336-1.76128a9.5232 9.5232 0 0 1 9.25696-8.00768h507.82208l1.69984 0.16384a9.68704 9.68704 0 0 1 7.70048 9.6256v39.07584l-0.14336 1.76128a9.5232 9.5232 0 0 1-9.25696 8.02816h-65.82272v215.04l-0.08192 5.65248c-2.8672 105.34912-85.95456 189.8496-188.0064 189.8496z m17.73568-105.8816a4.62848 4.62848 0 0 0 5.4272 1.18784c1.86368-0.86016 2.99008-2.8672 2.74432-4.9152l-11.1616-79.74912h59.5968c1.82272 0 3.46112-1.08544 4.21888-2.78528a4.87424 4.87424 0 0 0-0.65536-5.07904l-95.6416-113.9712a4.62848 4.62848 0 0 0-5.4272-1.18784 4.8128 4.8128 0 0 0-2.74432 4.9152l11.18208 79.72864h-59.5968a4.68992 4.68992 0 0 0-4.23936 2.78528 4.87424 4.87424 0 0 0 0.65536 5.07904z m-249.22112 79.79008L245.76 496.2304l73.50272-33.9968 31.82592 44.17536-73.50272 33.9968z m489.30816 0l-73.50272-33.9968 31.82592-44.19584L798.72 496.2304l-31.82592 44.17536z m-371.17952 104.26368l-44.6464-31.49824 34.38592-72.76544L430.08 571.904l-34.36544 72.74496z m253.05088 0L614.4 571.904l44.6464-31.51872 34.34496 72.76544-44.6464 31.49824zM535.40864 670.72H482.7136v-78.19264h52.67456V670.72z"  horiz-adv-x="1024" />
      
      <glyph glyph-name="yunwei" unicode="&#58927;" d="M842.642 134.18600000000004H181.357c-46.407 0-84.163 37.756-84.163 84.162V699.28c0 46.408 37.756 84.164 84.163 84.164h661.284c46.407 0 84.164-37.756 84.164-84.164v-480.933c0.001-46.406-37.756-84.161-84.163-84.161zM181.357 735.351c-19.889 0-36.069-16.18-36.069-36.07v-480.933c0-19.888 16.181-36.07 36.069-36.07h661.284c19.89 0 36.071 16.183 36.071 36.07V699.28c0 19.891-16.182 36.07-36.071 36.07H181.357zM902.758-15.44399999999996H121.241c-13.281 0-24.047 10.766-24.047 24.046 0 13.282 10.766 24.047 24.047 24.047h781.517c13.281 0 24.048-10.765 24.048-24.047 0-13.281-10.767-24.046-24.048-24.046zM705.836 499.174l-39.967 4.902a157.85 157.85 0 0 1-12.546 31.215l24.811 31.747c5.993 7.669 4.408 19.745-3.223 27.377l-25.837 25.838c-7.633 7.632-19.711 9.216-27.379 3.223l-30.844-24.104a158.107 158.107 0 0 1-31.969 13.67l-4.764 38.833c-1.185 9.659-10.844 17.079-21.637 17.079H495.94c-10.793 0-20.452-7.42-21.638-17.079l-4.652-37.936a158.072 158.072 0 0 1-32.959-13.411L406.44 624.1700000000001c-7.668 5.993-19.746 4.41-27.378-3.223l-25.837-25.838c-7.631-7.632-9.216-19.708-3.224-27.377l23.464-30.022a158.151 158.151 0 0 1-13.635-32.865l-38.227-4.688c-9.661-1.186-17.079-10.845-17.079-21.638v-36.541c-0.001-10.792 7.418-20.452 17.079-21.636l38.529-4.727a158.035 158.035 0 0 1 13.458-32.067l-24.283-31.071c-5.993-7.668-4.409-19.746 3.222-27.376l25.838-25.838c7.633-7.635 19.709-9.217 27.378-3.223l31.497 24.614a158.19 158.19 0 0 1 31.142-12.749l4.938-40.263c1.186-9.66 10.845-17.082 21.638-17.081h36.54c10.792-0.001 20.452 7.421 21.638 17.081l4.975 40.566a158.253 158.253 0 0 1 30.35 12.564l32.539-25.43c7.67-5.993 19.747-4.408 27.376 3.226l25.839 25.835c7.634 7.635 9.216 19.711 3.223 27.379l-25.249 32.308a158.06 158.06 0 0 1 12.777 30.256l40.869 5.012c9.662 1.185 17.08 10.846 17.078 21.639l0.001 36.539c0 10.793-7.418 20.454-17.08 21.638zM513.723 374.31100000000004c-47.192 0-85.448 38.256-85.448 85.446 0 47.191 38.256 85.446 85.448 85.446 47.19 0 85.444-38.255 85.444-85.446 0-47.191-38.254-85.446-85.444-85.446z"  horiz-adv-x="1024" />
      
      <glyph glyph-name="duigou" unicode="&#60390;" d="M892.064 634.112a31.936 31.936 0 0 1-45.216-1.472L421.664 178.752l-220.448 185.216a32 32 0 1 1-41.152-48.992l243.648-204.704a31.872 31.872 0 0 1 20.576-7.488 31.808 31.808 0 0 1 23.36 10.112L893.536 588.864a32 32 0 0 1-1.472 45.248z"  horiz-adv-x="1024" />
      
      <glyph glyph-name="daochutupian" unicode="&#59668;" d="M840.32 896h-172.16v-74.24h172.16c15.36 0 30.08-3.84 43.52-9.6l-220.096-220.736 55.04-55.68L939.52 756.48c5.76-13.44 9.6-28.16 9.6-44.16v-171.52H1024V712.3199999999999A183.68 183.68 0 0 1 840.32 896zM949.12 56.32000000000005a108.8 108.8 0 0 0-108.8-109.44H183.68a108.8 108.8 0 0 0-108.8 109.44V712.3199999999999c0 60.16 48.64 109.44 108.8 109.44h356.48V896H183.68A183.68 183.68 0 0 1 0 712.3199999999999v-656C0-45.440000000000055 82.56-128 183.68-128h656.64c101.12 0 183.68 82.56 183.68 184.32V412.8h-74.88v-356.48zM802.496 180.60799999999995L628.224 507.456 456 264.64 366.72 388.608l-145.216-208zM366.72 529.28m-58.112 0a58.112 58.112 0 1 1 116.224 0 58.112 58.112 0 1 1-116.224 0Z"  horiz-adv-x="1024" />
      
      <glyph glyph-name="weixingditu" unicode="&#58885;" d="M661.41876907 85.44615993000002c-12.20592299 29.38001749-52.47716693 79.61527979-119.70661832 149.32189639-17.93523485 18.64101888-16.78660381 32.93661867-10.37918549 75.42208853l0.74730041 4.80210376c4.35925789 29.10323939 11.66620558 46.31884914 110.7805184 61.8599515 50.34597376 7.88818147 63.58981632-11.99833998 81.94021718-39.5377812 2.0343205-3.04456135 4.06864099-6.04760633 6.13063907-9.03681137 17.43703381-25.18682624 30.36258077-30.95765333 49.87545145-39.71768775 8.74619449-3.91641315 19.65125973-8.85690595 34.26515399-17.0633819 34.65264355-19.56822585 34.65264355-41.65513557 34.65264469-90.10517789v-5.48021021c0-77.41489266-28.84030009-119.30528882-40.09133852-132.72903793a458.45558727 458.45558727 0 0 0-147.41212615-84.32051087c27.08275769 49.95848419 6.3659008 109.28591417-0.80265671 126.58455894zM512 833.42569586c70.67534109 0 137.61417443-15.91475314 197.39828907-44.38140245-32.85358478-20.52311154-80.04428686-52.64323357-99.46028488-78.9371722-7.19623623-9.74259655-13.38223161-18.95931449-19.09770353-27.44256967-18.95931449-28.23138759-28.09299854-40.82480014-45.57154759-42.99750969-8.67699939-1.06559602-20.30168861-0.31829561-32.6183242 0.47052345-33.03349134 2.11735438-78.21754937 4.98200917-92.67921578-33.82230927-9.17520043-24.59175253-10.79435378-91.33684167 18.91779697-125.97564643 4.76058738-5.53556651 5.67395555-15.77636295 2.44948765-27.26266311-4.24854755-15.08441771-12.82867427-24.25961813-15.49958486-26.15555072-5.12039822 2.9061723-15.33351822 14.62773305-22.25297522 22.59894841-16.67589347 19.1530587-37.4896219 42.99750969-64.37863424 50.37365248-9.78411293 2.67091058-20.53695033 4.89897643-30.95765446 7.05784718-29.18627214 6.04760633-62.23360227 12.91170816-69.91419962 29.10323826-5.60476046 11.85995093-5.57708288 28.18987008-5.56324408 45.44699847 0 21.86548679 0 46.59562837-10.83587129 70.63382357-9.41046215 20.89676231-26.00332174 32.20315591-43.41267684 37.73872242C261.82008832 778.11155058 380.46110947 833.42569586 512 833.42569586zM16.4284416 383.55023530999995c0-270.10794951 221.86549134-489.03959097 495.5715584-489.03959097 273.69222941 0 495.5715584 218.93164032 495.5715584 489.03959097 0 270.09411072-221.86549134 489.03959097-495.5715584 489.03959096C238.29393181 872.58982627 16.4284416 653.64434603 16.4284416 383.55023530999995z m0 0"  horiz-adv-x="1024" />
      
      <glyph glyph-name="shiliangditu" unicode="&#58907;" d="M581.7460625 107.01353905999997l203.11382437-117.31946625a477.53101313 477.53101313 0 0 0-318.75387093-83.10728625l115.64004656 200.4267525zM33.63143656 423.56017219l455.74653938-263.18906813-132.91407844-230.22445781A479.83421719 479.83421719 0 0 0 32 370.39454063000005v14.15510906c0 13.09947375 0.52781719 26.10298125 1.63143656 39.0105225z m304.21489313-52.49386406L615.9582425 852.8198625a479.78623406 479.78623406 0 0 0 253.20851625-788.65551938L337.84632969 371.06630813000004 615.9582425 852.8198625l-278.11191281-481.75355437z m387.13024687 279.88729968a106.61916281 106.61916281 0 0 1-106.61916281-106.57117969c0-54.84505125 92.41607062-192.50948813 105.17966063-211.27100625l1.43950218-2.15925375s106.66714688 154.45863469 106.66714688 213.43026a106.61916281 106.61916281 0 0 1-106.66714688 106.61916282v-0.04798313zM499.2145775 864L245.43026 424.37589 55.99171062 533.92204219A479.78623406 479.78623406 0 0 0 497.67910813 863.95201688L499.2145775 864z m225.71401594-266.45194125a53.30958187 53.30958187 0 1 0-37.66698657-15.54662812 53.26159781 53.26159781 0 0 0 37.71496969 15.64259531v-0.09596719z"  horiz-adv-x="1024" />
      
      <glyph glyph-name="zhedie" unicode="&#58939;" d="M128 725.333333h768v-85.333333H128V725.333333z m0-640h768v-85.333333H128v85.333333z m341.333333 213.333334h426.666667v-85.333334H469.333333v85.333334z m0 213.333333h426.666667v-85.333333H469.333333V512z m-341.333333-149.333333L298.666667 512v-298.666667l-170.666667 149.333334z"  horiz-adv-x="1024" />
      
      <glyph glyph-name="paixupaihang" unicode="&#58964;" d="M199.68 450.56H819.2c5.12 0 15.36 0 20.48 5.12 5.12 10.24 10.24 15.36 10.24 25.6 0 5.12-10.24 15.36-20.48 25.6 0 0-179.2 168.96-286.72 276.48 0 0-10.24 10.24-30.72 10.24-10.24 0-20.48 0-35.84-15.36l-291.84-281.6c-5.12-5.12-10.24-15.36-10.24-20.48 0-10.24 10.24-25.6 25.6-25.6zM824.32 317.44H204.8c-5.12 0-15.36-5.12-20.48-5.12-5.12-10.24-10.24-15.36-10.24-25.6 0-5.12 10.24-15.36 20.48-25.6 0 0 179.2-168.96 286.72-276.48 0 0 10.24-10.24 30.72-10.24 10.24 0 20.48 0 35.84 15.36l291.84 281.6c5.12 5.12 10.24 15.36 10.24 20.48 0 10.24-10.24 25.6-25.6 25.6z"  horiz-adv-x="1024" />
      
      <glyph glyph-name="query" unicode="&#58886;" d="M966.4-28.799999999999955L736 198.39999999999998c60.8 67.2 96 156.8 96 256C832 672 656 844.8 441.6 844.8c-217.6 0-390.4-176-390.4-390.4 0-217.6 176-390.4 390.4-390.4 99.2 0 188.8 35.2 256 96L928-67.20000000000005c9.6-9.6 28.8-9.6 38.4 0 12.8 12.8 12.8 28.8 0 38.4z m-864 483.2c0 185.6 150.4 339.2 339.2 339.2s339.2-150.4 339.2-339.2c0-89.6-35.2-172.8-92.8-233.6-3.2 0-3.2-3.2-6.4-3.2-3.2-3.2-3.2-3.2-3.2-6.4-60.8-57.6-144-92.8-233.6-92.8-188.8-3.2-342.4 150.4-342.4 336z"  horiz-adv-x="1024" />
      
      <glyph glyph-name="upload" unicode="&#58970;" d="M876.8 260.6c-11.8 0-21.5-9.6-21.5-21.4v-214.5h-708V239.10000000000002c0 11.9-9.6 21.4-21.5 21.4-11.8 0-21.5-9.6-21.5-21.4v-236c0-11.9 9.6-21.5 21.5-21.5h750.9c11.8 0 21.5 9.6 21.5 21.5v236c0.1 11.9-9.5 21.5-21.4 21.5zM281.4 524l200.3 200.3v-549.5c0-11.8 9.6-21.5 21.5-21.5s21.5 9.6 21.5 21.5V724.2L724.8 524c8.2-8.2 21.4-8.2 29.6 0 8.2 8.2 8.2 21.4 0 29.6L521.7 786.4c-0.9 1.5-2 3-3.3 4.3-2.1 2.1-4.4 3.6-7 4.6-2.6 1.1-5.4 1.7-8.4 1.7s-5.8-0.6-8.4-1.7c-2.5-1-4.9-2.6-7-4.6-1.3-1.3-2.4-2.8-3.3-4.3L251.8 553.6c-8.2-8.2-8.2-21.4 0-29.6 8.1-8.2 21.4-8.2 29.6 0z"  horiz-adv-x="1024" />
      
      <glyph glyph-name="biaoge" unicode="&#58942;" d="M959.825022 511.997742V704.060283C959.825022 774.7521 902.517291 832.059831 831.825474 832.059831H191.939717C121.2479 832.059831 63.940169 774.7521 63.940169 704.060283v-639.885757C63.940169-6.517291 121.2479-63.825022 191.939717-63.825022h639.885757c70.691817 0 127.999548 57.307731 127.999548 127.999548V511.997742zM146.66502 749.33498a63.737872 63.737872 0 0 0 45.336109 18.784682h639.997742A63.961844 63.961844 0 0 0 895.884854 703.998871V575.937911H127.880338V703.998871A63.737872 63.737872 0 0 0 146.66502 749.33498z m269.1267-461.308451v223.971213h192.181751v-223.971213h-192.181751z m192.181751-63.940169v-223.971214h-192.181751v223.971214h192.181751z m-256.12192 63.940169H127.880338v223.971213h223.971213v-223.971213z m-205.186531-269.235073a63.466939 63.466939 0 0 0-18.784682 45.209673V224.08636h223.971213v-223.971214H192.001129a63.625887 63.625887 0 0 0-45.336109 18.67631z m749.219834 45.209673A63.763159 63.763159 0 0 0 831.998871 0.115146H671.91364v223.971214h223.971214v-160.085231z m0 224.0254h-223.971214v223.971213h223.971214v-223.971213z"  horiz-adv-x="1024" />
      
      <glyph glyph-name="plus-thin" unicode="&#58898;" d="M800 400L528 400 528 672.64 496 672.64 496 400 222.72 400 222.72 368 496 368 496 95.36000000000001 528 95.36000000000001 528 368 800 368Z"  horiz-adv-x="1024" />
      
      <glyph glyph-name="xxd" unicode="&#59393;" d="M994.133333 802.133333l-256 89.6c-12.8 4.266667-25.6 4.266667-38.4-4.266666-8.533333-8.533333-17.066667-21.333333-17.066666-34.133334v-384c0-25.6 17.066667-42.666667 42.666666-42.666666s42.666667 17.066667 42.666667 42.666666V576L1002.666667 725.333333c17.066667 8.533333 21.333333 25.6 21.333333 42.666667s-12.8 29.866667-29.866667 34.133333zM768 678.4V793.6l115.2-42.666667L768 678.4zM396.8-29.866667000000007c-12.8 4.266667-25.6 8.533333-38.4 17.066667-17.066667 8.533333-34.133333 0-42.666667-17.066667-8.533333-17.066667 0-34.133333 17.066667-42.666666 12.8-4.266667 25.6-12.8 42.666667-17.066667h12.8c12.8 0 25.6 8.533333 29.866666 21.333333 4.266667 12.8-4.266667 34.133333-21.333333 38.4zM268.8 567.4666669999999c4.266667-4.266667 8.533333-4.266667 17.066667-4.266667 12.8 0 21.333333 4.266667 29.866666 17.066667 4.266667 8.533333 8.533333 17.066667 17.066667 25.6 12.8 12.8 12.8 34.133333 0 46.933333-12.8 12.8-34.133333 12.8-46.933333 0-8.533333-12.8-21.333333-25.6-29.866667-38.4-8.533333-17.066667-4.266667-38.4 12.8-46.933333zM302.933333 477.866667c-4.266667 17.066667-21.333333 29.866667-38.4 25.6-17.066667-4.266667-29.866667-21.333333-25.6-38.4 4.266667-17.066667 8.533333-34.133333 12.8-46.933334 4.266667-12.8 17.066667-21.333333 29.866667-21.333333 4.266667 0 8.533333 0 12.8 4.266667 17.066667 8.533333 25.6 25.6 17.066667 42.666666-4.266667 8.533333-8.533333 21.333333-8.533334 34.133334zM413.866667 341.33333300000004c-12.8 4.266667-21.333333 12.8-34.133334 17.066667-12.8 8.533333-34.133333 4.266667-42.666666-8.533333-8.533333-12.8-4.266667-34.133333 8.533333-42.666667 12.8-8.533333 25.6-17.066667 42.666667-25.6 4.266667-4.266667 8.533333-4.266667 12.8-4.266667 12.8 0 21.333333 8.533333 29.866666 17.066667 4.266667 21.333333-4.266667 38.4-17.066666 46.933333zM635.733333 640c-8.533333 8.533333-21.333333 17.066667-29.866666 25.6-12.8 8.533333-34.133333 8.533333-42.666667-8.533333-8.533333-12.8-8.533333-34.133333 8.533333-42.666667 8.533333-4.266667 17.066667-12.8 25.6-21.333333 4.266667-4.266667 12.8-8.533333 21.333334-8.533334s17.066667 4.266667 25.6 12.8c4.266667 8.533333 4.266667 29.866667-8.533334 42.666667zM691.2 46.93333299999995c-17.066667 4.266667-34.133333-4.266667-42.666667-21.333333l-4.266666-8.533333-12.8-25.6c-8.533333-12.8-4.266667-34.133333 8.533333-42.666667 4.266667-4.266667 12.8-4.266667 17.066667-4.266667 8.533333 0 21.333333 4.266667 25.6 12.8 8.533333 12.8 12.8 25.6 17.066666 38.4l4.266667 8.533334c12.8 21.333333 4.266667 38.4-12.8 42.666666zM499.2 678.4c0 17.066667-12.8 34.133333-29.866667 34.133333H422.4c-17.066667 0-29.866667-17.066667-29.866667-34.133333s17.066667-29.866667 29.866667-29.866667h42.666667c17.066667 0 34.133333 12.8 34.133333 29.866667zM686.933333 200.53333299999997c-12.8 12.8-29.866667 12.8-46.933333 4.266667-12.8-12.8-17.066667-29.866667-4.266667-46.933333 8.533333-8.533333 12.8-21.333333 17.066667-29.866667 4.266667-12.8 17.066667-21.333333 29.866667-21.333333 4.266667 0 8.533333 0 12.8 4.266666 17.066667 8.533333 25.6 25.6 17.066666 42.666667-8.533333 17.066667-17.066667 29.866667-25.6 46.933333zM571.733333 281.6c-12.8 8.533333-29.866667 12.8-42.666666 17.066667-17.066667 4.266667-34.133333-4.266667-42.666667-17.066667-4.266667-17.066667 4.266667-34.133333 17.066667-42.666667 12.8-4.266667 25.6-8.533333 38.4-17.066666 4.266667 0 8.533333-4.266667 12.8-4.266667 12.8 0 25.6 8.533333 29.866666 17.066667 12.8 21.333333 4.266667 42.666667-12.8 46.933333zM550.4-51.200000000000045H512c-17.066667 0-29.866667-12.8-29.866667-29.866667 0-17.066667 12.8-34.133333 29.866667-34.133333h12.8c12.8 0 25.6 0 38.4 4.266667 17.066667 4.266667 29.866667 17.066667 25.6 34.133333-4.266667 17.066667-21.333333 29.866667-38.4 25.6zM157.866667 234.66666699999996c-85.333333 0-157.866667-68.266667-157.866667-157.866667 0-42.666667 17.066667-81.066667 46.933333-110.933333 25.6-25.6 76.8-81.066667 76.8-81.066667 8.533333-8.533333 21.333333-12.8 34.133334-12.8s21.333333 4.266667 29.866666 12.8c0 0 59.733333 59.733333 81.066667 85.333333 25.6 29.866667 42.666667 68.266667 42.666667 110.933334 0 85.333333-68.266667 153.6-153.6 153.6z m0-85.333334c38.4 0 72.533333-29.866667 72.533333-72.533333 0-21.333333-8.533333-42.666667-25.6-55.466667-4.266667 0-4.266667-4.266667-8.533333-4.266666-25.6-17.066667-64-12.8-85.333334 8.533333-17.066667 17.066667-25.6 34.133333-25.6 51.2 0 42.666667 29.866667 72.533333 72.533334 72.533333z"  horiz-adv-x="1024" />
      
      <glyph glyph-name="richangjiance" unicode="&#58926;" d="M813.653333 685.653333l-60.16-60.16A341.930667 341.930667 0 0 0 853.333333 384c0-188.586667-152.746667-341.333333-341.333333-341.333333s-341.333333 152.746667-341.333333 341.333333c0 174.08 130.133333 317.44 298.666666 338.346667v-86.186667C348.16 615.68 256 510.72 256 384c0-141.226667 114.773333-256 256-256s256 114.773333 256 256c0 70.826667-28.586667 134.826667-75.093333 180.906667l-60.16-60.16C663.466667 473.6 682.666667 430.933333 682.666667 384c0-94.293333-76.373333-170.666667-170.666667-170.666667s-170.666667 76.373333-170.666667 170.666667c0 79.36 54.613333 145.493333 128 164.693333v-91.306666c-25.6-14.933333-42.666667-41.813333-42.666666-73.386667 0-46.933333 38.4-85.333333 85.333333-85.333333s85.333333 38.4 85.333333 85.333333c0 31.573333-17.066667 58.88-42.666666 73.386667V810.666667h-42.666667C276.48 810.666667 85.333333 619.52 85.333333 384s191.146667-426.666667 426.666667-426.666667 426.666667 191.146667 426.666667 426.666667c0 117.76-47.786667 224.426667-125.013334 301.653333z"  horiz-adv-x="1024" />
      
      <glyph glyph-name="dixiashuiwei" unicode="&#59142;" d="M896 768v-667.818667c13.226667-10.666667 27.434667-22.912 42.666667-36.864l-42.666667-34.56V0h-85.333333v67.328c-12.8 6.4-24.661333 9.856-34.730667 9.856-12.288 0-17.834667-3.84-35.669333-24.704-31.744-37.034667-53.76-52.48-96.64-52.48-42.88 0-64.853333 15.445333-96.64 52.48-17.834667 20.864-23.338667 24.746667-35.626667 24.746667-12.288 0-17.792-3.882667-35.626667-24.746667-31.744-37.034667-53.802667-52.48-96.64-52.48-42.837333 0-64.853333 15.445333-96.597333 52.48-17.877333 20.864-23.466667 24.746667-35.712 24.746667a92.970667 92.970667 0 0 1-53.888-17.664c-9.728-6.826667-16.256-13.354667-18.773333-16.64l-4.266667-4.736c-11.136-10.410667-20.608-19.882667-26.112-25.728L85.333333 64.725333c8.917333 9.301333 18.090667 18.346667 27.477334 27.221334 7.210667 8.746667 18.474667 19.626667 33.877333 30.336a172.586667 172.586667 0 0 0 100.096 32.128c42.88 0 64.896-15.445333 96.64-52.48 17.877333-20.906667 23.424-24.746667 35.669333-24.746667 12.288 0 17.792 3.84 35.626667 24.746667 31.744 37.034667 53.76 52.48 96.64 52.48 42.837333 0 64.853333-15.445333 96.64-52.48 17.834667-20.906667 23.381333-24.746667 35.626667-24.746667 12.288 0 17.792 3.84 35.669333 24.746667 31.744 37.034667 53.76 52.48 96.64 52.48 11.690667 0 23.253333-1.536 34.773333-4.48L810.666667 341.333333h-128v85.333334h128V554.666667h-128V640h128V768h85.333333zM341.333333 725.333333c106.666667-118.869333 160-207.786667 160-266.666666a160 160 0 0 0-320 0C181.333333 517.546667 234.666667 606.464 341.333333 725.333333z m48-170.666666C357.333333 518.997333 341.333333 492.373333 341.333333 474.666667a48 48 0 0 1 96 0c0 17.664-16 44.373333-48 80z"  horiz-adv-x="1024" />
      
      <glyph glyph-name="shigongpohuai" unicode="&#58916;" d="M915.968 329.728c-47.616 47.616-110.592 73.728-177.664 73.728-67.072 0-130.048-26.112-177.664-73.728-47.616-47.616-73.728-110.592-73.728-177.664 0-67.072 26.112-130.048 73.728-177.664 47.616-47.616 110.592-73.728 177.664-73.728 67.072 0 130.048 26.112 177.664 73.728 47.616 47.616 73.728 110.592 73.728 177.664-0.512 67.072-26.624 130.048-73.728 177.664z m-177.664-376.32c-109.568 0-198.656 89.088-198.656 198.656s89.088 198.656 198.656 198.656 198.656-89.088 198.656-198.656-89.088-198.656-198.656-198.656zM176.64-28.16c-47.104 0-84.992 37.888-84.992 84.992V710.656c0 47.104 37.888 84.992 84.992 84.992h536.576c47.104 0 84.992-37.888 84.992-84.992v-263.168h57.856V764.416c0 54.784-44.032 98.816-98.816 98.816h-624.64C77.824 863.232 33.792 819.2 33.792 764.416v-761.344c0-54.784 44.032-98.816 98.816-98.816h362.496v67.584H176.64zM835.072 207.36l-79.872 46.08c-11.264 6.656-13.824 15.36-7.168 27.136 6.656 11.264 15.36 13.824 27.136 7.168l79.872-46.08c11.264-6.656 13.824-15.36 7.168-27.136-6.656-11.264-15.872-13.824-27.136-7.168z m0 0M721.92 143.36l66.048 114.176 34.304-19.968-66.048-114.176-34.304 19.968z m0 0M644.608 92.16l24.576-62.976c2.048-5.632 8.192-9.216 14.336-8.192l66.56 10.24c4.096 0.512 7.68 3.072 9.728 6.656l29.696 51.2c3.584 6.144 1.536 14.336-4.608 18.432l-91.648 52.736c-6.144 3.584-14.336 1.024-17.92-5.12l-29.696-51.2c-2.048-3.584-2.56-8.192-1.024-11.776z m0 0M296.96 510.464L154.624 391.168l103.936-123.904 142.336 119.296-33.28 14.336 9.216 39.424-55.808 16.384-7.168 46.592-16.896 7.168z m0 0M373.76 553.984l12.288-13.312-12.288-45.568 44.544-37.888-24.576-32.256 24.576-26.624L690.176 476.16l-44.544 155.136L373.76 553.984z m0 0M209.92 541.184l5.12 20.992 49.152-11.776-5.12-20.992-49.152 11.776z m154.112 52.224l11.776 49.152 20.992-5.12-11.776-49.152-20.992 5.12z m0 0M254.6176 650.89536l18.8928 11.3152 40.78592-68.07552-18.88256-11.3152z"  horiz-adv-x="1024" />
      
      </font>
</defs>
</svg>
